<?xml version="1.0" encoding="utf-8"?>
<!-- Generator: Adobe Illustrator 16.0.0, SVG Export Plug-In . SVG Version: 6.00 Build 0)  -->
<!DOCTYPE svg PUBLIC "-//W3C//DTD SVG 1.1//EN" "http://www.w3.org/Graphics/SVG/1.1/DTD/svg11.dtd">
<svg version="1.1" id="Layer_1" xmlns="http://www.w3.org/2000/svg" xmlns:xlink="http://www.w3.org/1999/xlink" x="0px" y="0px"
	 width="2432.877px" height="956.952px" viewBox="0 0 2432.877 956.952" enable-background="new 0 0 2432.877 956.952"
	 xml:space="preserve">
<g>
	<g>
		<path fill="#FFFFFF" d="M1135.755,38.678v425.73c0,89.8-50.726,184.596-203.721,184.596
			c-138.031,0-204.552-71.511-204.552-184.596V38.678h125.561v417.414c0,74.002,31.595,103.108,77.328,103.108
			c54.881,0,79.823-36.591,79.823-103.108V38.678H1135.755z"/>
		<path fill="#FFFFFF" d="M1339.935,649.004c-155.496,0-184.598-91.468-177.949-195.406h125.556
			c0,57.381,2.496,105.603,71.519,105.603c42.404,0,63.191-27.445,63.191-68.182c0-108.098-252.779-114.749-252.779-293.523
			c0-93.96,44.903-168.798,197.898-168.798c122.231,0,182.931,54.881,174.619,180.441h-122.234c0-44.905-7.484-90.638-58.209-90.638
			c-40.735,0-64.849,22.452-64.849,64.027c0,113.918,252.773,103.938,252.773,292.686
			C1549.471,630.711,1435.551,649.004,1339.935,649.004z"/>
		<path fill="#FFFFFF" d="M2184.02,649.004c-155.491,0-184.587-91.468-177.941-195.406h125.56
			c0,57.381,2.493,105.603,71.507,105.603c42.404,0,63.197-27.445,63.197-68.182c0-108.098-252.776-114.749-252.776-293.523
			c0-93.96,44.897-168.798,197.896-168.798c122.225,0,182.93,54.881,174.618,180.441h-122.233c0-44.905-7.484-90.638-58.207-90.638
			c-40.744,0-64.86,22.452-64.86,64.027c0,113.918,252.779,103.938,252.779,292.686
			C2393.559,630.711,2279.642,649.004,2184.02,649.004z"/>
		<path fill="#FFFFFF" d="M1784.048,415.29h73.913v132.473l-6.15,2.289c-19.133,6.652-41.58,11.645-62.364,11.645
			c-71.51,0-89.804-33.263-89.804-221.18c0-116.414,0-222.015,78.154-222.015c60.824,0,73.641,41.034,74.764,90.638h125.063
			c1.013-116.497-74.022-180.441-192.34-180.441c-205.374,0-212.865,153.831-212.865,305.165
			c0,227.834,24.701,316.231,235.906,316.231c48.979,0,126.957-11.052,162.979-20.907c2.161-0.59,6.06-2.982,6.06-6.086
			c0-16.37,0-298.386,0-298.386h-193.316V415.29z"/>
	</g>
	<g>
		<path fill="#FFFFFF" d="M71.261,823.148c-1.235,4.831-2.007,9.452-1.25,12.805c0.962,3.355,3.755,5.039,9.63,5.039
			c5.875,0,11.714-3.779,13.231-10.911c4.774-22.456-48.337-17.414-41.154-51.2c4.862-22.871,28.995-29.794,48.089-29.794
			c20.142,0,36.345,9.651,29.805,32.517h-28.956c1.562-7.344,1.661-11.744-0.034-13.634c-1.491-1.89-3.916-2.305-7.066-2.305
			c-6.503,0-10.964,4.194-12.483,11.323c-3.567,16.793,48.65,15.945,41.426,49.939c-3.928,18.465-21.98,32.317-46.53,32.317
			c-25.808,0-41.631-6.508-33.665-36.097H71.261z"/>
		<path fill="#FFFFFF" d="M197.855,788.951c3.344-15.733,0.475-20.981-8.758-20.981c-12.589,0-16.003,11.114-20.684,33.155
			c-6.873,32.309-5.617,39.231,5.294,39.231c9.234,0,15.424-8.386,18.367-22.241h29.587c-6.112,28.746-24.271,41.13-51.967,41.13
			c-38.189,0-38.274-23.292-31.226-56.448c6.153-28.949,15.616-53.71,54.645-53.71c27.277,0,40.218,12.172,34.329,39.864H197.855z"
			/>
		<path fill="#FFFFFF" d="M258.718,857.146h-29.586l22.528-105.961h29.584L258.718,857.146z M289.914,710.391l-4.951,23.289h-29.583
			l4.95-23.289H289.914z"/>
		<path fill="#FFFFFF" d="M1643.192,857.146h-29.579l22.527-105.961h29.582L1643.192,857.146z M1674.395,710.391l-4.952,23.289
			h-29.583l4.95-23.289H1674.395z"/>
		<path fill="#FFFFFF" d="M315.804,808.888c-2.677,12.586-6.271,31.469,6.735,31.469c10.491,0,14.729-10.069,16.605-18.883h30.003
			c-2.87,11.545-8.656,20.981-17.172,27.493c-8.306,6.499-19.6,10.278-33.451,10.278c-38.186,0-38.271-23.292-31.223-56.448
			c6.154-28.949,15.615-53.71,54.643-53.71c39.869,0,38.785,25.806,30.509,59.801H315.804z M346.394,792.307
			c2.185-10.282,5.729-24.964-8.332-24.964c-13.636,0-16.819,15.945-18.739,24.964H346.394z"/>
		<path fill="#FFFFFF" d="M428.255,761.886h0.419c7.884-9.449,16.569-12.799,27.693-12.799c14.054,0,24.652,8.392,21.53,23.077
			l-18.066,84.982h-29.583l15.523-73.02c2.003-9.446,1.887-16.784-7.553-16.784c-9.443,0-12.683,7.338-14.688,16.784l-15.523,73.02
			h-29.587l22.526-105.961h29.584L428.255,761.886z"/>
		<path fill="#FFFFFF" d="M545.704,788.951c3.343-15.733,0.473-20.981-8.761-20.981c-12.591,0-16.004,11.114-20.688,33.155
			c-6.868,32.309-5.612,39.231,5.298,39.231c9.236,0,15.425-8.386,18.366-22.241h29.587c-6.113,28.746-24.269,41.13-51.968,41.13
			c-38.187,0-38.275-23.292-31.227-56.448c6.157-28.949,15.618-53.71,54.644-53.71c27.277,0,40.219,12.172,34.329,39.864H545.704z"
			/>
		<path fill="#FFFFFF" d="M613.292,808.888c-2.677,12.586-6.273,31.469,6.736,31.469c10.49,0,14.731-10.069,16.604-18.883h30.005
			c-2.87,11.545-8.656,20.981-17.173,27.493c-8.307,6.499-19.603,10.278-33.451,10.278c-38.188,0-38.274-23.292-31.224-56.448
			c6.153-28.949,15.613-53.71,54.64-53.71c39.868,0,38.789,25.806,30.512,59.801H613.292z M643.884,792.307
			c2.183-10.282,5.726-24.964-8.333-24.964c-13.639,0-16.817,15.945-18.735,24.964H643.884z"/>
		<path fill="#FFFFFF" d="M794.142,729.272c-11.78-0.836-15.278,3.777-17.556,14.482l-2.103,7.431h13.848l-3.879,18.253h-13.848
			l-18.646,87.708h-29.583l18.644-87.708h-13.221l3.882-18.253h13.43c5.941-26.501,11.266-41.219,42.646-41.219
			c3.567,0,6.876,0.208,10.402,0.424L794.142,729.272z"/>
		<path fill="#FFFFFF" d="M784.778,802.797c6.155-28.949,15.615-53.71,54.642-53.71c39.028,0,37.961,24.761,31.806,53.71
			c-7.047,33.156-17.035,56.448-55.224,56.448C777.815,859.245,777.731,835.953,784.778,802.797z M841.994,801.125
			c4.687-22.041,6-33.155-6.586-33.155c-12.591,0-16.006,11.114-20.688,33.155c-6.868,32.309-5.613,39.231,5.298,39.231
			C830.926,840.356,835.126,833.434,841.994,801.125z"/>
		<path fill="#FFFFFF" d="M924.263,751.186l-2.898,13.635h0.421c8.043-12.169,18.872-15.733,30.832-15.733l-5.62,26.433
			c-25.664-1.672-29.295,13.432-31.523,23.919l-12.269,57.708h-29.583l22.527-105.961H924.263z"/>
		<path fill="#FFFFFF" d="M1065.27,837.422c-1.389,6.505-1.977,13.22-2.729,19.725h-27.484l1.729-14.059h-0.421
			c-8.615,10.909-18.33,16.157-31.131,16.157c-20.563,0-24.859-15.318-20.938-33.786c7.45-35.036,34.831-36.508,62.229-36.09
			l1.74-8.177c1.916-9.028,2.042-15.527-8.661-15.527c-10.281,0-12.77,7.756-14.552,16.154h-28.959
			c2.722-12.802,8.447-20.984,16.399-25.81c7.784-5.033,17.839-6.923,29.169-6.923c37.558,0,38.95,16.16,34.845,35.458
			L1065.27,837.422z M1013.521,824.199c-1.606,7.56-2.312,16.793,7.344,16.793c17.414,0,19.683-23.504,22.136-35.042
			C1028.179,806.577,1017.537,805.32,1013.521,824.199z"/>
		<path fill="#FFFFFF" d="M1182.38,788.951c3.346-15.733,0.476-20.981-8.756-20.981c-12.592,0-16.006,11.114-20.688,33.155
			c-6.869,32.309-5.612,39.231,5.301,39.231c9.232,0,15.424-8.386,18.364-22.241h29.588c-6.112,28.746-24.268,41.13-51.967,41.13
			c-38.19,0-38.273-23.292-31.227-56.448c6.155-28.949,15.613-53.71,54.643-53.71c27.276,0,40.218,12.172,34.331,39.864H1182.38z"/>
		<path fill="#FFFFFF" d="M1396.655,837.422c-1.382,6.505-1.968,13.22-2.723,19.725h-27.483l1.729-14.059h-0.421
			c-8.619,10.909-18.337,16.157-31.135,16.157c-20.561,0-24.862-15.318-20.937-33.786c7.454-35.036,34.836-36.508,62.23-36.09
			l1.743-8.177c1.911-9.028,2.036-15.527-8.66-15.527c-10.285,0-12.771,7.756-14.558,16.154h-28.961
			c2.726-12.802,8.452-20.984,16.402-25.81c7.785-5.033,17.834-6.923,29.173-6.923c37.554,0,38.944,16.16,34.846,35.458
			L1396.655,837.422z M1344.912,824.199c-1.6,7.56-2.311,16.793,7.348,16.793c17.416,0,19.68-23.504,22.137-35.042
			C1359.57,806.577,1348.927,805.32,1344.912,824.199z"/>
		<path fill="#FFFFFF" d="M1461.602,761.886h0.421c7.875-9.449,16.569-12.799,27.692-12.799c14.053,0,24.65,8.392,21.531,23.077
			l-18.065,84.982h-29.597l15.536-73.02c2.003-9.446,1.878-16.784-7.557-16.784c-9.448,0-12.688,7.338-14.688,16.784l-15.527,73.02
			h-29.585l22.527-105.961h29.589L1461.602,761.886z"/>
		<path fill="#FFFFFF" d="M1614.947,751.186l-23.456,110.364c-1.567,7.344-7.303,36.306-48.008,36.306
			c-22.036,0-39.715-5.67-34.858-31.484h28.962c-0.938,4.409-1.113,8.189,0.239,10.706c1.307,2.731,4.355,4.2,8.974,4.2
			c7.344,0,12.384-6.929,14.658-17.629l4.323-20.352h-0.421c-6.145,8.181-15.429,12.378-25.084,12.378
			c-32.52,0-24.719-29.791-19.635-53.717c4.959-23.286,11.661-52.871,42.506-52.871c10.494,0,18.534,4.612,20.639,14.477h0.415
			l2.63-12.378H1614.947z M1554.86,837.422c10.702,0,14.536-11.121,19.31-33.571c4.949-23.295,6.708-36.508-4.197-36.508
			c-11.127,0-14.661,7.759-21.534,40.076C1546.342,817.282,1540.589,837.422,1554.86,837.422z"/>
		<path fill="#FFFFFF" d="M1713.985,761.886h0.415c7.884-9.449,16.571-12.799,27.692-12.799c14.058,0,24.653,8.392,21.533,23.077
			l-18.062,84.982h-29.594l15.526-73.02c2.007-9.446,1.887-16.784-7.553-16.784c-9.446,0-12.685,7.338-14.694,16.784l-15.515,73.02
			h-29.589l22.528-105.961h29.582L1713.985,761.886z"/>
		<path fill="#FFFFFF" d="M1867.33,751.186l-23.466,110.364c-1.555,7.344-7.293,36.306-48.005,36.306
			c-22.026,0-39.709-5.67-34.849-31.484h28.958c-0.943,4.409-1.11,8.189,0.239,10.706c1.308,2.731,4.358,4.2,8.975,4.2
			c7.344,0,12.374-6.929,14.655-17.629l4.319-20.352h-0.415c-6.144,8.181-15.428,12.378-25.08,12.378
			c-32.52,0-24.725-29.791-19.638-53.717c4.949-23.286,11.655-52.871,42.506-52.871c10.487,0,18.53,4.612,20.632,14.477h0.412
			l2.637-12.378H1867.33z M1807.24,837.422c10.699,0,14.532-11.121,19.303-33.571c4.953-23.295,6.721-36.508-4.191-36.508
			c-11.123,0-14.664,7.759-21.53,40.076C1798.725,817.282,1792.972,837.422,1807.24,837.422z"/>
		<path fill="#FFFFFF" d="M1913.507,751.186h29.389l-2.428,79.731h0.412l35.264-79.731h31.428l0.399,79.731h0.412l32.242-79.731
			h28.358l-50.256,105.961h-31.033l-3.033-70.288h-0.415l-35.464,70.288h-31.439L1913.507,751.186z"/>
		<path fill="#FFFFFF" d="M2063.022,802.797c6.162-28.949,15.62-53.71,54.647-53.71c39.028,0,37.963,24.761,31.801,53.71
			c-7.036,33.156-17.028,56.448-55.224,56.448C2056.063,859.245,2055.974,835.953,2063.022,802.797z M2120.247,801.125
			c4.678-22.041,5.997-33.155-6.592-33.155c-12.593,0-15.999,11.114-20.683,33.155c-6.873,32.309-5.619,39.231,5.296,39.231
			C2109.179,840.356,2113.374,833.434,2120.247,801.125z"/>
		<path fill="#FFFFFF" d="M2204.19,751.186l-2.899,13.635h0.427c8.037-12.169,18.871-15.733,30.824-15.733l-5.618,26.433
			c-25.659-1.672-29.296,13.432-31.52,23.919l-12.271,57.708h-29.582l22.528-105.961H2204.19z"/>
		<path fill="#FFFFFF" d="M1290.978,749.087c-11.124,0-19.809,3.35-27.689,12.799h-0.418l10.944-51.495h-29.589l-31.194,146.756
			h29.583l15.523-73.02c2.006-9.446,5.248-16.784,14.688-16.784c9.442,0,9.562,7.338,7.553,16.784l-15.524,73.02h29.586
			l18.064-84.982C1315.631,757.479,1305.036,749.087,1290.978,749.087z"/>
		<polygon fill="#FFFFFF" points="2253.523,710.391 2222.329,857.146 2251.908,857.146 2283.103,710.391 		"/>
		<path fill="#FFFFFF" d="M2352.381,710.391l-10.812,50.868h-0.415c-4.168-9.028-10.846-12.172-21.552-12.172
			c-29.791,0-35.953,32.938-40.5,54.343c-4.646,21.823-12.918,55.815,17.719,55.815c11.329,0,20.271-3.57,27.913-13.853h0.424
			l-2.498,11.754h28.113l31.194-146.756H2352.381z M2332.645,803.221c-5.663,26.648-9.908,37.771-19.978,37.771
			c-10.709,0-10.237-11.123-4.568-37.771c4.505-21.196,7.419-35.878,20.221-35.878
			C2340.488,767.343,2337.154,782.024,2332.645,803.221z"/>
	</g>
	<path fill="#FFFFFF" d="M203.474,239.716l2.103,2.02c58.821,49.265,122.312,44.486,170.67,12.332
		c30.496-20.284,168.388-111.981,246.33-163.811V38.492H41.683v136.705C77.088,169.069,134.151,175.078,203.474,239.716z"/>
	<path fill="#FFFFFF" d="M422.01,467.153l-68.618-65.808c-9.63-8.786-17.884-15.225-19.66-16.594
		c-56.077-39.381-108.36-27.417-130.901-19.028c-6.828,2.74-13.343,6.453-17.959,9.35L41.683,470.858v173.543h580.893V519.509
		C609.828,527.613,531.131,570.189,422.01,467.153z"/>
	<path fill="#FFFFFF" d="M198.344,255.241c-3.101-2.883-6.533-5.966-9.585-8.481c-68.605-53.08-133.416-27.105-147.077-20.62v59.741
		l33.604-22.646c0,0,51.801-38.424,132.407,0.976L198.344,255.241z"/>
	<path fill="#FFFFFF" d="M278.565,332.388c-3.016-2.668-6.053-5.421-9.121-8.321c-60.854-51.498-119.679-38.411-144.087-29.36
		c-6.906,2.756-13.505,6.521-18.16,9.444l-6.592,4.411h-0.003l-58.919,39.414v61.521l109.59-73.846c0,0,51.196-37.976,130.99,0.283
		L278.565,332.388z"/>
	<path fill="#FFFFFF" d="M622.658,396.804c-22.844,15.398-46.074,31.051-55.317,37.243c-20.657,13.84-68.479,48.141-148.068,10.1
		l9.354,8.982c3.5,3.175,7.758,6.828,12.424,10.406c57.164,42.715,118.246,36.576,164.04,6.232
		c6.344-4.202,12.135-8.06,17.567-11.689V396.804z"/>
	<path fill="#FFFFFF" d="M622.658,273.587c-50.169,33.741-117.878,79.276-130.597,87.796c-20.656,13.84-69.187,48.59-147.077,11.382
		l9.015,8.662c1.025,0.945,2.047,1.873,3.076,2.846l-0.051,0.06l0,0l0.051-0.057c60.461,51.168,127.048,43.335,172.732,12.829
		c25.759-17.2,62.381-41.96,92.85-62.614V273.587z"/>
	<path fill="#FFFFFF" d="M622.658,151.031c-72.345,48.476-191.05,128.009-205.424,137.641
		c-20.848,13.967-69.966,49.24-146.875,12.516l9.349,8.985c5.564,5.038,13.049,11.317,20.978,16.504
		c53.228,34,108.948,27.997,154.298-2.287c32.594-21.765,112.772-75.06,167.675-111.541V151.031z"/>
</g>
</svg>
