<?xml version="1.0" encoding="utf-8"?>
<!-- Generator: Adobe Illustrator 16.0.4, SVG Export Plug-In . SVG Version: 6.00 Build 0)  -->
<!DOCTYPE svg PUBLIC "-//W3C//DTD SVG 1.1//EN" "http://www.w3.org/Graphics/SVG/1.1/DTD/svg11.dtd">
<svg version="1.1" id="Layer_1" xmlns="http://www.w3.org/2000/svg" xmlns:xlink="http://www.w3.org/1999/xlink" x="0px" y="0px"
	 width="416.226px" height="119.29px" viewBox="70.341 325.518 416.226 119.29"
	 enable-background="new 70.341 325.518 416.226 119.29" xml:space="preserve">
<g>
	<g>
		<path fill="#ED1C24" d="M129.531,397.623l-7.45,16.502H107.56l8.353-17.117 M115.913,397.008l22.67-46.441h17.446l7.355,63.559
			h-14.24l-1.32-16.502h-18.293 M147.26,387.249l-1.227-13.673c-0.282-3.488-0.565-8.58-0.847-12.446h-0.284
			c-1.603,3.866-3.395,8.771-5.091,12.446l-6.225,13.673H147.26z"/>
		<path fill="#ED1C24" d="M170.269,414.125l12.069-63.559h15.937l8.392,24.237c2.546,8.108,4.244,14.706,5.753,21.687h0.282
			c0.284-6.507,1.227-13.483,2.923-22.817l4.34-23.105h12.391l-11.732,63.559h-14.05l-8.864-25.368
			c-2.83-8.674-4.527-14.426-6.224-22.158h-0.283c-0.66,6.225-2.167,15.18-4.055,25.273l-4.243,22.253L170.269,414.125
			L170.269,414.125z"/>
		<path fill="#ED1C24" d="M235.898,399.413c3.772,2.264,9.053,4.054,14.994,4.054c5.187,0,9.995-2.45,9.995-7.352
			c0-3.679-2.735-5.942-8.581-9.055c-6.695-3.584-13.107-8.673-13.107-16.878c0-12.825,11.127-20.653,24.988-20.653
			c7.639,0,12.165,1.698,14.9,3.113l-4.244,11.316c-2.075-1.131-6.507-2.829-11.787-2.736c-6.318,0-9.619,3.113-9.619,6.603
			c0,3.771,3.866,6.033,9.242,9.053c7.731,4.054,12.541,9.242,12.541,16.876c0,14.146-11.693,21.41-25.744,21.41
			c-8.77-0.098-15.181-2.36-18.104-4.527L235.898,399.413z"/>
		<path fill="#ED1C24" d="M283.99,399.413c3.771,2.264,9.053,4.054,14.992,4.054c5.188,0,9.999-2.45,9.999-7.352
			c0-3.679-2.736-5.942-8.583-9.055c-6.694-3.584-13.107-8.673-13.107-16.878c0-12.825,11.127-20.653,24.99-20.653
			c7.638,0,12.163,1.698,14.897,3.113l-4.244,11.316c-2.073-1.131-6.506-2.829-11.787-2.736c-6.316,0-9.618,3.113-9.618,6.603
			c0,3.771,3.865,6.033,9.241,9.053c7.731,4.054,12.543,9.242,12.543,16.876c0,14.146-11.693,21.41-25.744,21.41
			c-8.771-0.098-15.183-2.36-18.106-4.527L283.99,399.413z"/>
	</g>
</g>
<g>
	<polygon fill="#FFFFFF" points="147.25,387.242 133.646,387.141 133.478,387.51 147.318,387.51 	"/>
	<polygon fill="#0072BC" points="120.654,387.393 134.085,387.393 144.871,361.262 147.25,387.242 160.564,387.393 156.042,350.505 
		138.458,350.298 	"/>
	<polygon fill="#0072BC" points="175.265,387.393 182.106,350.505 199.275,350.505 210.444,387.393 197.244,387.594 
		191.271,367.626 188.076,387.393 	"/>
	<polygon fill="#0072BC" points="213.193,387.393 219.754,350.505 232.373,350.505 225.532,387.393 	"/>
</g>
<g>
	<polygon fill="#FFFFFF" points="149.63,358.318 146.193,358.181 144.129,360.933 143.2,357.62 139.944,356.509 142.808,354.601 
		142.859,351.159 145.557,353.294 148.845,352.279 147.649,355.507 	"/>
	<polygon fill="#FFFFFF" points="138.941,373.362 135.504,373.225 133.439,375.977 132.51,372.664 129.254,371.553 132.119,369.645 
		132.17,366.203 134.867,368.338 138.155,367.323 136.96,370.551 	"/>
	<polygon fill="#FFFFFF" points="156.756,373.362 153.319,373.225 151.255,375.977 150.326,372.664 147.07,371.553 149.934,369.645 
		149.985,366.203 152.683,368.338 155.971,367.323 154.775,370.551 	"/>
	<polygon fill="#FFFFFF" points="189.22,375.342 185.783,375.204 183.719,377.956 182.79,374.644 179.534,373.532 182.398,371.624 
		182.449,368.183 185.146,370.317 188.435,369.303 187.239,372.53 	"/>
	<polygon fill="#FFFFFF" points="204.265,374.946 200.828,374.808 198.763,377.56 197.834,374.248 194.578,373.136 197.442,371.228 
		197.494,367.787 200.191,369.921 203.479,368.907 202.284,372.134 	"/>
	<polygon fill="#FFFFFF" points="226.039,375.342 222.602,375.204 220.538,377.956 219.608,374.644 216.353,373.532 
		219.217,371.624 219.268,368.183 221.965,370.317 225.253,369.303 224.058,372.53 	"/>
	<polygon fill="#FFFFFF" points="195.951,359.506 192.514,359.368 190.449,362.12 189.52,358.808 186.264,357.696 189.128,355.788 
		189.18,352.347 191.877,354.481 195.165,353.467 193.97,356.694 	"/>
	<polygon fill="#FFFFFF" points="229.207,359.506 225.77,359.368 223.705,362.12 222.776,358.808 219.52,357.696 222.384,355.788 
		222.436,352.347 225.133,354.481 228.421,353.467 227.226,356.694 	"/>
</g>
<g>
	<g>
		<g>
			<polyline fill="none" stroke="#FFFFFF" stroke-width="1.079" points="72.329,386.781 72.329,386.781 72.966,386.781 
				74.239,386.781 74.876,386.608 75.512,386.436 75.937,386.436 76.573,386.258 77.21,386.085 78.059,386.085 78.696,386.085 
				79.757,386.258 80.393,386.258 81.031,386.436 81.667,386.436 82.305,386.608 82.729,386.608 83.366,386.608 84.215,386.608 
				85.487,386.436 85.912,386.436 86.549,386.608 87.186,386.608 87.822,386.608 88.459,386.436 89.096,386.436 89.521,386.436 
				90.794,386.436 91.643,386.436 92.28,386.608 92.704,386.608 93.341,386.436 93.979,386.436 94.614,386.258 95.251,386.085 
				96.313,386.085 97.162,386.258 97.799,386.258 98.435,386.258 99.072,386.258 99.497,386.436 100.133,386.436 100.77,386.436 
				102.043,386.436 102.468,386.608 103.317,386.608 103.742,386.608 104.378,386.608 105.228,386.608 105.863,386.608 
				106.288,386.608 107.562,386.436 108.198,386.436 108.836,386.436 109.26,386.436 109.896,386.436 110.533,386.436 
				111.382,386.436 111.807,386.436 113.081,386.258 113.717,386.258 114.354,386.258 114.991,386.436 115.627,386.436 
				116.052,386.436 116.689,386.436 117.325,386.436 118.811,386.085 119.447,385.734 119.872,385.214 120.51,384.514 
				121.146,383.989 121.782,383.466 122.42,383.466 122.844,383.989 124.33,385.037 124.966,386.608 125.604,388.533 
				126.24,390.452 126.664,392.2 127.3,393.42 127.938,393.944 128.574,393.944 129.635,393.247 130.273,392.023 130.909,390.452 
				131.545,388.704 132.395,386.781 133.032,384.687 133.456,382.942 134.093,381.37 135.367,380.143 136.003,379.446 
				136.427,379.273 137.064,379.446 137.914,379.97 138.549,380.67 139.187,381.718 139.612,382.942 140.884,384.162 
				141.522,385.558 142.158,386.781 142.795,388.008 143.221,388.881 144.068,389.404 144.493,389.581 145.342,389.581 
				146.402,389.228 147.041,388.881 147.677,388.533 148.312,388.181 148.951,387.833 149.587,387.656 150.011,387.483 
				150.647,387.483 152.135,387.309 152.771,387.309 153.195,387.133 153.831,386.781 154.469,386.608 155.105,386.258 
				155.741,386.085 156.379,386.085 157.651,386.085 158.289,386.258 158.926,386.436 159.563,386.436 159.987,386.436 
				160.625,386.436 161.26,386.436 161.898,386.436 163.384,386.258 163.808,386.258 164.233,386.085 165.081,386.085 
				165.718,385.912 166.355,385.734 166.779,385.734 167.416,385.558 168.689,385.734 169.327,385.734 169.962,385.734 
				170.388,385.912 171.237,385.912 171.873,386.258 172.509,386.436 173.147,386.436 174.208,386.608 174.844,386.781 
				175.481,386.96 176.118,387.133 176.967,387.309 177.392,387.309 178.028,387.309 178.666,387.309 179.302,387.483 
				180.362,387.309 181,387.309 181.637,386.96 182.272,386.781 182.91,386.436 183.335,386.085 183.971,385.912 184.82,385.912 
				186.095,385.734 186.73,385.912 187.156,385.912 187.792,386.085 188.429,386.258 189.065,386.258 189.915,386.258 
				190.339,386.258 191.612,386.085 192.249,386.085 192.885,386.085 193.522,386.085 193.946,386.085 194.583,386.258 
				195.22,386.258 196.069,386.436 196.919,386.436 197.771,386.436 198.404,386.258 199.041,386.436 199.678,386.436 
				200.314,386.781 200.739,386.781 201.375,387.133 202.652,387.133 203.287,387.309 203.923,387.133 204.56,386.96 
				205.197,386.781 205.833,386.436 206.47,386.258 207.11,385.912 208.167,385.734 208.804,385.558 209.653,385.558 
				210.291,385.558 210.714,385.734 211.354,385.912 211.988,386.258 212.626,386.436 213.898,386.608 214.323,386.781 
				214.96,386.96 215.812,386.96 216.233,386.96 217.082,386.781 217.506,386.781 218.143,386.608 219.416,386.608 220.058,386.436 
				220.691,386.436 221.115,386.436 221.751,386.436 222.389,386.436 223.236,386.436 223.875,386.436 224.935,386.608 
				225.572,386.781 226.209,386.781 226.845,386.608 227.27,386.436 227.906,386.258 228.757,386.085 229.393,385.912 
				230.666,385.912 231.09,385.912 231.728,385.912 232.364,386.085 233,386.436 233.641,386.608 234.062,386.96 234.699,387.309 
				235.972,387.656 236.822,387.833 237.46,387.833 237.885,387.833 238.519,387.483 239.156,387.133 239.792,386.608 
				240.429,386.258 241.492,385.734 242.343,385.558 242.976,385.214 243.613,385.214 244.251,385.383 244.673,385.734 
				245.312,385.912 245.947,386.085 247.222,386.258 247.646,386.258 248.496,386.258 248.92,386.085 249.767,385.912 
				250.406,385.734 251.044,385.558 251.466,385.558 252.741,385.734 253.376,386.085 254.014,386.608 254.437,387.133 
				255.075,387.483 255.924,387.656 256.56,387.656 257.197,387.483 258.258,387.133 258.895,386.781 259.531,386.085 
				260.168,385.383 260.805,384.687 261.441,384.337 262.079,384.337 262.715,385.214 263.992,386.96 264.625,389.228 
				265.05,391.325 265.687,392.2 266.324,391.849 266.96,390.277 267.809,388.356 268.023,386.258 269.507,384.514 270.144,383.293 
				270.782,382.766 271.205,382.418 271.843,382.591 272.478,383.114 273.119,383.639 273.753,384.162 275.027,385.037 
				275.662,385.734 276.298,386.436 276.937,386.781 277.576,387.133 277.998,387.309 278.633,387.483 279.271,387.833 
				279.908,388.181 281.392,388.533 281.606,388.704 282.455,388.881 283.091,388.881 283.728,388.533 284.365,388.181 
				284.79,387.656 285.426,386.96 286.7,386.436 287.336,385.912 287.972,385.558 288.61,385.383 289.247,385.037 289.884,385.037 
				290.523,385.037 291.157,385.383 292.218,385.558 292.855,385.734 293.492,385.912 294.34,385.912 294.98,386.085 
				295.406,386.258 296.039,386.258 296.675,386.436 297.949,386.436 298.375,386.608 299.009,386.781 299.65,386.96 
				300.496,387.309 300.919,387.309 301.769,386.96 302.193,386.436 303.468,385.912 304.107,385.383 304.742,385.037 
				305.165,384.86 305.802,385.037 306.439,385.383 307.075,385.912 307.924,386.608 308.986,387.483 309.622,388.356 
				310.259,389.057 310.896,389.581 311.533,389.928 311.958,389.754 312.593,389.057 313.23,388.181 314.504,387.133 
				315.142,385.912 315.776,385.037 316.416,383.989 317.055,383.114 317.688,382.591 318.325,382.766 318.75,383.813 
				320.023,385.383 320.659,386.781 321.512,387.656 321.934,387.309 322.57,386.608 323.207,385.558 323.843,384.86 
				324.479,384.514 325.541,384.687 326.181,385.383 327.026,386.781 327.663,388.881 328.3,391.325 328.725,393.42 
				329.361,394.646 330,394.819 331.273,394.295 331.909,393.42 332.334,392.023 333.184,389.228 333.82,383.639 334.454,374.904 
				335.096,363.723 335.517,352.369 336.791,344.857 337.428,343.986 338.062,350.798 338.7,363.55 339.125,379.095 
				339.763,394.646 340.398,408.271 341.247,419.453 342.309,428.36 342.946,435.35 343.586,440.59 344.218,443.388 344.855,442.34 
				345.492,436.047 345.917,424.693 346.766,408.975 348.042,390.104 348.675,370.361 349.101,352.369 349.737,338.395 
				350.375,330.881 351.012,329.834 351.648,334.725 352.284,343.986 353.346,355.512 354.195,366.867 354.832,376.476 
				355.468,383.466 355.892,387.656 356.53,390.104 357.17,391.152 357.805,391.849 358.865,392.896 359.5,394.472 360.351,396.566 
				360.986,398.839 361.626,400.761 362.259,401.631 362.685,401.285 363.32,399.012 364.596,395.52 365.229,391.152 
				365.872,387.309 366.505,384.687 367.142,383.813 367.779,384.687 368.416,386.608 369.053,389.228 370.117,391.676 
				370.75,393.42 371.387,393.771 372.023,392.373 372.449,389.928 373.086,386.781 373.934,383.813 374.574,381.541 
				375.843,379.97 376.27,378.922 376.905,378.749 377.542,379.095 378.18,379.97 378.816,381.018 379.453,382.067 380.09,382.942 
				381.362,383.639 382,384.514 382.637,385.734 383.061,387.833 383.7,390.452 384.336,393.247 384.971,394.995 385.82,394.995 
				386.03,392.896 387.517,389.228 388.155,385.383 388.791,382.067 389.428,380.67 389.851,381.018 390.49,382.418 
				391.126,384.337 391.762,386.085 393.037,387.309 393.674,388.356 394.311,389.228 394.946,390.277 395.584,391.5 
				396.221,392.896 396.648,393.247 397.28,392.373 398.767,389.754 399.404,385.558 399.828,380.143 400.465,374.208 
				401.107,368.964 401.737,365.645 402.375,365.121 402.8,366.867 404.074,370.539 404.924,375.256 405.347,380.494 
				405.983,386.085 406.621,392.2 407.258,398.666 407.895,405.652 408.53,412.291 409.592,417.882 410.229,421.549 
				410.867,422.072 411.501,419.453 412.351,414.035 412.986,406.355 413.412,397.791 414.049,389.057 415.321,380.494 
				415.959,372.283 416.384,364.25 417.021,357.087 417.658,351.321 418.508,348.177 418.936,348.7 419.78,353.417 420.842,361.802 
				421.479,372.283 422.117,382.942 422.751,392.373 423.178,399.535 423.812,404.25 424.449,406.526 425.086,407.053 
				426.571,405.652 426.994,402.855 427.637,398.839 428.27,393.771 428.905,388.533 429.542,383.639 429.968,380.143 
				430.604,378.221 432.092,378.398 432.726,379.97 433.362,382.418 433.788,384.86 434.424,386.608 435.062,387.483 
				435.699,387.309 436.336,385.912 437.608,383.989 438.033,381.718 438.883,380.143 439.52,379.797 440.155,381.37 
				440.579,384.687 441.218,389.057 441.854,393.599 443.129,397.087 443.553,398.666 444.188,398.139 445.038,395.52 
				445.674,391.676 446.312,387.309 446.733,382.942 447.373,379.095 448.646,375.952 449.28,373.684 449.917,372.283 
				450.343,371.937 451.192,372.11 451.617,373.508 452.467,376.13 453.101,380.494 454.167,386.781 454.803,394.819 
				455.438,403.553 456.075,411.939 456.711,417.882 457.134,420.328 457.771,417.882 458.625,411.416 459.896,401.98 
				460.317,391.152 460.954,380.67 461.592,371.937 462.229,365.645 462.865,362.502 463.504,361.978 464.138,363.723 
				465.412,367.045 466.049,371.409 466.686,376.13 467.108,380.494 467.748,383.989 468.384,386.781 469.021,389.057 
				469.658,390.979 470.934,392.547 471.567,394.122 472.204,395.17 472.842,395.343 473.479,394.646 473.904,393.247 
				474.538,391.325 475.178,389.404 476.45,387.833 477.088,386.781 477.512,386.436 478.358,386.608 478.998,386.436 
				479.634,385.912 480.271,384.86 480.696,383.466 481.967,382.241 482.604,381.718 483.453,382.067 484.092,383.114 
				484.516,384.514 485.155,385.558 485.791,386.085 486.425,385.912 			"/>
		</g>
	</g>
	<g>
		<g>
			<polyline fill="none" stroke="#0072BC" stroke-width="2" points="70.703,385.42 70.703,385.42 71.341,385.42 72.613,385.42 
				73.251,385.245 73.887,385.072 74.312,385.072 74.948,384.896 75.585,384.72 76.434,384.72 77.071,384.72 78.132,384.896 
				78.768,384.896 79.405,385.072 80.042,385.072 80.68,385.245 81.104,385.245 81.741,385.245 82.59,385.245 83.862,385.072 
				84.287,385.072 84.924,385.245 85.561,385.245 86.197,385.245 86.834,385.072 87.471,385.072 87.896,385.072 89.169,385.072 
				90.019,385.072 90.655,385.245 91.08,385.245 91.715,385.072 92.353,385.072 92.989,384.896 93.625,384.72 94.688,384.72 
				95.538,384.896 96.173,384.896 96.809,384.896 97.447,384.896 97.872,385.072 98.508,385.072 99.145,385.072 100.418,385.072 
				100.843,385.245 101.692,385.245 102.116,385.245 102.753,385.245 103.603,385.245 104.238,385.245 104.663,385.245 
				105.937,385.072 106.573,385.072 107.211,385.072 107.635,385.072 108.272,385.072 108.908,385.072 109.757,385.072 
				110.182,385.072 111.456,384.896 112.092,384.896 112.728,384.896 113.366,385.072 114.002,385.072 114.426,385.072 
				115.064,385.072 115.701,385.072 117.186,384.72 117.822,384.369 118.247,383.852 118.884,383.148 119.52,382.624 
				120.157,382.101 120.794,382.101 121.219,382.624 122.705,383.672 123.34,385.245 123.978,387.168 124.615,389.091 
				125.039,390.835 125.676,392.059 126.313,392.583 126.949,392.583 128.01,391.882 128.647,390.662 129.284,389.091 
				129.92,387.341 130.77,385.42 131.407,383.324 131.83,381.577 132.468,380.005 133.742,378.781 134.378,378.085 134.803,377.91 
				135.439,378.085 136.288,378.606 136.924,379.309 137.562,380.356 137.987,381.577 139.259,382.801 139.897,384.196 
				140.533,385.42 141.17,386.644 141.595,387.519 142.443,388.043 142.868,388.216 143.717,388.216 144.778,387.866 
				145.416,387.519 146.051,387.168 146.688,386.816 147.326,386.471 147.961,386.293 148.387,386.12 149.022,386.12 
				150.509,385.947 151.146,385.947 151.57,385.771 152.207,385.42 152.844,385.245 153.48,384.896 154.117,384.72 154.754,384.72 
				156.026,384.72 156.665,384.896 157.301,385.072 157.938,385.072 158.361,385.072 158.999,385.072 159.635,385.072 
				160.272,385.072 161.758,384.896 162.183,384.896 162.607,384.72 163.455,384.72 164.093,384.549 164.729,384.369 
				165.154,384.369 165.791,384.196 167.064,384.369 167.701,384.369 168.338,384.369 168.762,384.549 169.611,384.549 
				170.248,384.896 170.884,385.072 171.521,385.072 172.583,385.245 173.219,385.42 173.857,385.597 174.493,385.771 
				175.342,385.947 175.767,385.947 176.403,385.947 177.041,385.947 177.677,386.12 178.737,385.947 179.375,385.947 
				180.012,385.597 180.647,385.42 181.285,385.072 181.71,384.72 182.346,384.549 183.195,384.549 184.469,384.369 
				185.105,384.549 185.53,384.549 186.166,384.72 186.804,384.896 187.44,384.896 188.29,384.896 188.714,384.896 189.986,384.72 
				190.624,384.72 191.261,384.72 191.898,384.72 192.322,384.72 192.959,384.896 193.595,384.896 194.444,385.072 195.293,385.072 
				196.146,385.072 196.779,384.896 197.415,385.072 198.053,385.072 198.688,385.42 199.114,385.42 199.75,385.771 
				201.026,385.771 201.662,385.947 202.297,385.771 202.934,385.597 203.572,385.42 204.208,385.072 204.844,384.896 
				205.484,384.549 206.542,384.369 207.179,384.196 208.028,384.196 208.666,384.196 209.089,384.369 209.73,384.549 
				210.363,384.896 211,385.072 212.273,385.245 212.697,385.42 213.335,385.597 214.187,385.597 214.607,385.597 215.457,385.42 
				215.882,385.42 216.517,385.245 217.792,385.245 218.432,385.072 219.066,385.072 219.49,385.072 220.126,385.072 
				220.763,385.072 221.611,385.072 222.25,385.072 223.31,385.245 223.947,385.42 224.583,385.42 225.22,385.245 225.645,385.072 
				226.281,384.896 227.134,384.72 227.767,384.549 229.041,384.549 229.465,384.549 230.103,384.549 230.739,384.72 
				231.375,385.072 232.015,385.245 232.437,385.597 233.074,385.947 234.347,386.293 235.197,386.471 235.835,386.471 
				236.26,386.471 236.894,386.12 237.532,385.771 238.167,385.245 238.803,384.896 239.867,384.369 240.718,384.196 
				241.352,383.852 241.988,383.852 242.625,384.021 243.048,384.369 243.687,384.549 244.322,384.72 245.597,384.896 
				246.021,384.896 246.871,384.896 247.294,384.72 248.142,384.549 248.781,384.369 249.419,384.196 249.841,384.196 
				251.115,384.369 251.751,384.72 252.388,385.245 252.812,385.771 253.45,386.12 254.298,386.293 254.935,386.293 255.572,386.12 
				256.634,385.771 257.27,385.42 257.907,384.72 258.544,384.021 259.18,383.324 259.817,382.976 260.455,382.976 261.09,383.852 
				262.367,385.597 263,387.866 263.424,389.964 264.062,390.835 264.699,390.487 265.334,388.916 266.183,386.995 266.398,384.896 
				267.882,383.148 268.519,381.928 269.157,381.404 269.58,381.053 270.218,381.229 270.853,381.753 271.495,382.277 
				272.127,382.801 273.401,383.672 274.038,384.369 274.673,385.072 275.311,385.42 275.951,385.771 276.373,385.947 
				277.009,386.12 277.646,386.471 278.283,386.816 279.768,387.168 279.981,387.341 280.83,387.519 281.466,387.519 
				282.103,387.168 282.74,386.816 283.166,386.293 283.8,385.597 285.076,385.072 285.71,384.549 286.347,384.196 286.984,384.021 
				287.621,383.672 288.259,383.672 288.898,383.672 289.531,384.021 290.593,384.196 291.23,384.369 291.866,384.549 
				292.714,384.549 293.356,384.72 293.781,384.896 294.414,384.896 295.05,385.072 296.324,385.072 296.749,385.245 
				297.384,385.42 298.025,385.597 298.871,385.947 299.294,385.947 300.144,385.597 300.569,385.072 301.842,384.549 
				302.482,384.021 303.117,383.672 303.539,383.499 304.177,383.672 304.814,384.021 305.451,384.549 306.298,385.245 
				307.361,386.12 307.997,386.995 308.634,387.691 309.271,388.216 309.908,388.566 310.332,388.392 310.968,387.691 
				311.604,386.816 312.879,385.771 313.516,384.549 314.151,383.672 314.791,382.624 315.43,381.753 316.062,381.229 
				316.7,381.404 317.125,382.451 318.396,384.021 319.034,385.42 319.887,386.293 320.308,385.947 320.945,385.245 
				321.582,384.196 322.219,383.499 322.854,383.148 323.916,383.324 324.556,384.021 325.4,385.42 326.038,387.519 
				326.675,389.964 327.1,392.059 327.736,393.283 328.374,393.457 329.646,392.932 330.283,392.059 330.709,390.662 
				331.558,387.866 332.193,382.277 332.829,373.543 333.471,362.357 333.892,351.008 335.166,343.496 335.803,342.621 
				336.438,349.435 337.075,362.187 337.5,377.733 338.137,393.283 338.773,406.904 339.622,418.086 340.684,426.999 
				341.321,433.983 341.961,439.222 342.593,442.021 343.232,440.973 343.867,434.685 344.292,423.324 345.142,407.608 
				346.417,388.739 347.053,368.999 347.476,351.008 348.111,337.029 348.75,329.52 349.387,328.472 350.021,333.363 
				350.659,342.621 351.721,354.15 352.57,365.504 353.207,375.114 353.843,382.101 354.267,386.293 354.905,388.739 
				355.545,389.787 356.178,390.487 357.24,391.531 357.876,393.11 358.725,395.205 359.361,397.474 360.001,399.396 
				360.634,400.266 361.06,399.922 361.696,397.646 362.971,394.157 363.607,389.787 364.246,385.947 364.88,383.324 
				365.517,382.451 366.154,383.324 366.791,385.245 367.428,387.866 368.492,390.311 369.125,392.059 369.762,392.406 
				370.398,391.011 370.821,388.566 371.459,385.42 372.309,382.451 372.949,380.18 374.218,378.606 374.642,377.559 
				375.28,377.386 375.917,377.733 376.553,378.606 377.191,379.654 377.828,380.705 378.463,381.577 379.737,382.277 
				380.375,383.148 381.012,384.369 381.436,386.471 382.074,389.091 382.709,391.882 383.346,393.634 384.195,393.634 
				384.408,391.531 385.892,387.866 386.529,384.021 387.166,380.705 387.803,379.309 388.226,379.654 388.865,381.053 
				389.501,382.976 390.137,384.72 391.412,385.947 392.049,386.995 392.686,387.866 393.321,388.916 393.959,390.138 
				394.596,391.531 395.023,391.882 395.655,391.011 397.142,388.392 397.779,384.196 398.203,378.781 398.84,372.843 
				399.479,367.603 400.112,364.281 400.75,363.758 401.174,365.504 402.449,369.176 403.296,373.891 403.722,379.131 
				404.358,384.72 404.994,390.835 405.633,397.301 406.27,404.285 406.905,410.924 407.967,416.515 408.604,420.182 
				409.24,420.705 409.876,418.086 410.726,412.674 411.362,404.987 411.787,396.426 412.424,387.691 413.696,379.131 
				414.334,370.922 414.758,362.888 415.396,355.726 416.03,349.96 416.88,346.813 417.309,347.337 418.154,352.055 419.217,360.44 
				419.851,370.922 420.49,381.577 421.125,391.011 421.555,398.17 422.188,402.892 422.825,405.16 423.461,405.684 
				424.945,404.285 425.373,401.493 426.012,397.474 426.646,392.406 427.28,387.168 427.92,382.277 428.342,378.781 
				428.979,376.858 430.468,377.033 431.104,378.606 431.74,381.053 432.162,383.499 432.799,385.245 433.436,386.12 
				434.074,385.947 434.709,384.549 435.982,382.624 436.408,380.356 437.255,378.781 437.895,378.434 438.529,380.005 
				438.954,383.324 439.592,387.691 440.229,392.235 441.504,395.724 441.928,397.301 442.562,396.776 443.412,394.157 
				444.049,390.311 444.686,385.947 445.111,381.577 445.748,377.733 447.021,374.591 447.658,372.318 448.295,370.922 
				448.717,370.574 449.567,370.747 449.992,372.146 450.842,374.765 451.479,379.131 452.542,385.42 453.175,393.457 
				453.811,402.189 454.449,410.578 455.086,416.515 455.512,418.961 456.146,416.515 457,410.055 458.27,400.618 458.695,389.787 
				459.332,379.309 459.968,370.574 460.604,364.281 461.24,361.137 461.879,360.613 462.516,362.357 463.788,365.68 
				464.425,370.047 465.061,374.765 465.486,379.131 466.123,382.624 466.759,385.42 467.395,387.691 468.033,389.614 
				469.307,391.186 469.942,392.759 470.579,393.807 471.217,393.979 471.854,393.283 472.277,391.882 472.913,389.964 
				473.553,388.043 474.824,386.471 475.463,385.42 475.887,385.072 476.733,385.245 477.371,385.072 478.009,384.549 
				478.646,383.499 479.074,382.101 480.343,380.88 480.979,380.356 481.829,380.705 482.467,381.753 482.892,383.148 
				483.529,384.196 484.166,384.72 484.8,384.549 			"/>
		</g>
	</g>
</g>
</svg>
