<?xml version="1.0" encoding="utf-8"?>
<!-- Generator: Adobe Illustrator 19.1.0, SVG Export Plug-In . SVG Version: 6.00 Build 0)  -->
<svg version="1.1" id="Layer_1" xmlns="http://www.w3.org/2000/svg" xmlns:xlink="http://www.w3.org/1999/xlink" x="0px" y="0px"
	 viewBox="-379 254 200 54" style="enable-background:new -379 254 200 54;" xml:space="preserve">
<style type="text/css">
	.st0{fill:none;}
	.st1{fill:#FFFFFF;}
</style>
<rect id="XMLID_13_" x="-379" y="254" class="st0" width="200" height="54"/>
<g id="XMLID_2_">
	<path id="XMLID_3_" class="st1" d="M-210.7,303.9h7.5v-16c0-3.8,1.7-8.7,7.4-8.7c3.8,0,5.6,1.9,5.6,6.2V304h7.5v-20.8
		c0-9.1-6.1-11.3-11.4-11.3c-4.3,0-7.3,1.7-9,3.8h-0.1v-17h-7.5V303.9z M-213.1,280.8c-1.9-4.7-5.6-8.9-13.2-8.9
		c-10.1,0-16,7-16,16.4c0,9.3,5.9,16.4,15.5,16.4c8.5,0,12.1-5,14.2-9.6l-6.4-3.4c-1.2,2.8-3.1,6.1-7.6,6.1c-5.3,0-7.7-4.6-7.7-9.5
		c0-4.9,2.7-9.5,8.1-9.5c3,0,5.6,1.9,6.6,5L-213.1,280.8z M-268,284.3c0.8-3.3,3.7-6.2,8.1-6.2c5.1,0,7.1,4.5,7.1,6.2H-268z
		 M-244.8,290.1c0-11.2-4.6-18.2-15-18.2c-10.1,0-16,7-16,16.4c0,9.3,5.9,16.4,16,16.4c8.5,0,13-4.1,15.4-7.7l-6.4-3.7
		c-0.7,1.1-3.1,4.5-9,4.5c-4.1,0-8-3-8.1-7.7C-267.9,290.1-244.8,290.1-244.8,290.1z M-290.6,265.8v30.9c0,4.8,2.1,7.5,8.3,7.5
		c2.4,0,4.2-0.4,6-0.7v-6.2c-1.1,0.1-2.3,0.4-3.3,0.4c-2.9,0-3.4-1.4-3.4-3.8v-15.8h6.7v-5.4h-6.7v-14.4L-290.6,265.8z
		 M-303.2,303.9h7.5v-45.2h-7.5V303.9z M-316.2,292.7c0,4-4.5,5.8-8,5.8c-2.7,0-4.9-1.5-4.9-3.9c0-3,2.4-3.8,5.2-4.3l4.1-0.9
		c1.4-0.2,2.6-0.6,3.6-1.1C-316.2,288.3-316.2,292.7-316.2,292.7z M-308.6,282.2c0-8.9-6.7-10.3-13.5-10.3
		c-6.9,0-13.4,2.8-13.4,10.2l7.5,0.3c0-3.4,1.4-4.7,5.8-4.7c3.3,0,5.9,0.9,5.9,4v0.9c-1.9,0.7-5.4,1.3-8.2,1.9l-3.2,0.6
		c-4.4,0.9-9.3,3.6-9.3,9.7c0,6.1,4.7,9.8,10.6,9.8c3.9,0,7.3-1.2,10.2-3.6c0,0.8,0.2,2.1,0.7,2.8h8c-0.4-0.7-1.2-2-1.2-5.3v-16.3
		H-308.6z M-338.1,272.6c-2.1-9.2-8.9-13.8-17.7-13.8c-13.2,0-20.9,10.7-20.9,23.1s6.8,23.1,20.9,23.1c8.8,0,14.7-4.3,18.2-13.1
		l-7.5-3.5c-1.6,5.1-4.9,8.9-10.6,8.9c-8.8,0-12.4-7.8-12.4-15.5c0-7.7,3.6-15.5,12.4-15.5c5,0,9,3.3,9.7,8.2L-338.1,272.6z"/>
</g>
</svg>
