<?xml version="1.0" encoding="utf-8"?>
<!-- Generator: Adobe Illustrator 16.0.4, SVG Export Plug-In . SVG Version: 6.00 Build 0)  -->
<!DOCTYPE svg PUBLIC "-//W3C//DTD SVG 1.1//EN" "http://www.w3.org/Graphics/SVG/1.1/DTD/svg11.dtd">
<svg version="1.1" id="Layer_1" xmlns="http://www.w3.org/2000/svg" xmlns:xlink="http://www.w3.org/1999/xlink" x="0px" y="0px"
	 width="185.75px" height="54px" viewBox="0 0 185.75 54" enable-background="new 0 0 185.75 54" xml:space="preserve">
<rect width="185.75" height="54"/>
<path fill-rule="evenodd" clip-rule="evenodd" fill="#FFFFFF" d="M143.145,3.254h0.239h0.24h0.239h0.24h0.239h0.24h0.239h0.24h0.24
	h0.24h0.24h0.239h0.24l0.24,0.24h0.239h0.239h0.24h0.24h0.239h0.239h0.241h0.24h0.24h0.24h0.238h0.24h0.24h0.24h0.24h0.239h0.24
	h0.239h0.24h0.24h0.239h0.239h0.24h0.24h0.24h0.24h0.24h0.239h0.24h0.239h0.24h0.239h0.24h0.479h0.241h0.24h0.24h0.24h0.238h0.24
	h0.48h0.24h0.239h0.24h0.239h0.24v0.239v0.242v0.24v0.24v0.239v0.241v0.24v0.239v0.24v0.241v0.24v0.24v0.24v0.24v0.24v0.239v0.24
	v0.241v0.241v0.239v0.24v0.24v0.241v0.24v0.24v0.239v0.241v0.24v0.239v0.24v0.241v0.24v0.24v0.24v0.24v0.241v0.24v0.24v0.24v0.24
	v0.239v0.24v0.24v0.241v0.24v0.479v0.241v0.239v0.24v0.24v0.242v0.24v0.239v0.24v0.241v0.24v0.24v0.24v0.24v0.24v0.239v0.24v0.24
	v0.241v0.24l0.24,0.24l0.239,0.239h0.239v0.241l0.24,0.241l0.24,0.24h0.24v0.24h0.24v0.24h0.24l0.239,0.24l0.24,0.239h0.239v0.24
	l0.24,0.241h0.239l0.24,0.24l0.239,0.24l0.24,0.24v0.24h0.24l0.24,0.24h0.24v0.239h0.239v0.24l0.24,0.24l0.239,0.242l0.24,0.239
	h0.239l0.241,0.24l0.239,0.241l0.24,0.24l0.239,0.24l0.24,0.24h0.24v0.24h0.239l0.239,0.24l0.24,0.24v0.239h0.24l0.24,0.24
	l0.24,0.241h0.24v0.24h0.239v0.24l0.24,0.239h0.239l0.24,0.24l0.239,0.241l0.24,0.24l0.239,0.239h0.24v0.24h0.24v0.24h0.24v0.24
	h0.24l0.239,0.239l0.24,0.241l0.239,0.239h0.24v0.24h0.239v0.239h0.24v0.24h0.24v0.24h0.239v0.24h0.239l0.241,0.24l0.24,0.239
	l0.24,0.24h0.237v0.241h0.241v0.24h0.24v0.239h0.24l0.24,0.24l0.24,0.24v0.24h0.239l0.24,0.239h0.239v0.24l0.24,0.24l0.479,0.24
	v0.239l0.72,0.48l0.24,0.24l0.24,0.239h0.24v0.24h0.239v0.24h0.239v0.241h0.24v0.24h0.24v0.239h0.239l0.24,0.24l0.239,0.24h0.239
	v0.24h0.241v0.239h0.24v0.24h0.24v0.24h0.237l0.241,0.24l0.24,0.239l0.24,0.24h0.24v0.24v-0.24v0.24h0.24l0.239,0.24v0.239v0.24
	v0.24v0.241h0.24v0.239h0.239v0.241h0.24v0.239h0.239v0.24h-0.239h0.239v0.24v0.239h0.24v0.24v0.24h0.239v0.24h0.24h0.24v0.239h0.24
	v0.24h0.24v0.24h-0.24v0.24h-0.24v0.239h-0.24v0.24h-0.24v0.24h-0.239v0.241v0.239h-0.24v0.24h-0.239v0.24h0.239h-0.239v0.24h0.239
	h-0.239v0.239v0.24h0.239v0.24v0.24h-0.239h0.239v0.239v-0.239v0.239h-0.239h0.239h-0.239h0.239v0.24h-0.239v0.24h0.239h-0.239v0.24
	h-0.24v0.24v0.239h-0.239h-0.24v0.24h0.24v0.24h-0.24v0.241h0.24v0.239v0.24v0.24v0.24v0.239h0.239h0.24h0.239h0.24v0.24v0.24v-0.24
	v0.24v0.24h0.239v0.239l-0.239,0.239v0.241h-0.24v0.24h-0.239h-0.24h-0.239h-0.24l-0.239,0.239h-0.24h-0.24h-0.24h-0.24h-0.241
	h-0.237l-0.48,0.24h-0.241h-0.239h-0.239h-0.24h-0.239h-0.24h-0.24l-0.239,0.24h-0.239h-0.24h-0.24h-0.24h-0.24h-0.24v0.24h-0.239
	h-0.24h-0.239h-0.24h-0.239h-0.24h-0.239l-0.24,0.241h-0.24h-0.24h-0.24h-0.241h-0.237h-0.24h-0.24l-0.241,0.239h-0.239h-0.239
	h-0.24h-0.24v-0.239v-0.241h-0.239v-0.24h-0.24v-0.24h0.24v0.24v0.24h0.239v0.241v-0.241v-0.24h-0.239v-0.24h-0.24h0.24h-0.24v0.24
	h-0.239h0.239h-0.239v-0.24v-0.24h0.239v-0.239v0.239v-0.239v0.239h-0.239h0.239h-0.239h0.239h-0.239h0.239h-0.239h0.239h-0.239
	v-0.239v-0.24v-0.241v-0.239v-0.239v-0.24h-0.24v-0.24v-0.24h-0.239v-0.239h-0.24h0.24h-0.24v-0.24v0.24v-0.24v0.24v-0.24v-0.24
	h-0.24v-0.24h-0.24v-0.239h-0.24v-0.241h-0.239v-0.24h-0.24h-0.239h0.239h-0.239v-0.24h-0.24v-0.239h-0.239v-0.24h-0.24v-0.24v0.24
	h-0.239h0.239h-0.239v-0.24v0.24v-0.24h-0.24h-0.24v-0.24h-0.24v-0.24l0.24,0.24v-0.24v0.24v-0.24v0.24v-0.24v0.24v-0.24v0.24v-0.24
	h-0.24h-0.24h-0.24h0.24h-0.24h0.24h-0.24h0.24h-0.24h-0.239v0.24h-0.239v-0.24h-0.24v0.24v-0.24v0.24v-0.24v0.24v-0.24h-0.24
	v-0.239h0.24v-0.24v-0.24h-0.24v-0.24v-0.239v0.239v-0.239h-0.239v-0.24h-0.24h-0.239h-0.241h-0.239h-0.24v0.24h-0.239v-0.24h-0.24
	h-0.239h-0.24v-0.24v0.24v-0.24h-0.24h-0.24h-0.24v-0.24h-0.239v-0.239h-0.24v-0.241v0.241h0.24v0.239v-0.239h-0.24v-0.241v-0.24
	v0.24v-0.24h-0.239v-0.24h-0.24h-0.239v-0.239h-0.24h-0.239v-0.24h-0.24h-0.24h-0.24h-0.24h-0.24h-0.239h-0.239h-0.24v-0.24h-0.24
	h-0.239h-0.24h-0.239h-0.24h-0.24h-0.24h-0.24h-0.238v-0.24h-0.24v-0.239h-0.24h-0.24v-0.24v0.24v-0.24v-0.24h0.24v-0.24v-0.239
	h-0.24v-0.24h0.24v-0.24v-0.239h-0.24v-0.241v-0.239v-0.241v-0.24v-0.24v-0.239h-0.241v-0.24h-0.239v0.24v-0.24h-0.239h-0.24h0.24
	h-0.24v-0.24v0.24v-0.24v-0.24v-0.239v-0.24v0.24h0.24v-0.24h-0.24v-0.24v-0.24h-0.239h-0.24h-0.239v-0.239h-0.24v-0.24v-0.24
	h-0.239v-0.24h-0.24h-0.24v-0.239v0.239v-0.239v0.239v-0.239v0.239v-0.239h-0.24v-0.24v-0.241v-0.24h-0.24v-0.24h-0.24v-0.239v-0.24
	h-0.239v-0.239h-0.239v-0.241h-0.24v-0.239v-0.24h-0.24v-0.24h-0.239v-0.24h-0.24h0.24h-0.24h-0.239v-0.239h-0.24v-0.24v-0.24v-0.24
	v0.24v-0.24v-0.239v-0.24h-0.24h0.24h-0.24h0.24h-0.24h0.24v-0.241h-0.24v-0.24h0.24v-0.239v0.239h0.24v-0.239h0.239v-0.24v-0.24
	v-0.24v-0.24v-0.239v-0.24h-0.239v-0.239h-0.24h-0.24h0.24h-0.24h-0.24h-0.24h-0.238V29.66h-0.24v-0.239h-0.24v-0.24v0.24v-0.24
	h-0.24v-0.24v0.24v-0.24V28.7h-0.241v-0.239v-0.24v-0.241v-0.24V27.5h-0.239v-0.24v-0.24h-0.239v-0.241v-0.24V26.3h0.239v-0.24
	h-0.239h0.239h-0.239v-0.24v-0.24v-0.24V25.1h-0.24h0.24h-0.24h-0.24v-0.24h-0.239h0.239h-0.239v-0.241v0.241h-0.239v-0.241h-0.24
	v-0.24h-0.24V24.14h-0.239h0.239h-0.239v-0.242h0.239h-0.239v0.242v-0.242v0.242v-0.242v0.242h-0.24v0.239h0.24h-0.24V24.14v-0.242
	h0.24v-0.24v-0.24v-0.239h-0.24h0.24v0.239h0.239v0.24v0.24h0.24v-0.24h-0.24h0.24h-0.24v-0.24h-0.239h0.239h-0.239v-0.239v-0.24
	h-0.24v-0.24h-0.24h0.24h-0.24v-0.24v0.24v-0.24v-0.24h-0.24v-0.24v-0.241h-0.24h-0.239v-0.24h-0.24v-0.239v0.239v-0.239h-0.239
	h0.239h-0.239v-0.24v0.24v-0.24v-0.24h-0.24h0.24h-0.24v-0.24h-0.239v-0.24h-0.24v-0.241h-0.239v-0.241h-0.24h0.24h-0.24v-0.239
	v-0.24h-0.24v-0.24h0.24v-0.241v-0.24v-0.24h-0.24v-0.239v0.239v-0.239v0.239v-0.239v0.239v-0.239v0.239v-0.239v-0.24v-0.24v0.24
	v-0.24h-0.24h0.24h-0.24v-0.24v-0.24v0.24v-0.24v-0.24v-0.241h0.24h-0.24v-0.24h0.24v-0.239v-0.24v0.24v-0.24v-0.242v-0.24v-0.24
	h-0.24v-0.239v-0.241v-0.239h-0.24v-0.24v-0.24v0.24v-0.24h-0.238v-0.241h-0.24v-0.24h-0.24v-0.24v-0.239h-0.24v-0.24h-0.24v-0.24
	h-0.239v-0.24h-0.24v-0.24v-0.241v-0.24v-0.24h-0.239v-0.24h0.239v-0.24v-0.241v-0.24h0.24v-0.239v0.239v-0.239v0.239v-0.239v0.239
	v-0.239h0.239v0.239v-0.239h-0.239h0.239h-0.239v-0.24h0.239V9.735h0.24h-0.24v0.241h0.24v0.24v-0.24V9.735V9.496h0.24h0.24v-0.24
	h-0.24h-0.24v0.24v0.239h-0.24h0.24V9.496v-0.24h0.24v-0.24V8.775v-0.24h0.24v-0.24h-0.24V8.056v0.239V8.056V7.815V7.574h0.24v-0.24
	V7.095v-0.24v-0.24h0.24v-0.24v-0.24v-0.24V5.654h-0.24v-0.24V5.175v-0.24V4.694V4.455h-0.24v0.239V4.455v0.239V4.455h-0.24v-0.24
	h0.24v-0.24V3.733V3.494v0.239h0.24h-0.24V3.494v0.239V3.494v0.239V3.494v-0.24h0.24h0.24h0.238h0.24h0.24h0.24H143.145z
	 M141.465,9.496h-0.24H141.465z M143.384,20.299h0.24H143.384z M146.742,24.86h0.239H146.742z M145.543,25.82v0.24V25.82v0.24V25.82
	z M155.139,41.424v0.24V41.424z M158.258,45.024h0.239v0.24v-0.24v0.24h0.239h0.24h0.24v0.24h0.24h0.24v-0.24h0.24v0.24h-0.24h-0.24
	v0.239v-0.239v0.239h-0.24h-0.24h-0.24h-0.239v-0.239v-0.24h-0.239V45.024z M156.338,45.024v0.24h0.24v0.24h-0.24v-0.24h-0.24
	h-0.238h0.238h0.24V45.024z M157.777,45.265v0.24h0.24v0.239h-0.24v0.24h-0.239h-0.24h-0.239v-0.24v-0.239h-0.24h0.24h0.239v-0.24
	v0.24h0.24v-0.24H157.777z M160.656,45.505h-0.239H160.656z M165.693,46.704h-0.239v0.24v-0.24v0.24v-0.24v0.24v-0.24H165.693z
	 M162.096,48.145v0.24V48.145z M164.016,48.145h0.239h0.24v0.24h0.239h0.24v0.241v-0.241v0.241h0.24v0.239v-0.239v0.239h0.239v0.24
	h-0.239h-0.24h-0.24v-0.24h-0.239h0.239h-0.239v-0.239h0.239h-0.239v-0.241v0.241v-0.241h-0.24h-0.239V48.145z M159.938,49.346
	h0.239h0.24v0.24h-0.24h-0.239V49.346h-0.24H159.938h-0.24H159.938z M164.255,50.546v0.239V50.546v0.239h0.24v0.239h0.239v0.241
	h0.24v0.24h0.24v0.239v-0.239h-0.24v0.239h-0.24v-0.239v0.239v-0.239v0.239v-0.239h-0.239v-0.24v-0.241h-0.24h0.24h-0.24v-0.239
	V50.546h-0.239H164.255z"/>
<polyline fill="none" stroke="#FFFFFF" stroke-width="0.25" stroke-linecap="square" stroke-linejoin="round" stroke-miterlimit="10" points="
	8.608,28.632 8.694,26.963 8.969,28.093 9.079,26.612 9.188,28.093 9.312,27.316 9.439,27.87 9.673,27.316 9.855,27.754 
	9.981,27.47 10.163,27.608 10.289,27.47 10.56,28.093 10.686,26.935 10.958,28.093 11.155,27.256 11.3,28.221 11.607,27.129 
	11.915,28.542 12.042,27.129 12.331,29.011 12.42,26.115 12.62,27.958 12.836,23.884 12.933,31.717 13.196,23.884 13.316,30.819 
	13.533,24.08 13.701,28.599 13.895,27.129 14.04,28.599 14.165,26.611 14.304,28.249 14.448,26.611 14.569,28.249 14.689,27.129 
	15.025,28.093 15.214,26.873 15.504,27.801 15.609,26.704 15.729,27.428 15.846,26.66 15.978,28.853 16.201,26.044 16.412,28.49 
	16.583,26.745 16.767,29.681 16.859,27.96 17.123,26.981 17.267,29.47 17.412,27.449 17.594,27.801 17.739,26.236 17.87,27.235 
	18.082,25.065 18.172,26.683 18.305,26.128 18.646,30.747 18.857,27.801 19.107,29.681 19.212,27.895 19.436,28.093 19.581,26.172 
	19.726,27.023 19.922,23.32 20.106,24.002 20.396,31.427 20.633,29.149 20.841,31.17 21.394,19.555 22.078,38.641 22.604,14.384 
	23.01,45.342 23.484,9.873 23.866,42.597 24.208,15.236 24.51,37.109 24.839,18.151 25.062,38.641 25.417,17.937 25.667,35.107 
	25.982,20.916 26.284,34.022 26.429,21.298 26.851,34.086 27.101,23.64 27.35,33.32 27.612,24.193 27.915,30.726 28.217,24.107 
	28.361,29.81 28.651,23.788 28.887,31.384 29.189,24.533 29.387,30.044 29.571,24.575 29.953,31.853 30.215,20.959 30.453,33 
	30.807,22.405 31.096,31.937 31.345,23.554 31.635,29.555 31.833,27.129 32.043,28.533 32.267,25.108 32.557,30.747 32.779,23.746 
	33.042,31.597 33.397,23.746 33.633,30.575 33.937,25.873 34.199,27.81 34.423,27.319 34.631,28.725 34.91,25.704 35.213,30.299 
	35.342,26.065 35.461,28.093 35.646,27.513 35.803,28.093 36.014,26.154 36.229,29.103 36.482,26.349 36.804,28.712 37.004,26.523 
	37.207,28.732 37.621,26.416 37.902,29.103 38.104,25.829 38.356,28.863 38.585,26.393 39.013,28.561 39.16,26.652 39.308,27.803 
	39.469,27.129 39.725,29.275 39.953,25.829 40.193,28.95 40.513,26.306 40.781,29.08 41.063,25.634 41.331,28.69 41.465,27.888 
	41.639,28.561 41.854,26.652 42.201,28.604 42.468,26.545 42.617,27.608 43.004,28.093 43.167,26.458 43.367,28.235 43.647,26.437 
	43.755,29.037 43.997,26.739 44.236,28.093 44.332,27.455 44.451,28.093 44.733,25.634 44.959,29.731 45.16,26.306 45.67,28.646 
	46.914,28.646 "/>
<polyline fill="none" stroke="#FFFFFF" stroke-width="0.25" stroke-linecap="round" stroke-linejoin="round" stroke-miterlimit="10" points="
	46.5,28.641 93.902,28.641 101.277,28.641 146.833,28.641 "/>
<g>
	<defs>
		<rect id="SVGID_1_" width="185.75" height="54"/>
	</defs>
	<clipPath id="SVGID_2_">
		<use xlink:href="#SVGID_1_"  overflow="visible"/>
	</clipPath>
	<path clip-path="url(#SVGID_2_)" fill="#231F20" d="M11.575,12.441c4.38-3.42,9.959-5.1,16.199-5.1c3.24,0,7.8,0.66,10.619,1.44
		c0.721,0.18,1.141,0.3,1.68,0.24c0.061,1.38,0.361,5.16,0.841,8.82c-0.3,0.42-1.2,0.48-1.62,0.12c-0.901-4.08-3.6-8.76-12.299-8.76
		c-9.18,0-16.98,5.82-16.98,18.239c0,12.601,7.98,19.56,17.82,19.56c7.739,0,11.159-5.039,12.539-8.579
		c0.42-0.3,1.32-0.18,1.559,0.24c-0.419,3.119-1.979,7.079-2.879,8.22c-0.72,0.119-1.44,0.359-2.1,0.6
		c-1.32,0.479-5.64,1.38-9.48,1.38c-5.399,0-10.559-1.08-14.939-4.02c-4.8-3.3-8.52-8.76-8.52-16.5
		C4.015,21.681,7.015,15.981,11.575,12.441"/>
	<path clip-path="url(#SVGID_2_)" fill="none" stroke="#231F20" stroke-width="2" stroke-miterlimit="10" d="M11.575,12.441
		c4.38-3.42,9.959-5.1,16.199-5.1c3.24,0,7.8,0.66,10.619,1.44c0.721,0.18,1.141,0.3,1.68,0.24c0.061,1.38,0.361,5.16,0.841,8.82
		c-0.3,0.42-1.2,0.48-1.62,0.12c-0.901-4.08-3.6-8.76-12.299-8.76c-9.18,0-16.98,5.82-16.98,18.239c0,12.601,7.98,19.56,17.82,19.56
		c7.739,0,11.159-5.039,12.539-8.579c0.42-0.3,1.32-0.18,1.559,0.24c-0.419,3.119-1.979,7.079-2.879,8.22
		c-0.72,0.119-1.44,0.359-2.1,0.6c-1.32,0.479-5.64,1.38-9.48,1.38c-5.399,0-10.559-1.08-14.939-4.02c-4.8-3.3-8.52-8.76-8.52-16.5
		C4.015,21.681,7.015,15.981,11.575,12.441z"/>
	<path clip-path="url(#SVGID_2_)" fill="#231F20" d="M50.815,17.421c0-6.36-0.121-7.38-3.66-7.68l-1.5-0.12
		c-0.361-0.24-0.24-1.32,0.12-1.5c2.999,0.12,5.04,0.18,7.56,0.18c2.4,0,4.439-0.06,7.439-0.18c0.36,0.18,0.48,1.26,0.12,1.5
		l-1.5,0.12c-3.54,0.3-3.659,1.32-3.659,7.68V38.78c0,6.359,0.119,7.199,3.659,7.619l1.5,0.18c0.36,0.24,0.24,1.32-0.12,1.5
		c-3-0.12-5.039-0.18-7.439-0.18c-2.52,0-4.561,0.06-7.56,0.18c-0.36-0.18-0.481-1.14-0.12-1.5l1.5-0.18
		c3.539-0.42,3.66-1.26,3.66-7.619V17.421z"/>
	<path clip-path="url(#SVGID_2_)" fill="none" stroke="#231F20" stroke-width="2" stroke-miterlimit="10" d="M50.815,17.421
		c0-6.36-0.121-7.38-3.66-7.68l-1.5-0.12c-0.361-0.24-0.24-1.32,0.12-1.5c2.999,0.12,5.04,0.18,7.56,0.18
		c2.4,0,4.439-0.06,7.439-0.18c0.36,0.18,0.48,1.26,0.12,1.5l-1.5,0.12c-3.54,0.3-3.659,1.32-3.659,7.68V38.78
		c0,6.359,0.119,7.199,3.659,7.619l1.5,0.18c0.36,0.24,0.24,1.32-0.12,1.5c-3-0.12-5.039-0.18-7.439-0.18
		c-2.52,0-4.561,0.06-7.56,0.18c-0.36-0.18-0.481-1.14-0.12-1.5l1.5-0.18c3.539-0.42,3.66-1.26,3.66-7.619V17.421z"/>
	<path clip-path="url(#SVGID_2_)" fill="#231F20" d="M76.854,48.859c-5.04,0-8.22-1.56-9.359-2.22c-0.721-1.32-1.5-5.58-1.62-8.399
		c0.299-0.421,1.2-0.54,1.44-0.181c0.899,3.061,3.359,8.939,10.318,8.939c5.041,0,7.5-3.3,7.5-6.899c0-2.64-0.539-5.58-4.92-8.399
		l-5.699-3.72c-3-1.98-6.48-5.4-6.48-10.32c0-5.699,4.44-10.32,12.24-10.32c1.859,0,4.019,0.361,5.58,0.781
		c0.779,0.239,1.619,0.36,2.1,0.36c0.54,1.44,1.08,4.799,1.08,7.319c-0.241,0.36-1.201,0.54-1.5,0.18
		c-0.781-2.88-2.401-6.779-8.16-6.779c-5.879,0-7.139,3.899-7.139,6.659c0,3.48,2.879,6,5.099,7.38l4.799,3
		c3.781,2.34,7.5,5.819,7.5,11.52C89.633,44.359,84.654,48.859,76.854,48.859"/>
	<path clip-path="url(#SVGID_2_)" fill="none" stroke="#231F20" stroke-width="2" stroke-miterlimit="10" d="M76.854,48.859
		c-5.04,0-8.22-1.56-9.359-2.22c-0.721-1.32-1.5-5.58-1.62-8.399c0.299-0.421,1.2-0.54,1.44-0.181
		c0.899,3.061,3.359,8.939,10.318,8.939c5.041,0,7.5-3.3,7.5-6.899c0-2.64-0.539-5.58-4.92-8.399l-5.699-3.72
		c-3-1.98-6.48-5.4-6.48-10.32c0-5.699,4.44-10.32,12.24-10.32c1.859,0,4.019,0.361,5.58,0.781c0.779,0.239,1.619,0.36,2.1,0.36
		c0.54,1.44,1.08,4.799,1.08,7.319c-0.241,0.36-1.201,0.54-1.5,0.18c-0.781-2.88-2.401-6.779-8.16-6.779
		c-5.879,0-7.139,3.899-7.139,6.659c0,3.48,2.879,6,5.099,7.38l4.799,3c3.781,2.34,7.5,5.819,7.5,11.52
		C89.633,44.359,84.654,48.859,76.854,48.859z"/>
	<path clip-path="url(#SVGID_2_)" fill="#231F20" d="M132.713,37.7c0,1.8,0,8.939,0.181,10.499c-0.12,0.36-0.48,0.66-1.141,0.66
		c-0.72-1.02-2.46-3.12-7.68-9.06l-13.919-15.84c-1.62-1.86-5.7-6.78-6.96-8.099h-0.12c-0.239,0.719-0.298,2.099-0.298,3.9V32.84
		c0,2.82,0.059,10.62,1.078,12.42c0.359,0.66,1.561,1.02,3.06,1.14l1.862,0.18c0.357,0.48,0.298,1.2-0.122,1.5
		c-2.7-0.12-4.8-0.18-7.02-0.18c-2.521,0-4.14,0.06-6.24,0.18c-0.42-0.3-0.479-1.14-0.118-1.5l1.618-0.18
		c1.382-0.18,2.341-0.54,2.64-1.2c0.84-2.159,0.78-9.479,0.78-12.359V15.501c0-1.68-0.06-2.94-1.319-4.321
		c-0.84-0.839-2.28-1.259-3.719-1.439l-1.021-0.12c-0.359-0.36-0.359-1.26,0.12-1.5c2.52,0.18,5.7,0.18,6.779,0.18
		c0.96,0,1.979-0.06,2.761-0.18c1.199,3.059,8.279,10.979,10.259,13.199l5.82,6.54c4.14,4.62,7.079,7.979,9.899,10.859h0.12
		c0.239-0.3,0.239-1.26,0.239-2.52V23.36c0-2.82-0.06-10.619-1.199-12.419c-0.36-0.54-1.318-0.9-3.72-1.2l-1.021-0.12
		c-0.42-0.36-0.36-1.32,0.12-1.5c2.761,0.12,4.801,0.18,7.08,0.18c2.579,0,4.14-0.06,6.18-0.18c0.479,0.3,0.479,1.14,0.12,1.5
		l-0.841,0.12c-1.92,0.3-3.119,0.78-3.359,1.26c-1.02,2.159-0.9,9.599-0.9,12.359V37.7z"/>
	<path clip-path="url(#SVGID_2_)" fill="none" stroke="#231F20" stroke-width="2" stroke-miterlimit="10" d="M132.713,37.7
		c0,1.8,0,8.939,0.181,10.499c-0.12,0.36-0.48,0.66-1.141,0.66c-0.72-1.02-2.46-3.12-7.68-9.06l-13.919-15.84
		c-1.62-1.86-5.7-6.78-6.96-8.099h-0.12c-0.239,0.719-0.298,2.099-0.298,3.9V32.84c0,2.82,0.059,10.62,1.078,12.42
		c0.359,0.66,1.561,1.02,3.06,1.14l1.862,0.18c0.357,0.48,0.298,1.2-0.122,1.5c-2.7-0.12-4.8-0.18-7.02-0.18
		c-2.521,0-4.14,0.06-6.24,0.18c-0.42-0.3-0.479-1.14-0.118-1.5l1.618-0.18c1.382-0.18,2.341-0.54,2.64-1.2
		c0.84-2.159,0.78-9.479,0.78-12.359V15.501c0-1.68-0.06-2.94-1.319-4.321c-0.84-0.839-2.28-1.259-3.719-1.439l-1.021-0.12
		c-0.359-0.36-0.359-1.26,0.12-1.5c2.52,0.18,5.7,0.18,6.779,0.18c0.96,0,1.979-0.06,2.761-0.18
		c1.199,3.059,8.279,10.979,10.259,13.199l5.82,6.54c4.14,4.62,7.079,7.979,9.899,10.859h0.12c0.239-0.3,0.239-1.26,0.239-2.52
		V23.36c0-2.82-0.06-10.619-1.199-12.419c-0.36-0.54-1.318-0.9-3.72-1.2l-1.021-0.12c-0.42-0.36-0.36-1.32,0.12-1.5
		c2.761,0.12,4.801,0.18,7.08,0.18c2.579,0,4.14-0.06,6.18-0.18c0.479,0.3,0.479,1.14,0.12,1.5l-0.841,0.12
		c-1.92,0.3-3.119,0.78-3.359,1.26c-1.02,2.159-0.9,9.599-0.9,12.359V37.7z"/>
	<path clip-path="url(#SVGID_2_)" fill="#FFFFFF" d="M11.575,12.441c4.38-3.42,9.959-5.1,16.199-5.1c3.24,0,7.8,0.66,10.619,1.44
		c0.721,0.18,1.141,0.3,1.68,0.24c0.061,1.38,0.361,5.16,0.841,8.82c-0.3,0.42-1.2,0.48-1.62,0.12c-0.901-4.08-3.6-8.76-12.299-8.76
		c-9.18,0-16.98,5.82-16.98,18.239c0,12.601,7.98,19.56,17.82,19.56c7.739,0,11.159-5.039,12.539-8.579
		c0.42-0.3,1.32-0.18,1.559,0.24c-0.419,3.119-1.979,7.079-2.879,8.22c-0.72,0.119-1.44,0.359-2.1,0.6
		c-1.32,0.479-5.64,1.38-9.48,1.38c-5.399,0-10.559-1.08-14.939-4.02c-4.8-3.3-8.52-8.76-8.52-16.5
		C4.015,21.681,7.015,15.981,11.575,12.441"/>
	<path clip-path="url(#SVGID_2_)" fill="#FFFFFF" d="M50.815,17.421c0-6.36-0.121-7.38-3.66-7.68l-1.5-0.12
		c-0.361-0.24-0.24-1.32,0.12-1.5c2.999,0.12,5.04,0.18,7.56,0.18c2.4,0,4.439-0.06,7.439-0.18c0.36,0.18,0.48,1.26,0.12,1.5
		l-1.5,0.12c-3.54,0.3-3.659,1.32-3.659,7.68V38.78c0,6.359,0.119,7.199,3.659,7.619l1.5,0.18c0.36,0.24,0.24,1.32-0.12,1.5
		c-3-0.12-5.039-0.18-7.439-0.18c-2.52,0-4.561,0.06-7.56,0.18c-0.36-0.18-0.481-1.14-0.12-1.5l1.5-0.18
		c3.539-0.42,3.66-1.26,3.66-7.619V17.421z"/>
	<path clip-path="url(#SVGID_2_)" fill="#FFFFFF" d="M76.854,48.859c-5.04,0-8.22-1.56-9.359-2.22c-0.721-1.32-1.5-5.58-1.62-8.399
		c0.299-0.421,1.2-0.54,1.44-0.181c0.899,3.061,3.359,8.939,10.318,8.939c5.041,0,7.5-3.3,7.5-6.899c0-2.64-0.539-5.58-4.92-8.399
		l-5.699-3.72c-3-1.98-6.48-5.4-6.48-10.32c0-5.699,4.44-10.32,12.24-10.32c1.859,0,4.019,0.361,5.58,0.781
		c0.779,0.239,1.619,0.36,2.1,0.36c0.54,1.44,1.08,4.799,1.08,7.319c-0.241,0.36-1.201,0.54-1.5,0.18
		c-0.781-2.88-2.401-6.779-8.16-6.779c-5.879,0-7.139,3.899-7.139,6.659c0,3.48,2.879,6,5.099,7.38l4.799,3
		c3.781,2.34,7.5,5.819,7.5,11.52C89.633,44.359,84.654,48.859,76.854,48.859"/>
	<path clip-path="url(#SVGID_2_)" fill="#FFFFFF" d="M132.713,37.7c0,1.8,0,8.939,0.181,10.499c-0.12,0.36-0.48,0.66-1.141,0.66
		c-0.72-1.02-2.46-3.12-7.68-9.06l-13.919-15.84c-1.62-1.86-5.7-6.78-6.96-8.099h-0.12c-0.239,0.719-0.298,2.099-0.298,3.9V32.84
		c0,2.82,0.059,10.62,1.078,12.42c0.359,0.66,1.561,1.02,3.06,1.14l1.862,0.18c0.357,0.48,0.298,1.2-0.122,1.5
		c-2.7-0.12-4.8-0.18-7.02-0.18c-2.521,0-4.14,0.06-6.24,0.18c-0.42-0.3-0.479-1.14-0.118-1.5l1.618-0.18
		c1.382-0.18,2.341-0.54,2.64-1.2c0.84-2.159,0.78-9.479,0.78-12.359V15.501c0-1.68-0.06-2.94-1.319-4.321
		c-0.84-0.839-2.28-1.259-3.719-1.439l-1.021-0.12c-0.359-0.36-0.359-1.26,0.12-1.5c2.52,0.18,5.7,0.18,6.779,0.18
		c0.96,0,1.979-0.06,2.761-0.18c1.199,3.059,8.279,10.979,10.259,13.199l5.82,6.54c4.14,4.62,7.079,7.979,9.899,10.859h0.12
		c0.239-0.3,0.239-1.26,0.239-2.52V23.36c0-2.82-0.06-10.619-1.199-12.419c-0.36-0.54-1.318-0.9-3.72-1.2l-1.021-0.12
		c-0.42-0.36-0.36-1.32,0.12-1.5c2.761,0.12,4.801,0.18,7.08,0.18c2.579,0,4.14-0.06,6.18-0.18c0.479,0.3,0.479,1.14,0.12,1.5
		l-0.841,0.12c-1.92,0.3-3.119,0.78-3.359,1.26c-1.02,2.159-0.9,9.599-0.9,12.359V37.7z"/>
</g>
</svg>
