<?xml version="1.0" encoding="UTF-8"?>
<svg xmlns="http://www.w3.org/2000/svg" xmlns:xlink="http://www.w3.org/1999/xlink" width="185.75pt" height="54pt" viewBox="0 0 185.75 54" version="1.1">
<g id="surface1">
<path style=" stroke:none;fill-rule:nonzero;fill:rgb(13.699341%,12.199402%,12.5%);fill-opacity:1;" d="M 0 54 L 185.75 54 L 185.75 0 L 0 0 Z M 0 54 "/>
<path style=" stroke:none;fill-rule:evenodd;fill:rgb(100%,100%,100%);fill-opacity:1;" d="M 164.253906 50.546875 L 164.253906 50.785156 L 164.253906 50.546875 L 164.253906 50.785156 L 164.496094 50.785156 L 164.496094 51.023438 L 164.734375 51.023438 L 164.734375 51.265625 L 164.976562 51.265625 L 164.976562 51.507812 L 165.214844 51.507812 L 165.214844 51.746094 L 165.214844 51.507812 L 164.976562 51.507812 L 164.976562 51.746094 L 164.734375 51.746094 L 164.734375 51.507812 L 164.734375 51.746094 L 164.734375 51.507812 L 164.734375 51.746094 L 164.734375 51.507812 L 164.496094 51.507812 L 164.496094 51.023438 L 164.253906 51.023438 L 164.496094 51.023438 L 164.253906 51.023438 L 164.253906 50.546875 L 164.015625 50.546875 Z M 159.9375 49.347656 L 160.417969 49.347656 L 160.417969 49.585938 L 159.9375 49.585938 L 159.9375 49.347656 L 159.695312 49.347656 L 159.9375 49.347656 L 159.695312 49.347656 Z M 164.015625 48.144531 L 164.496094 48.144531 L 164.496094 48.386719 L 164.976562 48.386719 L 164.976562 48.625 L 164.976562 48.386719 L 164.976562 48.625 L 165.214844 48.625 L 165.214844 48.863281 L 165.214844 48.625 L 165.214844 48.863281 L 165.453125 48.863281 L 165.453125 49.105469 L 164.734375 49.105469 L 164.734375 48.863281 L 164.496094 48.863281 L 164.734375 48.863281 L 164.496094 48.863281 L 164.496094 48.625 L 164.734375 48.625 L 164.496094 48.625 L 164.496094 48.386719 L 164.496094 48.625 L 164.496094 48.386719 L 164.015625 48.386719 Z M 162.097656 48.144531 L 162.097656 48.386719 Z M 165.691406 46.703125 L 165.453125 46.703125 L 165.453125 46.945312 L 165.453125 46.703125 L 165.453125 46.945312 L 165.453125 46.703125 L 165.453125 46.945312 L 165.453125 46.703125 Z M 160.65625 45.503906 L 160.417969 45.503906 Z M 157.777344 45.265625 L 157.777344 45.503906 L 158.019531 45.503906 L 158.019531 45.742188 L 157.777344 45.742188 L 157.777344 45.984375 L 157.058594 45.984375 L 157.058594 45.503906 L 156.816406 45.503906 L 157.296875 45.503906 L 157.296875 45.265625 L 157.296875 45.503906 L 157.539062 45.503906 L 157.539062 45.265625 Z M 156.339844 45.023438 L 156.339844 45.265625 L 156.578125 45.265625 L 156.578125 45.503906 L 156.339844 45.503906 L 156.339844 45.265625 L 155.859375 45.265625 L 156.339844 45.265625 Z M 158.257812 45.023438 L 158.496094 45.023438 L 158.496094 45.265625 L 158.496094 45.023438 L 158.496094 45.265625 L 159.21875 45.265625 L 159.21875 45.503906 L 159.695312 45.503906 L 159.695312 45.265625 L 159.9375 45.265625 L 159.9375 45.503906 L 159.457031 45.503906 L 159.457031 45.742188 L 159.457031 45.503906 L 159.457031 45.742188 L 158.496094 45.742188 L 158.496094 45.265625 L 158.257812 45.265625 Z M 155.140625 41.425781 L 155.140625 41.664062 Z M 145.542969 25.820312 L 145.542969 26.058594 L 145.542969 25.820312 L 145.542969 26.058594 Z M 146.742188 24.859375 L 146.984375 24.859375 Z M 143.382812 20.300781 L 143.625 20.300781 Z M 141.464844 9.496094 L 141.226562 9.496094 Z M 143.144531 3.253906 L 146.261719 3.253906 L 146.503906 3.492188 L 158.019531 3.492188 L 158.019531 19.339844 L 158.496094 19.816406 L 158.734375 19.816406 L 158.734375 20.058594 L 158.976562 20.300781 L 159.21875 20.539062 L 159.457031 20.539062 L 159.457031 20.777344 L 159.695312 20.777344 L 159.695312 21.019531 L 159.9375 21.019531 L 160.175781 21.257812 L 160.417969 21.496094 L 160.65625 21.496094 L 160.65625 21.738281 L 160.898438 21.980469 L 161.136719 21.980469 L 161.855469 22.699219 L 161.855469 22.9375 L 162.097656 22.9375 L 162.335938 23.179688 L 162.574219 23.179688 L 162.574219 23.417969 L 162.816406 23.417969 L 162.816406 23.65625 L 163.292969 24.140625 L 163.535156 24.378906 L 163.777344 24.378906 L 164.015625 24.617188 L 164.253906 24.859375 L 164.734375 25.339844 L 164.976562 25.578125 L 165.214844 25.578125 L 165.214844 25.820312 L 165.453125 25.820312 L 165.933594 26.300781 L 165.933594 26.539062 L 166.175781 26.539062 L 166.414062 26.777344 L 166.652344 27.019531 L 166.894531 27.019531 L 166.894531 27.261719 L 167.132812 27.261719 L 167.132812 27.5 L 167.375 27.738281 L 167.613281 27.738281 L 167.855469 27.980469 L 168.09375 28.222656 L 168.570312 28.699219 L 168.8125 28.699219 L 168.8125 28.941406 L 169.054688 28.941406 L 169.054688 29.179688 L 169.292969 29.179688 L 169.292969 29.421875 L 169.53125 29.421875 L 169.773438 29.660156 L 170.011719 29.898438 L 170.25 30.140625 L 170.492188 30.140625 L 170.492188 30.382812 L 170.734375 30.382812 L 170.734375 30.621094 L 170.972656 30.621094 L 170.972656 30.859375 L 171.210938 30.859375 L 171.210938 31.101562 L 171.449219 31.101562 L 171.449219 31.339844 L 171.691406 31.339844 L 172.171875 31.820312 L 172.410156 32.0625 L 172.652344 32.0625 L 172.652344 32.300781 L 172.890625 32.300781 L 172.890625 32.542969 L 173.132812 32.542969 L 173.132812 32.78125 L 173.371094 32.78125 L 173.609375 33.023438 L 173.851562 33.261719 L 173.851562 33.5 L 174.089844 33.5 L 174.332031 33.742188 L 174.570312 33.742188 L 174.570312 33.980469 L 174.8125 34.222656 L 175.289062 34.460938 L 175.289062 34.699219 L 176.011719 35.183594 L 176.488281 35.660156 L 176.730469 35.660156 L 176.730469 35.902344 L 176.96875 35.902344 L 176.96875 36.140625 L 177.207031 36.140625 L 177.207031 36.382812 L 177.449219 36.382812 L 177.449219 36.621094 L 177.691406 36.621094 L 177.691406 36.863281 L 177.929688 36.863281 L 178.167969 37.101562 L 178.40625 37.34375 L 178.648438 37.34375 L 178.648438 37.582031 L 178.890625 37.582031 L 178.890625 37.820312 L 179.128906 37.820312 L 179.128906 38.0625 L 179.367188 38.0625 L 179.367188 38.304688 L 179.609375 38.304688 L 179.847656 38.542969 L 180.089844 38.78125 L 180.328125 39.023438 L 180.566406 39.023438 L 180.566406 39.261719 L 180.566406 39.023438 L 180.566406 39.261719 L 180.808594 39.261719 L 181.046875 39.503906 L 181.046875 40.464844 L 181.289062 40.464844 L 181.289062 40.703125 L 181.527344 40.703125 L 181.527344 40.941406 L 181.769531 40.941406 L 181.769531 41.183594 L 182.007812 41.183594 L 182.007812 41.425781 L 181.769531 41.425781 L 182.007812 41.425781 L 182.007812 41.902344 L 182.246094 41.902344 L 182.246094 42.382812 L 182.484375 42.382812 L 182.484375 42.625 L 182.96875 42.625 L 182.96875 42.863281 L 183.207031 42.863281 L 183.207031 43.105469 L 183.445312 43.105469 L 183.445312 43.34375 L 183.207031 43.34375 L 183.207031 43.582031 L 182.96875 43.582031 L 182.96875 43.824219 L 182.726562 43.824219 L 182.726562 44.0625 L 182.484375 44.0625 L 182.484375 44.304688 L 182.246094 44.304688 L 182.246094 44.785156 L 182.007812 44.785156 L 182.007812 45.023438 L 181.769531 45.023438 L 181.769531 45.265625 L 182.007812 45.265625 L 181.769531 45.265625 L 181.769531 45.503906 L 182.007812 45.503906 L 181.769531 45.503906 L 181.769531 45.984375 L 182.007812 45.984375 L 182.007812 46.464844 L 181.769531 46.464844 L 182.007812 46.464844 L 182.007812 46.703125 L 182.007812 46.464844 L 182.007812 46.703125 L 181.769531 46.703125 L 182.007812 46.703125 L 181.769531 46.703125 L 182.007812 46.703125 L 182.007812 46.945312 L 181.769531 46.945312 L 181.769531 47.183594 L 182.007812 47.183594 L 181.769531 47.183594 L 181.769531 47.425781 L 181.527344 47.425781 L 181.527344 47.902344 L 181.046875 47.902344 L 181.046875 48.144531 L 181.289062 48.144531 L 181.289062 48.386719 L 181.046875 48.386719 L 181.046875 48.625 L 181.289062 48.625 L 181.289062 49.824219 L 182.246094 49.824219 L 182.246094 50.304688 L 182.246094 50.066406 L 182.246094 50.546875 L 182.484375 50.546875 L 182.484375 50.785156 L 182.246094 51.023438 L 182.246094 51.265625 L 182.007812 51.265625 L 182.007812 51.507812 L 181.046875 51.507812 L 180.808594 51.746094 L 179.367188 51.746094 L 178.890625 51.984375 L 177.207031 51.984375 L 176.96875 52.226562 L 175.527344 52.226562 L 175.527344 52.464844 L 173.851562 52.464844 L 173.609375 52.707031 L 171.933594 52.707031 L 171.691406 52.945312 L 170.734375 52.945312 L 170.734375 52.464844 L 170.492188 52.464844 L 170.492188 52.226562 L 170.25 52.226562 L 170.25 51.984375 L 170.492188 51.984375 L 170.492188 52.464844 L 170.734375 52.464844 L 170.734375 52.707031 L 170.734375 52.226562 L 170.492188 52.226562 L 170.492188 51.984375 L 170.25 51.984375 L 170.492188 51.984375 L 170.25 51.984375 L 170.25 52.226562 L 170.011719 52.226562 L 170.25 52.226562 L 170.011719 52.226562 L 170.011719 51.746094 L 170.25 51.746094 L 170.25 51.507812 L 170.25 51.746094 L 170.25 51.507812 L 170.25 51.746094 L 170.011719 51.746094 L 170.25 51.746094 L 170.011719 51.746094 L 170.25 51.746094 L 170.011719 51.746094 L 170.25 51.746094 L 170.011719 51.746094 L 170.25 51.746094 L 170.011719 51.746094 L 170.011719 50.304688 L 169.773438 50.304688 L 169.773438 49.824219 L 169.53125 49.824219 L 169.53125 49.585938 L 169.292969 49.585938 L 169.53125 49.585938 L 169.292969 49.585938 L 169.292969 49.347656 L 169.292969 49.585938 L 169.292969 49.347656 L 169.292969 49.585938 L 169.292969 49.105469 L 169.054688 49.105469 L 169.054688 48.863281 L 168.8125 48.863281 L 168.8125 48.625 L 168.570312 48.625 L 168.570312 48.386719 L 168.332031 48.386719 L 168.332031 48.144531 L 167.855469 48.144531 L 168.09375 48.144531 L 167.855469 48.144531 L 167.855469 47.902344 L 167.613281 47.902344 L 167.613281 47.664062 L 167.375 47.664062 L 167.375 47.425781 L 167.132812 47.425781 L 167.132812 47.183594 L 167.132812 47.425781 L 166.894531 47.425781 L 167.132812 47.425781 L 166.894531 47.425781 L 166.894531 47.183594 L 166.894531 47.425781 L 166.894531 47.183594 L 166.414062 47.183594 L 166.414062 46.945312 L 166.175781 46.945312 L 166.175781 46.703125 L 166.414062 46.945312 L 166.414062 46.703125 L 166.414062 46.945312 L 166.414062 46.703125 L 166.414062 46.945312 L 166.414062 46.703125 L 166.414062 46.945312 L 166.414062 46.703125 L 166.414062 46.945312 L 166.414062 46.703125 L 165.691406 46.703125 L 165.933594 46.703125 L 165.691406 46.703125 L 165.933594 46.703125 L 165.691406 46.703125 L 165.933594 46.703125 L 165.453125 46.703125 L 165.453125 46.945312 L 165.214844 46.945312 L 165.214844 46.703125 L 164.976562 46.703125 L 164.976562 46.945312 L 164.976562 46.703125 L 164.976562 46.945312 L 164.976562 46.703125 L 164.976562 46.945312 L 164.976562 46.703125 L 164.734375 46.703125 L 164.734375 46.464844 L 164.976562 46.464844 L 164.976562 45.984375 L 164.734375 45.984375 L 164.734375 45.503906 L 164.734375 45.742188 L 164.734375 45.503906 L 164.496094 45.503906 L 164.496094 45.265625 L 163.292969 45.265625 L 163.292969 45.503906 L 163.054688 45.503906 L 163.054688 45.265625 L 162.335938 45.265625 L 162.335938 45.023438 L 162.335938 45.265625 L 162.335938 45.023438 L 161.613281 45.023438 L 161.613281 44.785156 L 161.375 44.785156 L 161.375 44.542969 L 161.136719 44.542969 L 161.136719 44.304688 L 161.136719 44.542969 L 161.375 44.542969 L 161.375 44.785156 L 161.375 44.542969 L 161.136719 44.542969 L 161.136719 44.0625 L 161.136719 44.304688 L 161.136719 44.0625 L 160.898438 44.0625 L 160.898438 43.824219 L 160.417969 43.824219 L 160.417969 43.582031 L 159.9375 43.582031 L 159.9375 43.34375 L 158.019531 43.34375 L 158.019531 43.105469 L 155.859375 43.105469 L 155.859375 42.863281 L 155.617188 42.863281 L 155.617188 42.625 L 155.140625 42.625 L 155.140625 42.382812 L 155.140625 42.625 L 155.140625 42.144531 L 155.378906 42.144531 L 155.378906 41.664062 L 155.140625 41.664062 L 155.140625 41.425781 L 155.378906 41.425781 L 155.378906 40.941406 L 155.140625 40.941406 L 155.140625 39.503906 L 154.898438 39.503906 L 154.898438 39.261719 L 154.65625 39.261719 L 154.65625 39.503906 L 154.65625 39.261719 L 154.179688 39.261719 L 154.417969 39.261719 L 154.179688 39.261719 L 154.179688 39.023438 L 154.179688 39.261719 L 154.179688 38.304688 L 154.179688 38.542969 L 154.417969 38.542969 L 154.417969 38.304688 L 154.179688 38.304688 L 154.179688 37.820312 L 153.460938 37.820312 L 153.460938 37.582031 L 153.21875 37.582031 L 153.21875 37.101562 L 152.980469 37.101562 L 152.980469 36.863281 L 152.5 36.863281 L 152.5 36.621094 L 152.5 36.863281 L 152.5 36.621094 L 152.5 36.863281 L 152.5 36.621094 L 152.5 36.863281 L 152.5 36.621094 L 152.261719 36.621094 L 152.261719 35.902344 L 152.019531 35.902344 L 152.019531 35.660156 L 151.777344 35.660156 L 151.777344 35.183594 L 151.539062 35.183594 L 151.539062 34.941406 L 151.300781 34.941406 L 151.300781 34.699219 L 151.0625 34.699219 L 151.0625 34.222656 L 150.820312 34.222656 L 150.820312 33.980469 L 150.582031 33.980469 L 150.582031 33.742188 L 150.339844 33.742188 L 150.582031 33.742188 L 150.101562 33.742188 L 150.101562 33.5 L 149.859375 33.5 L 149.859375 32.78125 L 149.859375 33.023438 L 149.859375 32.300781 L 149.621094 32.300781 L 149.859375 32.300781 L 149.621094 32.300781 L 149.859375 32.300781 L 149.621094 32.300781 L 149.859375 32.300781 L 149.859375 32.0625 L 149.621094 32.0625 L 149.621094 31.820312 L 149.859375 31.820312 L 149.859375 31.582031 L 149.859375 31.820312 L 150.101562 31.820312 L 150.101562 31.582031 L 150.339844 31.582031 L 150.339844 30.140625 L 150.101562 30.140625 L 150.101562 29.898438 L 149.621094 29.898438 L 149.859375 29.898438 L 148.902344 29.898438 L 148.902344 29.660156 L 148.660156 29.660156 L 148.660156 29.421875 L 148.421875 29.421875 L 148.421875 29.179688 L 148.421875 29.421875 L 148.421875 29.179688 L 148.183594 29.179688 L 148.183594 28.941406 L 148.183594 29.179688 L 148.183594 28.699219 L 147.941406 28.699219 L 147.941406 27.5 L 147.699219 27.5 L 147.699219 27.019531 L 147.460938 27.019531 L 147.460938 26.300781 L 147.699219 26.300781 L 147.699219 26.058594 L 147.460938 26.058594 L 147.699219 26.058594 L 147.460938 26.058594 L 147.460938 25.101562 L 147.222656 25.101562 L 147.460938 25.101562 L 146.984375 25.101562 L 146.984375 24.859375 L 146.742188 24.859375 L 146.984375 24.859375 L 146.742188 24.859375 L 146.742188 24.617188 L 146.742188 24.859375 L 146.503906 24.859375 L 146.503906 24.617188 L 146.261719 24.617188 L 146.261719 24.378906 L 146.023438 24.378906 L 146.023438 24.140625 L 145.78125 24.140625 L 146.023438 24.140625 L 145.78125 24.140625 L 145.78125 23.898438 L 146.023438 23.898438 L 145.78125 23.898438 L 145.78125 24.140625 L 145.78125 23.898438 L 145.78125 24.140625 L 145.78125 23.898438 L 145.78125 24.140625 L 145.542969 24.140625 L 145.542969 24.378906 L 145.78125 24.378906 L 145.542969 24.378906 L 145.542969 23.898438 L 145.78125 23.898438 L 145.78125 23.179688 L 145.542969 23.179688 L 145.78125 23.179688 L 145.78125 23.417969 L 146.023438 23.417969 L 146.023438 23.898438 L 146.261719 23.898438 L 146.261719 23.65625 L 146.023438 23.65625 L 146.261719 23.65625 L 146.023438 23.65625 L 146.023438 23.417969 L 145.78125 23.417969 L 146.023438 23.417969 L 145.78125 23.417969 L 145.78125 22.9375 L 145.542969 22.9375 L 145.542969 22.699219 L 145.304688 22.699219 L 145.542969 22.699219 L 145.304688 22.699219 L 145.304688 22.457031 L 145.304688 22.699219 L 145.304688 22.21875 L 145.0625 22.21875 L 145.0625 21.738281 L 144.582031 21.738281 L 144.582031 21.496094 L 144.34375 21.496094 L 144.34375 21.257812 L 144.34375 21.496094 L 144.34375 21.257812 L 144.105469 21.257812 L 144.34375 21.257812 L 144.105469 21.257812 L 144.105469 21.019531 L 144.105469 21.257812 L 144.105469 20.777344 L 143.863281 20.777344 L 144.105469 20.777344 L 143.863281 20.777344 L 143.863281 20.539062 L 143.625 20.539062 L 143.625 20.300781 L 143.382812 20.300781 L 143.382812 20.058594 L 143.144531 20.058594 L 143.144531 19.816406 L 142.902344 19.816406 L 143.144531 19.816406 L 142.902344 19.816406 L 142.902344 19.339844 L 142.664062 19.339844 L 142.664062 19.097656 L 142.902344 19.097656 L 142.902344 18.375 L 142.664062 18.375 L 142.664062 18.136719 L 142.664062 18.375 L 142.664062 18.136719 L 142.664062 18.375 L 142.664062 18.136719 L 142.664062 18.375 L 142.664062 18.136719 L 142.664062 18.375 L 142.664062 17.65625 L 142.664062 17.898438 L 142.664062 17.65625 L 142.425781 17.65625 L 142.664062 17.65625 L 142.425781 17.65625 L 142.425781 17.179688 L 142.425781 17.417969 L 142.425781 16.695312 L 142.664062 16.695312 L 142.425781 16.695312 L 142.425781 16.457031 L 142.664062 16.457031 L 142.664062 15.976562 L 142.664062 16.21875 L 142.664062 15.257812 L 142.425781 15.257812 L 142.425781 14.535156 L 142.183594 14.535156 L 142.183594 14.058594 L 142.183594 14.296875 L 142.183594 14.058594 L 141.945312 14.058594 L 141.945312 13.816406 L 141.703125 13.816406 L 141.703125 13.574219 L 141.464844 13.574219 L 141.464844 13.097656 L 141.226562 13.097656 L 141.226562 12.855469 L 140.984375 12.855469 L 140.984375 12.617188 L 140.746094 12.617188 L 140.746094 12.375 L 140.503906 12.375 L 140.503906 11.414062 L 140.265625 11.414062 L 140.265625 11.175781 L 140.503906 11.175781 L 140.503906 10.453125 L 140.746094 10.453125 L 140.746094 10.214844 L 140.746094 10.453125 L 140.746094 10.214844 L 140.746094 10.453125 L 140.746094 10.214844 L 140.746094 10.453125 L 140.746094 10.214844 L 140.984375 10.214844 L 140.984375 10.453125 L 140.984375 10.214844 L 140.746094 10.214844 L 140.984375 10.214844 L 140.746094 10.214844 L 140.746094 9.976562 L 140.984375 9.976562 L 140.984375 9.734375 L 141.226562 9.734375 L 140.984375 9.734375 L 140.984375 9.976562 L 141.226562 9.976562 L 141.226562 10.214844 L 141.226562 9.496094 L 141.703125 9.496094 L 141.703125 9.257812 L 141.226562 9.257812 L 141.226562 9.734375 L 140.984375 9.734375 L 141.226562 9.734375 L 141.226562 9.257812 L 141.464844 9.257812 L 141.464844 8.535156 L 141.703125 8.535156 L 141.703125 8.292969 L 141.464844 8.292969 L 141.464844 8.054688 L 141.464844 8.292969 L 141.464844 7.574219 L 141.703125 7.574219 L 141.703125 6.613281 L 141.945312 6.613281 L 141.945312 5.652344 L 141.703125 5.652344 L 141.703125 4.453125 L 141.464844 4.453125 L 141.464844 4.695312 L 141.464844 4.453125 L 141.464844 4.695312 L 141.464844 4.453125 L 141.226562 4.453125 L 141.226562 4.214844 L 141.464844 4.214844 L 141.464844 3.492188 L 141.464844 3.734375 L 141.703125 3.734375 L 141.464844 3.734375 L 141.464844 3.492188 L 141.464844 3.734375 L 141.464844 3.492188 L 141.464844 3.734375 L 141.464844 3.253906 Z M 143.144531 3.253906 "/>
<path style="fill:none;stroke-width:0.25;stroke-linecap:square;stroke-linejoin:round;stroke:rgb(100%,100%,100%);stroke-opacity:1;stroke-miterlimit:10;" d="M 0.000975 -0.0010125 L 0.0869125 1.670863 L 0.36035 0.53805 L 0.469725 2.018519 L 0.5791 0.53805 L 0.7041 1.315394 L 0.8291 0.760706 L 1.063475 1.315394 L 1.247069 0.877894 L 1.372069 1.16305 L 1.555663 1.022425 L 1.680663 1.16305 L 1.950194 0.53805 L 2.075194 1.698206 L 2.348631 0.53805 L 2.54785 1.377894 L 2.692381 0.409144 L 2.997069 1.502894 L 3.305663 0.0888313 L 3.434569 1.502894 L 3.723631 -0.379919 L 3.813475 2.518519 L 4.012694 0.674769 L 4.227538 4.748988 L 4.325194 -3.08695 L 4.586913 4.748988 L 4.708006 -2.188512 L 4.926756 4.553675 L 5.094725 0.0341438 L 5.286131 1.502894 L 5.430663 0.0341438 L 5.555663 2.022425 L 5.696288 0.3818 L 5.840819 2.022425 L 5.961913 0.3818 L 6.0791 1.502894 L 6.418944 0.53805 L 6.606444 1.760706 L 6.895506 0.831019 L 7.000975 1.928675 L 7.118163 1.202113 L 7.239256 1.971644 L 7.368163 -0.219762 L 7.594725 2.588831 L 7.801756 0.143519 L 7.973631 1.885706 L 8.157225 -1.047887 L 8.250975 0.670863 L 8.512694 1.651331 L 8.657225 -0.83695 L 8.801756 1.182581 L 8.98535 0.831019 L 9.129881 2.397425 L 9.262694 1.397425 L 9.473631 3.565394 L 9.563475 1.948206 L 9.696288 2.502894 L 10.036131 -2.114294 L 10.247069 0.831019 L 10.497069 -1.047887 L 10.602538 0.737269 L 10.825194 0.53805 L 10.973631 2.459925 L 11.118163 1.608363 L 11.313475 5.311488 L 11.497069 4.6318 L 11.786131 -2.793981 L 12.024413 -0.516637 L 12.231444 -2.536169 L 12.786131 9.077113 L 13.469725 -10.008825 L 13.997069 14.248988 L 14.403319 -16.71195 L 14.875975 18.760706 L 15.258788 -13.965856 L 15.598631 13.397425 L 15.903319 -8.477575 L 16.231444 10.479456 L 16.4541 -10.008825 L 16.809569 10.6943 L 17.059569 -6.477575 L 17.375975 7.717738 L 17.676756 -5.391637 L 17.821288 7.334925 L 18.243163 -5.454137 L 18.493163 4.991175 L 18.739256 -4.688512 L 19.004881 4.440394 L 19.305663 -2.094762 L 19.61035 4.526331 L 19.754881 -1.176794 L 20.043944 4.842738 L 20.278319 -2.751012 L 20.583006 4.10055 L 20.778319 -1.411169 L 20.961913 4.057581 L 21.344725 -3.219762 L 21.606444 7.674769 L 21.844725 -4.3682 L 22.196288 6.22555 L 22.489256 -3.3057 L 22.73535 5.077113 L 23.028319 -0.922887 L 23.223631 1.502894 L 23.434569 0.10055 L 23.657225 3.522425 L 23.946288 -2.114294 L 24.17285 4.885706 L 24.434569 -2.965856 L 24.790038 4.885706 L 25.024413 -1.942419 L 25.3291 2.760706 L 25.590819 0.823206 L 25.813475 1.311488 L 26.024413 -0.0947625 L 26.301756 2.928675 L 26.602538 -1.665075 L 26.73535 2.565394 L 26.852538 0.53805 L 27.036131 1.120081 L 27.196288 0.53805 L 27.407225 2.479456 L 27.618163 -0.469762 L 27.875975 2.284144 L 28.196288 -0.0791375 L 28.395506 2.108363 L 28.598631 -0.102575 L 29.012694 2.217738 L 29.293944 -0.469762 L 29.493163 2.803675 L 29.747069 -0.231481 L 29.977538 2.237269 L 30.403319 0.0693 L 30.551756 1.979456 L 30.700194 0.827113 L 30.86035 1.502894 L 31.114256 -0.645544 L 31.344725 2.803675 L 31.583006 -0.317419 L 31.903319 2.327113 L 32.17285 -0.446325 L 32.4541 2.998988 L 32.723631 -0.0596062 L 32.856444 0.745081 L 33.032225 0.0693 L 33.243162 1.979456 L 33.594725 0.0263313 L 33.86035 2.088831 L 34.008787 1.022425 L 34.395506 0.53805 L 34.559569 2.174769 L 34.758787 0.397425 L 35.040037 2.1943 L 35.145506 -0.403356 L 35.387694 1.893519 L 35.629881 0.53805 L 35.723631 1.178675 L 35.844725 0.53805 L 36.125975 2.998988 L 36.352537 -1.098669 L 36.551756 2.327113 L 37.063475 -0.0166375 L 38.305662 -0.0166375 " transform="matrix(1,0,0,-1,8.6084,28.6318)"/>
<path style="fill:none;stroke-width:0.25;stroke-linecap:round;stroke-linejoin:round;stroke:rgb(100%,100%,100%);stroke-opacity:1;stroke-miterlimit:10;" d="M 0 -0.000025 L 100.332031 -0.000025 " transform="matrix(1,0,0,-1,46.5,28.6406)"/>
<path style=" stroke:none;fill-rule:nonzero;fill:rgb(13.699341%,12.199402%,12.5%);fill-opacity:1;" d="M 11.574219 12.441406 C 15.957031 9.019531 21.535156 7.339844 27.773438 7.339844 C 31.015625 7.339844 35.574219 8 38.394531 8.78125 C 39.113281 8.960938 39.535156 9.082031 40.074219 9.019531 C 40.132812 10.402344 40.433594 14.179688 40.914062 17.839844 C 40.613281 18.261719 39.714844 18.320312 39.292969 17.960938 C 38.394531 13.882812 35.695312 9.199219 26.996094 9.199219 C 17.816406 9.199219 10.015625 15.019531 10.015625 27.441406 C 10.015625 40.039062 17.996094 47 27.835938 47 C 35.574219 47 38.996094 41.960938 40.375 38.417969 C 40.792969 38.121094 41.695312 38.238281 41.933594 38.660156 C 41.511719 41.777344 39.953125 45.738281 39.054688 46.878906 C 38.335938 47 37.613281 47.238281 36.953125 47.480469 C 35.632812 47.957031 31.3125 48.859375 27.472656 48.859375 C 22.074219 48.859375 16.914062 47.777344 12.535156 44.839844 C 7.734375 41.539062 4.015625 36.078125 4.015625 28.339844 C 4.015625 21.679688 7.015625 15.980469 11.574219 12.441406 "/>
<path style="fill:none;stroke-width:2;stroke-linecap:butt;stroke-linejoin:miter;stroke:rgb(13.699341%,12.199402%,12.5%);stroke-opacity:1;stroke-miterlimit:10;" d="M -0.00098125 -0.00050625 C 4.381831 3.421369 9.959956 5.101056 16.198237 5.101056 C 19.440425 5.101056 23.999019 4.4409 26.819331 3.65965 C 27.538081 3.479962 27.959956 3.358869 28.499019 3.421369 C 28.557612 2.038556 28.858394 -1.738788 29.338862 -5.398944 C 29.038081 -5.820819 28.139644 -5.879413 27.717769 -5.520038 C 26.819331 -1.441913 24.120112 3.241681 15.420894 3.241681 C 6.241206 3.241681 -1.559575 -2.578631 -1.559575 -15.000506 C -1.559575 -27.598163 6.420894 -34.5591 16.260737 -34.5591 C 23.999019 -34.5591 27.420894 -29.520038 28.7998 -25.977069 C 29.217769 -25.680194 30.120112 -25.797381 30.358394 -26.219256 C 29.936519 -29.336444 28.377925 -33.297381 27.479487 -34.438006 C 26.760737 -34.5591 26.038081 -34.797381 25.377925 -35.039569 C 24.057612 -35.516131 19.7373 -36.418475 15.897456 -36.418475 C 10.499019 -36.418475 5.338862 -35.336444 0.959956 -32.398944 C -3.840825 -29.098163 -7.559575 -23.637225 -7.559575 -15.898944 C -7.559575 -9.238788 -4.559575 -3.539569 -0.00098125 -0.00050625 Z M -0.00098125 -0.00050625 " transform="matrix(1,0,0,-1,11.5752,12.4409)"/>
<path style="fill-rule:nonzero;fill:rgb(13.699341%,12.199402%,12.5%);fill-opacity:1;stroke-width:2;stroke-linecap:butt;stroke-linejoin:miter;stroke:rgb(13.699341%,12.199402%,12.5%);stroke-opacity:1;stroke-miterlimit:10;" d="M 0.00100625 -0.000975 C 0.00100625 6.3584 -0.120087 7.381837 -3.65915 7.678712 L -5.15915 7.799806 C -5.522431 8.038087 -5.401337 9.120119 -5.038056 9.299806 C -2.041962 9.178712 0.00100625 9.120119 2.520538 9.120119 C 4.918975 9.120119 6.958038 9.178712 9.958038 9.299806 C 10.317413 9.120119 10.438506 8.038087 10.079131 7.799806 L 8.579131 7.678712 C 5.040069 7.381837 4.918975 6.3584 4.918975 -0.000975 L 4.918975 -21.36035 C 4.918975 -27.719725 5.040069 -28.559569 8.579131 -28.977538 L 10.079131 -29.157225 C 10.438506 -29.399413 10.317413 -30.477538 9.958038 -30.657225 C 6.958038 -30.536131 4.918975 -30.477538 2.520538 -30.477538 C 0.00100625 -30.477538 -2.041962 -30.536131 -5.038056 -30.657225 C -5.401337 -30.477538 -5.522431 -29.520506 -5.15915 -29.157225 L -3.65915 -28.977538 C -0.120087 -28.559569 0.00100625 -27.719725 0.00100625 -21.36035 Z M 0.00100625 -0.000975 " transform="matrix(1,0,0,-1,50.8154,17.4209)"/>
<path style=" stroke:none;fill-rule:nonzero;fill:rgb(13.699341%,12.199402%,12.5%);fill-opacity:1;" d="M 76.855469 48.859375 C 71.816406 48.859375 68.632812 47.300781 67.496094 46.640625 C 66.773438 45.320312 65.996094 41.058594 65.875 38.242188 C 66.175781 37.820312 67.074219 37.699219 67.316406 38.058594 C 68.214844 41.121094 70.675781 47 77.632812 47 C 82.675781 47 85.132812 43.699219 85.132812 40.097656 C 85.132812 37.460938 84.59375 34.519531 80.214844 31.699219 L 74.515625 27.980469 C 71.515625 26 68.035156 22.582031 68.035156 17.660156 C 68.035156 11.960938 72.472656 7.339844 80.273438 7.339844 C 82.132812 7.339844 84.292969 7.703125 85.855469 8.121094 C 86.632812 8.359375 87.472656 8.480469 87.953125 8.480469 C 88.496094 9.921875 89.035156 13.28125 89.035156 15.800781 C 88.792969 16.160156 87.832031 16.339844 87.535156 15.980469 C 86.753906 13.101562 85.132812 9.203125 79.375 9.203125 C 73.496094 9.203125 72.234375 13.101562 72.234375 15.859375 C 72.234375 19.339844 75.113281 21.859375 77.335938 23.242188 L 82.132812 26.242188 C 85.914062 28.582031 89.632812 32.058594 89.632812 37.757812 C 89.632812 44.359375 84.65625 48.859375 76.855469 48.859375 "/>
<path style="fill:none;stroke-width:2;stroke-linecap:butt;stroke-linejoin:miter;stroke:rgb(13.699341%,12.199402%,12.5%);stroke-opacity:1;stroke-miterlimit:10;" d="M 0.00096875 0.000025 C -5.038094 0.000025 -8.221688 1.558619 -9.358406 2.218775 C -10.081063 3.539088 -10.858406 7.800806 -10.9795 10.617213 C -10.678719 11.039088 -9.780281 11.160181 -9.538094 10.800806 C -8.639656 7.738306 -6.178719 1.8594 0.778312 1.8594 C 5.821281 1.8594 8.278312 5.160181 8.278312 8.761744 C 8.278312 11.398463 7.73925 14.339869 3.360344 17.160181 L -2.338875 20.878931 C -5.338875 22.8594 -8.819344 26.277369 -8.819344 31.199244 C -8.819344 36.898463 -4.381844 41.519556 3.418937 41.519556 C 5.278312 41.519556 7.438469 41.156275 9.000969 40.738306 C 9.778312 40.500025 10.618156 40.378931 11.098625 40.378931 C 11.641594 38.937525 12.180656 35.57815 12.180656 33.058619 C 11.938469 32.699244 10.977531 32.519556 10.680656 32.878931 C 9.899406 35.757838 8.278312 39.656275 2.5205 39.656275 C -3.358406 39.656275 -4.620125 35.757838 -4.620125 33.000025 C -4.620125 29.519556 -1.741219 27.000025 0.481437 25.617213 L 5.278312 22.617213 C 9.059562 20.277369 12.778312 16.800806 12.778312 11.101588 C 12.778312 4.500025 7.80175 0.000025 0.00096875 0.000025 Z M 0.00096875 0.000025 " transform="matrix(1,0,0,-1,76.8545,48.8594)"/>
<path style="fill-rule:nonzero;fill:rgb(13.699341%,12.199402%,12.5%);fill-opacity:1;stroke-width:2;stroke-linecap:butt;stroke-linejoin:miter;stroke:rgb(13.699341%,12.199402%,12.5%);stroke-opacity:1;stroke-miterlimit:10;" d="M 0.00194375 0.00098125 C 0.00194375 -1.7998 0.00194375 -8.940425 0.181631 -10.499019 C 0.0605375 -10.858394 -0.298837 -11.159175 -0.958994 -11.159175 C -1.68165 -10.139644 -3.419931 -8.038081 -8.638681 -2.100581 L -22.560556 13.739262 C -24.177744 15.598637 -28.259775 20.520512 -29.517587 21.840825 L -29.638681 21.840825 C -29.876962 21.118169 -29.935556 19.739262 -29.935556 17.938481 L -29.935556 4.860356 C -29.935556 2.040044 -29.876962 -5.760738 -28.857431 -7.561519 C -28.498056 -8.221675 -27.298837 -8.577144 -25.798837 -8.698238 L -23.935556 -8.877925 C -23.580087 -9.358394 -23.638681 -10.077144 -24.060556 -10.377925 C -26.759775 -10.260738 -28.857431 -10.198238 -31.076181 -10.198238 C -33.599619 -10.198238 -35.216806 -10.260738 -37.318369 -10.377925 C -37.736337 -10.077144 -37.798837 -9.2373 -37.439462 -8.877925 L -35.818369 -8.698238 C -34.439462 -8.51855 -33.478525 -8.159175 -33.177744 -7.499019 C -32.3379 -5.338863 -32.396494 1.98145 -32.396494 4.860356 L -32.396494 22.2002 C -32.396494 23.879887 -32.458994 25.1377 -33.716806 26.520512 C -34.55665 27.360356 -35.998056 27.778325 -37.439462 27.958012 L -38.458994 28.079106 C -38.818369 28.438481 -38.818369 29.340825 -38.3379 29.579106 C -35.818369 29.399419 -32.638681 29.399419 -31.560556 29.399419 C -30.599619 29.399419 -29.580087 29.458012 -28.798837 29.579106 C -27.599619 26.520512 -20.517587 18.598637 -18.537119 16.379887 L -12.720712 9.840825 C -8.580087 5.219731 -5.638681 1.860356 -2.818369 -1.01855 L -2.697275 -1.01855 C -2.458994 -0.721675 -2.458994 0.239262 -2.458994 1.500981 L -2.458994 14.340825 C -2.458994 17.161137 -2.521494 24.958012 -3.658212 26.758794 C -4.021494 27.297856 -4.978525 27.657231 -7.380869 27.958012 L -8.4004 28.079106 C -8.818369 28.438481 -8.759775 29.399419 -8.279306 29.579106 C -5.521494 29.458012 -3.478525 29.399419 -1.197275 29.399419 C 1.38085 29.399419 2.939444 29.458012 4.978506 29.579106 C 5.458975 29.278325 5.458975 28.438481 5.0996 28.079106 L 4.259756 27.958012 C 2.341788 27.657231 1.142569 27.180669 0.900381 26.7002 C -0.11915 24.540044 0.00194375 17.098637 0.00194375 14.340825 Z M 0.00194375 0.00098125 " transform="matrix(1,0,0,-1,132.7129,37.7002)"/>
<path style=" stroke:none;fill-rule:nonzero;fill:rgb(100%,100%,100%);fill-opacity:1;" d="M 11.574219 12.441406 C 15.957031 9.019531 21.535156 7.339844 27.773438 7.339844 C 31.015625 7.339844 35.574219 8 38.394531 8.78125 C 39.113281 8.960938 39.535156 9.082031 40.074219 9.019531 C 40.132812 10.402344 40.433594 14.179688 40.914062 17.839844 C 40.613281 18.261719 39.714844 18.320312 39.292969 17.960938 C 38.394531 13.882812 35.695312 9.199219 26.996094 9.199219 C 17.816406 9.199219 10.015625 15.019531 10.015625 27.441406 C 10.015625 40.039062 17.996094 47 27.835938 47 C 35.574219 47 38.996094 41.960938 40.375 38.417969 C 40.792969 38.121094 41.695312 38.238281 41.933594 38.660156 C 41.511719 41.777344 39.953125 45.738281 39.054688 46.878906 C 38.335938 47 37.613281 47.238281 36.953125 47.480469 C 35.632812 47.957031 31.3125 48.859375 27.472656 48.859375 C 22.074219 48.859375 16.914062 47.777344 12.535156 44.839844 C 7.734375 41.539062 4.015625 36.078125 4.015625 28.339844 C 4.015625 21.679688 7.015625 15.980469 11.574219 12.441406 "/>
<path style=" stroke:none;fill-rule:nonzero;fill:rgb(100%,100%,100%);fill-opacity:1;" d="M 50.816406 17.421875 C 50.816406 11.0625 50.695312 10.039062 47.15625 9.742188 L 45.65625 9.621094 C 45.292969 9.382812 45.414062 8.300781 45.777344 8.121094 C 48.773438 8.242188 50.816406 8.300781 53.335938 8.300781 C 55.734375 8.300781 57.773438 8.242188 60.773438 8.121094 C 61.132812 8.300781 61.253906 9.382812 60.894531 9.621094 L 59.394531 9.742188 C 55.855469 10.039062 55.734375 11.0625 55.734375 17.421875 L 55.734375 38.78125 C 55.734375 45.140625 55.855469 45.980469 59.394531 46.398438 L 60.894531 46.578125 C 61.253906 46.820312 61.132812 47.898438 60.773438 48.078125 C 57.773438 47.957031 55.734375 47.898438 53.335938 47.898438 C 50.816406 47.898438 48.773438 47.957031 45.777344 48.078125 C 45.414062 47.898438 45.292969 46.941406 45.65625 46.578125 L 47.15625 46.398438 C 50.695312 45.980469 50.816406 45.140625 50.816406 38.78125 Z M 50.816406 17.421875 "/>
<path style=" stroke:none;fill-rule:nonzero;fill:rgb(100%,100%,100%);fill-opacity:1;" d="M 76.855469 48.859375 C 71.816406 48.859375 68.632812 47.300781 67.496094 46.640625 C 66.773438 45.320312 65.996094 41.058594 65.875 38.242188 C 66.175781 37.820312 67.074219 37.699219 67.316406 38.058594 C 68.214844 41.121094 70.675781 47 77.632812 47 C 82.675781 47 85.132812 43.699219 85.132812 40.097656 C 85.132812 37.460938 84.59375 34.519531 80.214844 31.699219 L 74.515625 27.980469 C 71.515625 26 68.035156 22.582031 68.035156 17.660156 C 68.035156 11.960938 72.472656 7.339844 80.273438 7.339844 C 82.132812 7.339844 84.292969 7.703125 85.855469 8.121094 C 86.632812 8.359375 87.472656 8.480469 87.953125 8.480469 C 88.496094 9.921875 89.035156 13.28125 89.035156 15.800781 C 88.792969 16.160156 87.832031 16.339844 87.535156 15.980469 C 86.753906 13.101562 85.132812 9.203125 79.375 9.203125 C 73.496094 9.203125 72.234375 13.101562 72.234375 15.859375 C 72.234375 19.339844 75.113281 21.859375 77.335938 23.242188 L 82.132812 26.242188 C 85.914062 28.582031 89.632812 32.058594 89.632812 37.757812 C 89.632812 44.359375 84.65625 48.859375 76.855469 48.859375 "/>
<path style=" stroke:none;fill-rule:nonzero;fill:rgb(100%,100%,100%);fill-opacity:1;" d="M 132.714844 37.699219 C 132.714844 39.5 132.714844 46.640625 132.894531 48.199219 C 132.773438 48.558594 132.414062 48.859375 131.753906 48.859375 C 131.03125 47.839844 129.292969 45.738281 124.074219 39.800781 L 110.152344 23.960938 C 108.535156 22.101562 104.453125 17.179688 103.195312 15.859375 L 103.074219 15.859375 C 102.835938 16.582031 102.777344 17.960938 102.777344 19.761719 L 102.777344 32.839844 C 102.777344 35.660156 102.835938 43.460938 103.855469 45.261719 C 104.214844 45.921875 105.414062 46.277344 106.914062 46.398438 L 108.777344 46.578125 C 109.132812 47.058594 109.074219 47.777344 108.652344 48.078125 C 105.953125 47.960938 103.855469 47.898438 101.636719 47.898438 C 99.113281 47.898438 97.496094 47.960938 95.394531 48.078125 C 94.976562 47.777344 94.914062 46.9375 95.273438 46.578125 L 96.894531 46.398438 C 98.273438 46.21875 99.234375 45.859375 99.535156 45.199219 C 100.375 43.039062 100.316406 35.71875 100.316406 32.839844 L 100.316406 15.5 C 100.316406 13.820312 100.253906 12.5625 98.996094 11.179688 C 98.15625 10.339844 96.714844 9.921875 95.273438 9.742188 L 94.253906 9.621094 C 93.894531 9.261719 93.894531 8.359375 94.375 8.121094 C 96.894531 8.300781 100.074219 8.300781 101.152344 8.300781 C 102.113281 8.300781 103.132812 8.242188 103.914062 8.121094 C 105.113281 11.179688 112.195312 19.101562 114.175781 21.320312 L 119.992188 27.859375 C 124.132812 32.480469 127.074219 35.839844 129.894531 38.71875 L 130.015625 38.71875 C 130.253906 38.421875 130.253906 37.460938 130.253906 36.199219 L 130.253906 23.359375 C 130.253906 20.539062 130.191406 12.742188 129.054688 10.941406 C 128.691406 10.402344 127.734375 10.042969 125.332031 9.742188 L 124.3125 9.621094 C 123.894531 9.261719 123.953125 8.300781 124.433594 8.121094 C 127.191406 8.242188 129.234375 8.300781 131.515625 8.300781 C 134.09375 8.300781 135.652344 8.242188 137.691406 8.121094 C 138.171875 8.421875 138.171875 9.261719 137.8125 9.621094 L 136.972656 9.742188 C 135.054688 10.042969 133.855469 10.519531 133.613281 11 C 132.59375 13.160156 132.714844 20.601562 132.714844 23.359375 Z M 132.714844 37.699219 "/>
</g>
</svg>
