<?xml version="1.0" encoding="utf-8"?>
<!-- Generator: Adobe Illustrator 16.0.4, SVG Export Plug-In . SVG Version: 6.00 Build 0)  -->
<!DOCTYPE svg PUBLIC "-//W3C//DTD SVG 1.1//EN" "http://www.w3.org/Graphics/SVG/1.1/DTD/svg11.dtd">
<svg version="1.1" id="Layer_1" xmlns="http://www.w3.org/2000/svg" xmlns:xlink="http://www.w3.org/1999/xlink" x="0px" y="0px"
	 width="114.5px" height="58.759px" viewBox="0 0 114.5 58.759" enable-background="new 0 0 114.5 58.759" xml:space="preserve">
<g>
	<rect x="2.5" y="2.5" fill="none" stroke="#000000" stroke-width="5" width="109.5" height="53.759"/>
	<g>
		<polygon fill="#FFFFFF" points="3.833,54.333 110.37,54.524 110.37,4.431 4,4.431 		"/>
	</g>
	<g>
		<defs>
			<polygon id="SVGID_1_" points="6.166,52.833 109.231,53.741 109.231,4.511 6.855,4.231 			"/>
		</defs>
		<clipPath id="SVGID_2_">
			<use xlink:href="#SVGID_1_"  overflow="visible"/>
		</clipPath>
		<path clip-path="url(#SVGID_2_)" fill="#8E969C" d="M73.459,15.715c0,0.211,0.057,0.423,0.117,0.627c-0.175,0-0.861,0-1.036,0
			c0.062-0.204,0.116-0.416,0.116-0.627c0-0.174,0-4.466,0-4.64c0-0.211-0.055-0.423-0.116-0.627c0.175,0,0.861,0,1.036,0
			c-0.061,0.204-0.117,0.416-0.117,0.627C73.459,11.249,73.459,15.541,73.459,15.715"/>
		<path clip-path="url(#SVGID_2_)" fill="#8E969C" d="M48.114,15.715c0,0.211,0.057,0.423,0.116,0.627c-0.173,0-0.861,0-1.036,0
			c0.062-0.204,0.117-0.416,0.117-0.627c0-0.174,0-4.466,0-4.64c0-0.211-0.056-0.423-0.117-0.627c0.175,0,0.863,0,1.036,0
			c-0.06,0.204-0.116,0.416-0.116,0.627C48.114,11.249,48.114,15.541,48.114,15.715"/>
		<path clip-path="url(#SVGID_2_)" fill="#8E969C" d="M39.265,14.179c0-0.175,0-2.93,0-3.104c0-0.211,0.057-0.423,0.116-0.627
			c-0.173,0-0.861,0-1.035,0c0.061,0.204,0.116,0.416,0.116,0.627c0,0.174,0,2.967,0,3.142c0,1.062-0.783,1.545-1.769,1.545
			c-1.055,0-1.786-0.557-1.786-1.476c0-0.174,0-3.037,0-3.211c0-0.211,0.056-0.423,0.116-0.627c-0.174,0-0.86,0-1.035,0
			c0.061,0.204,0.116,0.416,0.116,0.627c0,0.174,0,3.102,0,3.275c0,1.336,0.995,2.098,2.564,2.098
			C38.156,16.448,39.265,15.694,39.265,14.179"/>
		<path clip-path="url(#SVGID_2_)" fill="#8E969C" d="M45.023,11.1c0-0.21-0.057-0.423-0.117-0.626c0.175,0,0.861,0,1.035,0
			c-0.061,0.203-0.116,0.416-0.116,0.626c0,0.174,0.001,5.429,0.001,5.429l-4.388-4.307c0,0,0,3.319,0,3.493
			c0,0.211,0.057,0.424,0.117,0.627c-0.174,0-0.861,0-1.035,0c0.061-0.203,0.115-0.416,0.115-0.627c0-0.174,0.002-5.389,0.002-5.389
			l4.386,4.306C45.023,14.632,45.023,11.273,45.023,11.1"/>
		<path clip-path="url(#SVGID_2_)" fill="#8E969C" d="M26.147,16.335c0.062-0.203,0.117-0.416,0.117-0.626c0-0.175,0-4.467,0-4.64
			c0-0.211-0.056-0.423-0.117-0.627c0.175,0,4.217,0,4.217,0c0,0.174,0,0.666,0,0.841c-0.203-0.062-0.415-0.117-0.626-0.117
			c-0.174,0-2.672,0-2.672,0c0,0.174,0,1.579,0,1.753c0,0,2.116-0.001,2.291-0.001c0.21,0,0.421-0.056,0.625-0.117
			c0,0.176,0,0.758,0,0.933c-0.204-0.062-0.415-0.116-0.625-0.116c-0.175,0-2.291-0.002-2.291-0.002c0,0.175,0,1.982,0,1.982
			s2.485-0.001,2.659-0.001c0.212,0,0.423-0.056,0.626-0.117c0,0.175,0,0.688,0,0.862C30.352,16.342,26.322,16.335,26.147,16.335"/>
		<path clip-path="url(#SVGID_2_)" fill="#8E969C" d="M55.814,16.335c0.062-0.203,0.117-0.416,0.117-0.626c0-0.175,0-4.467,0-4.64
			c0-0.211-0.056-0.423-0.117-0.627c0.175,0,4.216,0,4.216,0c0,0.174,0,0.666,0,0.841c-0.204-0.062-0.415-0.117-0.625-0.117
			c-0.175,0-2.671,0-2.671,0c0,0.174,0,1.579,0,1.753c0,0,2.114-0.001,2.289-0.001c0.21,0,0.423-0.056,0.626-0.117
			c0,0.176,0,0.758,0,0.933c-0.203-0.062-0.416-0.116-0.626-0.116c-0.175,0-2.289-0.002-2.289-0.002c0,0.175,0,1.982,0,1.982
			s2.483-0.001,2.658-0.001c0.21,0,0.422-0.056,0.626-0.117c0,0.175,0,0.688,0,0.862C60.019,16.342,55.989,16.335,55.814,16.335"/>
		<path clip-path="url(#SVGID_2_)" fill="#8E969C" d="M96.581,16.335c-0.062-0.203-0.117-0.416-0.117-0.626
			c0-0.175-0.002-1.919-0.002-2.094c0,0,2.116,0.002,2.29,0.002c0.21,0,0.423,0.055,0.626,0.116c0-0.175,0-0.757,0-0.933
			c-0.203,0.062-0.416,0.117-0.626,0.117c-0.174,0-2.29,0.001-2.29,0.001c0-0.174,0-1.579,0-1.753c0,0,2.497,0,2.672,0
			c0.211,0,0.421,0.056,0.625,0.117c0-0.175,0-0.667,0-0.841c0,0-4.041,0-4.216,0c0.061,0.204,0.117,0.416,0.117,0.627
			c0,0.173,0,4.465,0,4.64c0,0.21-0.057,0.423-0.117,0.626H96.581"/>
		<path clip-path="url(#SVGID_2_)" fill="#8E969C" d="M24.721,11.075c0-0.211,0.056-0.423,0.116-0.627c-0.174,0-0.861,0-1.035,0
			c0.061,0.204,0.116,0.416,0.116,0.627c0,0.073,0,0.892,0,1.822h-3.159c0-0.931,0-1.749,0-1.822c0-0.211,0.056-0.423,0.116-0.627
			c-0.174,0-0.861,0-1.035,0c0.061,0.204,0.116,0.416,0.116,0.627c0,0.174,0,4.466,0,4.64c0,0.211-0.056,0.424-0.116,0.627
			c0.174,0,0.861,0,1.035,0c-0.061-0.203-0.116-0.416-0.116-0.627c0-0.08,0-1.042,0-2.068h3.159c0,1.026,0,1.988,0,2.068
			c0,0.211-0.056,0.424-0.116,0.627c0.174,0,0.861,0,1.035,0c-0.061-0.203-0.116-0.416-0.116-0.627
			C24.721,15.541,24.721,11.249,24.721,11.075"/>
		<path clip-path="url(#SVGID_2_)" fill="#8E969C" d="M14.23,10.464c0,0.174,0,0.631,0,0.806c0.203-0.061,0.415-0.117,0.625-0.117
			c0.187,0,0.93,0,1.263,0c0,0.862,0,4.351,0,4.562c0,0.211-0.056,0.424-0.116,0.627c0.175,0,0.861,0,1.036,0
			c-0.061-0.203-0.117-0.416-0.117-0.627c0-0.154,0-3.681,0-4.562c0.316,0,1.103,0,1.293,0c0.211,0,0.423,0.057,0.627,0.117
			c0-0.175,0-0.636,0-0.81L14.23,10.464"/>
		<path clip-path="url(#SVGID_2_)" fill="#8E969C" d="M74.54,10.464c0,0.174,0,0.631,0,0.806c0.204-0.061,0.416-0.117,0.627-0.117
			c0.185,0,0.93,0,1.262,0c0,0.862,0,4.351,0,4.562c0,0.211-0.055,0.424-0.116,0.627c0.174,0,0.861,0,1.036,0
			c-0.061-0.203-0.117-0.416-0.117-0.627c0-0.154,0-3.681,0-4.562c0.315,0,1.103,0,1.294,0c0.21,0,0.422,0.057,0.625,0.117
			c0-0.175,0-0.636,0-0.81L74.54,10.464"/>
		<path clip-path="url(#SVGID_2_)" fill="#8E969C" d="M69.285,10.416c0.544,0,1.11,0.104,1.602,0.254
			c0.146,0.044,0.366,0.055,0.402,0.055c-0.083,0.171-0.3,0.654-0.397,0.823c-0.113-0.133-0.33-0.237-0.477-0.297
			c-0.277-0.112-0.724-0.188-1.119-0.188c-0.958,0-1.525,0.37-1.525,0.952c0,1.575,3.657,0.126,3.657,2.568
			c0,1.221-1.111,1.804-2.385,1.804c-0.576,0-1.42-0.213-1.725-0.319c-0.192-0.069-0.403-0.114-0.588-0.124
			c0.103-0.21,0.323-0.704,0.418-0.903c0.129,0.128,0.255,0.229,0.367,0.288c0.485,0.253,0.931,0.383,1.555,0.383
			c0.743,0,1.584-0.314,1.584-1.062c0-1.729-3.671-0.251-3.671-2.579C66.983,11.021,67.831,10.416,69.285,10.416"/>
		<path clip-path="url(#SVGID_2_)" fill="#8E969C" d="M48.819,10.436c0.134,0.165,0.288,0.371,0.394,0.581
			c0.189,0.373,2.799,5.538,2.799,5.538s2.681-5.208,2.857-5.541c0.123-0.232,0.298-0.461,0.435-0.578c-0.354,0-1.1,0-1.381,0
			c0.106,0.143,0.106,0.4,0.013,0.581c-0.134,0.26-1.9,3.896-1.9,3.896s-1.828-3.729-1.9-3.917
			c-0.071-0.185-0.087-0.461,0.052-0.561C49.698,10.436,48.819,10.436,48.819,10.436"/>
		<path clip-path="url(#SVGID_2_)" fill="#8E969C" d="M84.118,10.436c0.106,0.142,0.079,0.336-0.045,0.497
			c-0.729,0.956-1.574,2.054-1.574,2.054s-0.988-1.29-1.622-2.131c-0.107-0.143-0.14-0.327-0.012-0.42c-0.488,0-1.401,0-1.401,0
			c0.167,0.139,0.356,0.365,0.497,0.554c0.222,0.3,1.45,1.843,2.104,2.663c0,0.685,0,1.914,0,2.062c0,0.211-0.056,0.423-0.117,0.627
			c0.175,0,0.862,0,1.037,0c-0.062-0.204-0.117-0.416-0.117-0.627c0-0.146,0-1.351,0-2.037c0.635-0.793,1.847-2.306,2.134-2.673
			c0.155-0.198,0.368-0.439,0.52-0.569C85.168,10.436,84.399,10.436,84.118,10.436"/>
		<path clip-path="url(#SVGID_2_)" fill="#8E969C" d="M66.348,16.463c-0.909-0.583-1.63-1.737-1.925-2.478
			c0.787-0.242,1.397-0.812,1.397-1.74c0-1.271-1.188-1.807-2.704-1.807c-0.436,0-1.758,0.003-1.932,0.003
			c0.061,0.204,0.116,0.415,0.116,0.626c0,0.174,0,4.474,0,4.647c0,0.211-0.056,0.423-0.116,0.627c0.174,0,0.861,0,1.035,0
			c-0.061-0.204-0.116-0.416-0.116-0.627c0-0.174,0-1.421,0-1.596c0,0,0.832,0.002,1.381,0.002c0.025,0,0.049,0,0.074-0.001
			c0.433,0.907,1.261,2.346,2.789,2.415C66.348,16.5,66.353,16.502,66.348,16.463 M63.345,13.466c-0.331,0-1.229-0.003-1.229-0.003
			v-2.335c0,0,0.794-0.002,1.134-0.002c1.035,0,1.808,0.352,1.808,1.197C65.057,13.144,64.138,13.466,63.345,13.466z"/>
		<path clip-path="url(#SVGID_2_)" fill="#8E969C" d="M91.383,10.428c1.866,0,3.107,1.361,3.107,2.964
			c0,1.69-1.346,3.024-3.23,3.024c-1.81,0-3.101-1.397-3.101-2.995C88.159,11.901,89.365,10.428,91.383,10.428 M88.967,13.421
			c0,1.352,1.021,2.312,2.354,2.312c1.33,0,2.365-0.927,2.365-2.261c0-1.315-0.914-2.357-2.34-2.357
			C89.914,11.114,88.967,12.249,88.967,13.421z"/>
		<path clip-path="url(#SVGID_2_)" fill="#231F1F" d="M87.339,30.992c0,0.487,0.129,0.98,0.271,1.453c-0.404,0-2,0-2.404,0
			c0.142-0.473,0.271-0.966,0.271-1.453c0-0.404,0-10.366,0-10.771c0-0.488-0.129-0.979-0.271-1.453c0.404,0,2,0,2.404,0
			c-0.142,0.475-0.271,0.965-0.271,1.453C87.339,20.626,87.339,30.588,87.339,30.992"/>
		<path clip-path="url(#SVGID_2_)" fill="#231F1F" d="M27.965,18.52c0,0,0.003,12.068,0.003,12.473c0,0.487,0.128,0.98,0.27,1.453
			c-0.403,0-2,0-2.404,0c0.142-0.473,0.271-0.966,0.271-1.453c0-0.404,0.001-7.18,0.001-7.18l-4.683,6.514l-4.625-6.527
			c0,0,0.002,6.789,0.002,7.193c0,0.487,0.13,0.98,0.271,1.453c-0.405,0-2,0-2.404,0c0.142-0.473,0.271-0.966,0.271-1.453
			c0-0.404,0-12.466,0-12.466l6.499,8.885L27.965,18.52"/>
		<path clip-path="url(#SVGID_2_)" fill="#231F1F" d="M56.264,18.52c0,0,0.002,12.068,0.002,12.473c0,0.487,0.129,0.98,0.271,1.453
			c-0.405,0-2,0-2.404,0c0.141-0.473,0.271-0.966,0.271-1.453c0-0.404,0.001-7.18,0.001-7.18l-4.683,6.514l-4.624-6.527
			c0,0,0.001,6.789,0.001,7.193c0,0.487,0.13,0.98,0.271,1.453c-0.404,0-2,0-2.403,0c0.141-0.473,0.271-0.966,0.271-1.453
			c0-0.404,0.001-12.466,0.001-12.466l6.499,8.885L56.264,18.52"/>
		<path clip-path="url(#SVGID_2_)" fill="#231F1F" d="M30.75,32.427c0.141-0.473,0.271-0.964,0.271-1.452c0-0.404,0-10.367,0-10.771
			c0-0.488-0.13-0.979-0.271-1.453c0.404,0,9.785,0,9.785,0c0,0.404,0,1.547,0,1.952c-0.474-0.143-0.964-0.271-1.452-0.271
			c-0.404,0-6.2-0.002-6.2-0.002c0,0.404,0,3.665,0,4.069c0,0,4.911-0.002,5.314-0.002c0.489,0,0.98-0.129,1.453-0.27
			c0,0.404,0,1.757,0,2.16c-0.473-0.142-0.964-0.271-1.453-0.271c-0.403,0-5.314-0.001-5.314-0.001c0,0.404,0,4.6,0,4.6
			s5.768-0.003,6.172-0.003c0.488,0,0.979-0.129,1.453-0.271c0,0.405,0,1.597,0,2.001C40.508,32.442,31.154,32.427,30.75,32.427"/>
		<path clip-path="url(#SVGID_2_)" fill="#231F1F" d="M82.611,20.222c0-0.488,0.13-0.979,0.271-1.453c-0.404,0-1.999,0-2.403,0
			c0.141,0.475,0.271,0.965,0.271,1.453c0,0.172,0,2.071,0,4.229h-7.198c0-2.157,0-4.057,0-4.229c0-0.488,0.128-0.979,0.27-1.453
			c-0.404,0-2,0-2.404,0c0.143,0.475,0.271,0.965,0.271,1.453c0,0.404,0,10.366,0,10.771c0,0.487-0.128,0.98-0.271,1.453
			c0.404,0,2,0,2.404,0c-0.142-0.473-0.27-0.966-0.27-1.453c0-0.187,0-2.419,0-4.803h7.198c0,2.384,0,4.616,0,4.803
			c0,0.487-0.13,0.98-0.271,1.453c0.405,0,2,0,2.404,0c-0.141-0.473-0.271-0.966-0.271-1.453
			C82.611,30.588,82.611,20.626,82.611,20.222"/>
		<path clip-path="url(#SVGID_2_)" fill="#231F1F" d="M61.094,27.369c0,0.403,0,3.219,0,3.623c0,0.487,0.129,0.98,0.271,1.453
			c-0.404,0-2,0-2.404,0c0.141-0.473,0.271-0.966,0.271-1.453c0-0.404,0-10.366,0-10.771c0-0.488-0.13-0.979-0.271-1.453
			c0.404,0,3.473-0.006,4.485-0.006c3.516,0,6.212,1.306,6.212,4.254c0,2.967-2.614,4.355-5.359,4.355
			C63.022,27.372,61.094,27.369,61.094,27.369 M63.975,25.77c1.839,0,3.909-0.746,3.909-2.651c0-1.96-1.731-2.76-4.132-2.76
			c-0.789,0-2.631,0.004-2.631,0.004v5.404C61.121,25.767,63.206,25.77,63.975,25.77z"/>
		<path clip-path="url(#SVGID_2_)" fill="#231F1F" d="M95.272,18.601c1.261,0,2.559,0.282,3.716,0.572
			c0.394,0.099,0.85,0.154,0.933,0.154c-0.19,0.394-0.694,1.541-0.92,1.934c-0.265-0.308-0.766-0.551-1.107-0.689
			c-0.637-0.258-1.686-0.394-2.598-0.394c-2.277,0-3.509,0.875-3.509,2.167c0,3.597,8.464,0.333,8.464,5.955
			c0,2.57-2.137,4.209-5.541,4.209c-1.463,0-3.233-0.401-4.004-0.733c-0.436-0.188-0.937-0.287-1.365-0.312
			c0.238-0.487,0.75-1.631,0.973-2.096c0.297,0.298,0.59,0.499,0.85,0.635c1.128,0.589,2.185,0.906,3.634,0.906
			c1.725,0,3.651-0.712,3.651-2.448c0-4.062-8.527-0.506-8.527-5.985C89.921,20.035,91.897,18.601,95.272,18.601"/>
		<path clip-path="url(#SVGID_2_)" fill-rule="evenodd" clip-rule="evenodd" fill="#231F1F" d="M101.652,31.847
			c-0.014-0.186-0.016-0.521-0.016-0.642c0.077,0.001,0.09,0,0.158-0.003c0.052,0.07,0.065,0.093,0.196,0.291
			c0.071,0.107,0.145,0.213,0.208,0.324c0.01,0.016,0.019,0.03,0.026,0.047l0.016,0.01c0.046-0.005,0.092-0.005,0.138-0.009
			c0.044-0.001,0.09-0.001,0.134-0.001l0.009-0.022c-0.137-0.181-0.167-0.224-0.234-0.32c-0.039-0.057-0.21-0.306-0.247-0.356
			c0.28-0.077,0.374-0.254,0.374-0.429c0-0.211-0.107-0.33-0.275-0.388c-0.108-0.038-0.224-0.038-0.344-0.038l-0.134,0.003
			c-0.075,0-0.182,0.002-0.221,0.002h-0.056l-0.013,0.016c0.013,0.219,0.021,0.392,0.021,0.882c0,0.213-0.002,0.427-0.009,0.64
			l0.014,0.017c0.113-0.008,0.116-0.008,0.24-0.008L101.652,31.847 M101.632,31.024c-0.002-0.242-0.002-0.277,0-0.531
			c0.075-0.003,0.114-0.003,0.144-0.003c0.164,0,0.281,0.007,0.352,0.114c0.031,0.05,0.042,0.105,0.042,0.151
			c0,0.07-0.029,0.138-0.083,0.184C101.98,31.031,101.799,31.027,101.632,31.024z"/>
		<path clip-path="url(#SVGID_2_)" fill="#231F1F" d="M101.829,29.766c0.73,0,1.322,0.593,1.322,1.322
			c0,0.731-0.592,1.323-1.322,1.323c-0.732,0-1.324-0.592-1.324-1.323C100.505,30.358,101.097,29.766,101.829,29.766
			 M101.829,29.877c-0.67,0-1.213,0.542-1.213,1.211s0.543,1.212,1.213,1.212c0.668,0,1.21-0.543,1.21-1.212
			S102.497,29.877,101.829,29.877z"/>
		<path clip-path="url(#SVGID_2_)" fill="#8D959B" d="M18.062,41.617c-0.023,0.287-0.029,0.373-0.042,0.606l-0.036,0.043
			c-0.152,0.08-0.535,0.27-1.149,0.27c-1.33,0-2.113-0.89-2.113-2.258c0-0.3,0.023-1.043,0.552-1.625
			c0.517-0.571,1.173-0.634,1.604-0.634c0.56,0,0.911,0.123,1.112,0.197l0.023,0.049c-0.029,0.221-0.036,0.282-0.054,0.547
			l-0.055,0.023c-0.122-0.079-0.432-0.275-0.967-0.275c-0.972,0-1.501,0.675-1.501,1.705c0,1.16,0.626,1.7,1.465,1.7
			c0.571,0,0.93-0.239,1.118-0.374L18.062,41.617"/>
		<path clip-path="url(#SVGID_2_)" fill="#8D959B" d="M21.161,41.696c-0.031,0.245-0.037,0.307-0.05,0.545l-0.036,0.043
			c-0.103,0.056-0.431,0.234-0.972,0.234c-0.997,0-1.622-0.577-1.622-1.645c0-1.142,0.681-1.7,1.477-1.7
			c0.479,0,0.814,0.203,0.996,0.424c0.347,0.416,0.335,1.025,0.328,1.295l-0.042,0.036c-0.949-0.006-1.113-0.006-2.108,0
			c0.006,0.215,0.023,0.516,0.23,0.768c0.249,0.3,0.596,0.332,0.783,0.332c0.177,0,0.359-0.032,0.529-0.093
			c0.226-0.093,0.358-0.203,0.437-0.271L21.161,41.696 M20.595,40.094c-0.121-0.337-0.389-0.479-0.662-0.479
			c-0.34,0-0.74,0.233-0.801,0.848c0.734,0.006,0.965,0,1.525-0.007C20.65,40.371,20.645,40.235,20.595,40.094z"/>
		<path clip-path="url(#SVGID_2_)" fill="#8D959B" d="M24.624,42.438c-0.292,0.006-0.327,0.006-0.607,0.024l-0.042-0.043
			c0-0.067,0.005-0.136,0.005-0.202c0.007-0.301,0.007-0.601,0.007-0.902c0-0.944-0.007-1.006-0.037-1.136
			c-0.115-0.466-0.462-0.466-0.546-0.466c-0.365,0-0.645,0.215-0.808,0.344c-0.007,1.068,0.005,1.626,0.048,2.344l-0.037,0.037
			c-0.298,0.006-0.346,0.006-0.638,0.024l-0.03-0.043c0.006-0.344,0.019-0.676,0.019-1.129c0-0.981-0.043-1.503-0.073-1.914
			l0.036-0.044c0.304-0.055,0.358-0.067,0.645-0.122l0.042,0.043l-0.006,0.318c0.158-0.11,0.534-0.381,1.068-0.381
			c0.153,0,0.341,0.025,0.505,0.117c0.158,0.092,0.286,0.233,0.353,0.399c0.08,0.184,0.086,0.367,0.092,0.748v0.718
			c0.019,0.718,0.023,0.994,0.042,1.228L24.624,42.438"/>
		<path clip-path="url(#SVGID_2_)" fill="#8D959B" d="M26.865,41.96c-0.018,0.202-0.018,0.245-0.024,0.423l-0.029,0.037
			c-0.128,0.03-0.231,0.055-0.456,0.055c-0.146,0-0.528,0-0.717-0.319c-0.109-0.177-0.109-0.325-0.109-1.048l0.013-1.351
			c-0.213,0-0.22,0.006-0.438,0.012l-0.025-0.036c0.013-0.196,0.013-0.245,0.013-0.441l0.036-0.037c0.135,0,0.213,0.006,0.414,0
			c-0.007-0.129-0.007-0.264-0.007-0.394c-0.006-0.116-0.012-0.232-0.018-0.35l0.029-0.042c0.273-0.067,0.341-0.087,0.621-0.173
			l0.041,0.031c-0.018,0.405-0.023,0.485-0.023,0.933c0.255-0.006,0.328-0.006,0.674-0.019l0.031,0.037
			c-0.013,0.159-0.019,0.228-0.019,0.436l-0.031,0.036c-0.304-0.006-0.34-0.012-0.661-0.012l-0.012,1.142
			c0.006,0.074,0.006,0.424,0.006,0.509c0,0.448,0.054,0.59,0.357,0.59c0.128,0,0.226-0.031,0.293-0.056L26.865,41.96"/>
		<path clip-path="url(#SVGID_2_)" fill="#8D959B" d="M29.897,41.696c-0.03,0.245-0.036,0.307-0.049,0.545l-0.035,0.043
			c-0.104,0.056-0.433,0.234-0.973,0.234c-0.997,0-1.622-0.577-1.622-1.645c0-1.142,0.68-1.7,1.476-1.7
			c0.48,0,0.814,0.203,0.997,0.424c0.347,0.416,0.334,1.025,0.328,1.295l-0.043,0.036c-0.947-0.006-1.112-0.006-2.107,0
			c0.006,0.215,0.023,0.516,0.23,0.768c0.249,0.3,0.595,0.332,0.783,0.332c0.177,0,0.358-0.032,0.529-0.093
			c0.225-0.093,0.358-0.203,0.437-0.271L29.897,41.696 M29.332,40.094c-0.121-0.337-0.389-0.479-0.662-0.479
			c-0.34,0-0.74,0.233-0.801,0.848c0.734,0.006,0.966,0,1.524-0.007C29.388,40.371,29.381,40.235,29.332,40.094z"/>
		<path clip-path="url(#SVGID_2_)" fill="#8D959B" d="M32.085,39.892c-0.061-0.024-0.14-0.055-0.242-0.055
			c-0.116,0-0.2,0.043-0.256,0.079c-0.249,0.178-0.249,0.448-0.249,1.087c0,0.693,0.018,1.055,0.043,1.398l-0.03,0.043
			c-0.286,0-0.354,0.006-0.645,0.019l-0.031-0.036c0.008-0.467,0.014-0.89,0.014-1.461c0-0.982-0.019-1.233-0.056-1.589l0.037-0.044
			c0.229-0.042,0.376-0.073,0.632-0.122l0.036,0.036l-0.03,0.521c0.073-0.196,0.225-0.589,0.741-0.589
			c0.079,0,0.121,0.007,0.171,0.019l0.023,0.037c-0.061,0.294-0.073,0.355-0.115,0.626L32.085,39.892"/>
		<path clip-path="url(#SVGID_2_)" fill="#8D959B" d="M35.189,42.444c-0.278,0-0.334,0-0.655,0.019l-0.03-0.043
			c0.03-0.644,0.03-1.307,0.03-1.957c0-0.325,0-0.437-0.007-0.706c-0.151,0.006-0.304,0.006-0.425,0.006l-0.036-0.036
			c0.011-0.172,0.018-0.233,0.023-0.442l0.037-0.037c0.183,0.007,0.304,0.013,0.389,0.013l-0.007-0.405c0-0.307,0-0.38,0.019-0.491
			c0.141-0.711,0.894-0.711,1.063-0.711c0.092,0,0.152,0.006,0.23,0.012l0.031,0.043c-0.024,0.172-0.031,0.251-0.043,0.442
			l-0.042,0.03c-0.056-0.013-0.097-0.024-0.164-0.024c-0.128,0-0.268,0.024-0.365,0.185c-0.097,0.153-0.097,0.324-0.091,0.735v0.185
			c0.013,0,0.541-0.013,0.603-0.013l0.029,0.037c-0.012,0.196-0.019,0.245-0.024,0.436l-0.036,0.037
			c-0.262-0.007-0.315-0.007-0.559-0.007c0,0.816,0.006,1.639,0.048,2.455c0,0.062,0.007,0.129,0.013,0.196L35.189,42.444"/>
		<path clip-path="url(#SVGID_2_)" fill="#8D959B" d="M39.036,41.396c-0.067,0.301-0.194,0.54-0.396,0.742
			c-0.267,0.27-0.625,0.375-1.051,0.375c-0.546,0-0.894-0.209-1.088-0.412c-0.413-0.423-0.419-1.049-0.419-1.252
			c0-0.232,0.012-0.835,0.419-1.246c0.171-0.177,0.522-0.429,1.131-0.429c0.413,0,0.82,0.135,1.087,0.441
			c0.28,0.325,0.359,0.756,0.371,1.185C39.091,41.008,39.079,41.211,39.036,41.396 M38.252,39.99c-0.115-0.19-0.31-0.35-0.65-0.35
			c-0.114,0-0.456,0.012-0.668,0.355c-0.164,0.251-0.182,0.607-0.182,0.865c0,0.246,0.005,0.865,0.486,1.11
			c0.108,0.057,0.236,0.08,0.358,0.08c0.225,0,0.517-0.073,0.692-0.411c0.14-0.275,0.146-0.687,0.14-0.816
			C38.429,40.671,38.404,40.26,38.252,39.99z"/>
		<path clip-path="url(#SVGID_2_)" fill="#8D959B" d="M41.199,39.892c-0.061-0.024-0.14-0.055-0.242-0.055
			c-0.117,0-0.201,0.043-0.256,0.079c-0.25,0.178-0.25,0.448-0.25,1.087c0,0.693,0.019,1.055,0.043,1.398l-0.03,0.043
			c-0.285,0-0.353,0.006-0.645,0.019l-0.029-0.036c0.006-0.467,0.012-0.89,0.012-1.461c0-0.982-0.019-1.233-0.055-1.589l0.036-0.044
			c0.23-0.042,0.377-0.073,0.632-0.122l0.036,0.036l-0.029,0.521c0.072-0.196,0.225-0.589,0.74-0.589
			c0.079,0,0.123,0.007,0.171,0.019l0.023,0.037c-0.06,0.294-0.071,0.355-0.115,0.626L41.199,39.892"/>
		<path clip-path="url(#SVGID_2_)" fill="#8D959B" d="M46.236,41.941c-0.018,0.208-0.018,0.252-0.03,0.46l-0.043,0.043
			c-1.185,0-1.373,0.006-2.528,0.019l-0.029-0.043c0.019-0.484,0.036-0.815,0.036-1.938c0-1.031,0-1.621-0.043-2.326l0.036-0.044
			c1.197-0.006,1.435-0.006,2.553-0.018l0.036,0.043c-0.018,0.185-0.03,0.258-0.042,0.479l-0.036,0.043
			c-0.784-0.024-1.046-0.024-1.817-0.03c-0.019,0.563-0.019,0.742-0.019,1.307c0.747,0.006,0.979,0,1.72-0.013l0.03,0.043
			c-0.023,0.215-0.023,0.276-0.03,0.473l-0.036,0.044c-0.705-0.019-0.857-0.019-1.684-0.019c-0.013,0.711-0.006,0.883,0,1.466
			c0.918,0,1.105,0,1.89-0.03L46.236,41.941"/>
		<path clip-path="url(#SVGID_2_)" fill="#8D959B" d="M49.195,41.181c0,0.761,0.006,0.828,0.036,1.227l-0.03,0.031
			c-0.285,0.006-0.334,0.012-0.614,0.024l-0.023-0.036l0.005-0.222c-0.115,0.092-0.389,0.313-0.85,0.313
			c-0.608,0-1.032-0.418-1.032-1.025c0-0.822,0.68-1.087,1.773-1.215l0.104-0.013c0-0.165,0-0.282-0.055-0.38
			c-0.061-0.11-0.201-0.227-0.505-0.227c-0.395,0-0.668,0.122-0.924,0.232l-0.049-0.03c0.013-0.282,0.013-0.319,0.019-0.449
			l0.037-0.035c0.34-0.123,0.692-0.203,1.051-0.203c0.449,0,0.888,0.153,1.015,0.632c0.043,0.173,0.043,0.509,0.043,0.768V41.181
			 M48.515,40.732c-0.613,0.092-1.185,0.178-1.185,0.725c0,0.03,0,0.558,0.577,0.558c0.376,0,0.595-0.208,0.661-0.271v-1.023
			L48.515,40.732z"/>
		<path clip-path="url(#SVGID_2_)" fill="#8D959B" d="M51.455,39.892c-0.061-0.024-0.14-0.055-0.243-0.055
			c-0.115,0-0.2,0.043-0.255,0.079c-0.249,0.178-0.249,0.448-0.249,1.087c0,0.693,0.019,1.055,0.042,1.398l-0.03,0.043
			c-0.285,0-0.352,0.006-0.644,0.019l-0.03-0.036c0.006-0.467,0.012-0.89,0.012-1.461c0-0.982-0.019-1.233-0.054-1.589l0.035-0.044
			c0.231-0.042,0.377-0.073,0.632-0.122l0.037,0.036l-0.03,0.521c0.072-0.196,0.226-0.589,0.741-0.589
			c0.079,0,0.121,0.007,0.17,0.019l0.024,0.037c-0.061,0.294-0.073,0.355-0.115,0.626L51.455,39.892"/>
		<path clip-path="url(#SVGID_2_)" fill="#8D959B" d="M53.582,41.96c-0.019,0.202-0.019,0.245-0.024,0.423l-0.03,0.037
			c-0.128,0.03-0.231,0.055-0.456,0.055c-0.146,0-0.528,0-0.717-0.319c-0.109-0.177-0.109-0.325-0.109-1.048l0.012-1.351
			c-0.213,0-0.218,0.006-0.437,0.012l-0.025-0.036c0.013-0.196,0.013-0.245,0.013-0.441l0.036-0.037c0.135,0,0.214,0.006,0.413,0
			c-0.006-0.129-0.006-0.264-0.006-0.394c-0.006-0.116-0.013-0.232-0.018-0.35l0.03-0.042c0.273-0.067,0.34-0.087,0.62-0.173
			l0.042,0.031c-0.019,0.405-0.024,0.485-0.024,0.933c0.255-0.006,0.328-0.006,0.675-0.019l0.03,0.037
			c-0.013,0.159-0.019,0.228-0.019,0.436l-0.03,0.036c-0.304-0.006-0.34-0.012-0.662-0.012l-0.012,1.142
			c0.005,0.074,0.005,0.424,0.005,0.509c0,0.448,0.056,0.59,0.359,0.59c0.128,0,0.224-0.031,0.291-0.056L53.582,41.96"/>
		<path clip-path="url(#SVGID_2_)" fill="#8D959B" d="M56.784,42.438c-0.292,0.006-0.328,0.006-0.607,0.024l-0.043-0.043
			l0.006-0.202c0.006-0.319,0.006-0.646,0.006-0.964l-0.006-0.657c0-0.141,0-0.282-0.03-0.417c-0.066-0.281-0.237-0.466-0.547-0.466
			c-0.347,0-0.613,0.196-0.814,0.344c-0.005,1.068,0.007,1.626,0.043,2.344l-0.03,0.037c-0.279,0.006-0.353,0.006-0.65,0.024
			l-0.03-0.043c0.013-0.437,0.03-0.988,0.03-2.167c0-0.515-0.006-1.03-0.012-1.546c-0.013-0.54-0.031-0.717-0.049-0.994l0.03-0.036
			c0.292-0.05,0.389-0.068,0.663-0.129l0.035,0.043c-0.035,0.655-0.035,1.318-0.035,1.981c0.194-0.129,0.576-0.381,1.086-0.381
			c0.141,0,0.28,0.02,0.408,0.074c0.272,0.111,0.437,0.332,0.498,0.583c0.031,0.123,0.031,0.196,0.042,0.607v0.718l0.007,0.288
			c0.012,0.517,0.012,0.602,0.036,0.939L56.784,42.438"/>
		<path clip-path="url(#SVGID_2_)" fill="#8D959B" d="M60.381,39.278c-0.036,0.815-0.042,1.626-0.042,2.442
			c0,0.639,0.006,1.276,0.03,1.92l0.012,0.265l-0.03,0.036l-0.626,0.019l-0.036-0.036c0.023-0.762,0.023-0.97,0.018-1.706
			c-0.151,0.104-0.437,0.301-0.887,0.301c-0.832,0-1.342-0.712-1.342-1.564c0-0.277,0.048-0.553,0.163-0.799
			c0.413-0.877,1.294-0.933,1.841-0.933c0.121,0,0.724,0.019,0.857,0.019L60.381,39.278 M59.7,39.727h-0.23
			c-0.194,0-0.65,0.006-0.967,0.294c-0.182,0.172-0.353,0.484-0.353,0.921c0,0.509,0.244,1.024,0.851,1.024
			c0.377,0,0.584-0.166,0.699-0.252V39.727z"/>
		<path clip-path="url(#SVGID_2_)" fill="#8D959B" d="M63.863,39.271c-0.013,0.467-0.019,0.901-0.019,1.399
			c0,0.755,0.019,1.209,0.029,1.473c0,0.086,0.007,0.172,0.013,0.258l-0.023,0.037c-0.293,0.006-0.341,0.012-0.621,0.024
			l-0.036-0.036l0.006-0.259c-0.134,0.099-0.456,0.351-0.954,0.351c-0.236,0-0.498-0.056-0.692-0.209
			c-0.389-0.319-0.389-0.841-0.395-1.32V40.61c-0.013-0.878-0.013-0.977-0.031-1.308l0.031-0.043c0.286-0.006,0.34-0.006,0.626-0.03
			l0.036,0.042l-0.024,1.345c0,0.166-0.007,0.288,0,0.583c0.006,0.258,0.019,0.81,0.632,0.81c0.358,0,0.613-0.202,0.76-0.318
			c0.006-0.332,0.006-0.614,0.006-0.97c0-0.854-0.006-1.025-0.042-1.424l0.036-0.043c0.28-0.007,0.347-0.007,0.625-0.024
			L63.863,39.271"/>
		<path clip-path="url(#SVGID_2_)" fill="#8D959B" d="M67.04,41.181c0,0.761,0.006,0.828,0.036,1.227l-0.03,0.031
			c-0.285,0.006-0.334,0.012-0.614,0.024l-0.022-0.036l0.005-0.222c-0.115,0.092-0.389,0.313-0.85,0.313
			c-0.608,0-1.033-0.418-1.033-1.025c0-0.822,0.68-1.087,1.773-1.215l0.104-0.013c0-0.165,0-0.282-0.056-0.38
			c-0.061-0.11-0.201-0.227-0.505-0.227c-0.395,0-0.668,0.122-0.923,0.232l-0.049-0.03c0.013-0.282,0.013-0.319,0.019-0.449
			l0.036-0.035c0.34-0.123,0.693-0.203,1.051-0.203c0.449,0,0.888,0.153,1.015,0.632c0.043,0.173,0.043,0.509,0.043,0.768V41.181
			 M66.36,40.732c-0.614,0.092-1.186,0.178-1.186,0.725c0,0.03,0,0.558,0.577,0.558c0.377,0,0.595-0.208,0.662-0.271v-1.023
			L66.36,40.732z"/>
		<path clip-path="url(#SVGID_2_)" fill="#8D959B" d="M70.51,42.438h-0.262c-0.146,0-0.285,0.006-0.468,0.024l-0.048-0.036
			c-0.322-0.547-0.937-1.438-1.204-1.816l0.013,0.755c0.006,0.563,0.023,0.81,0.036,1.036l-0.03,0.043
			c-0.31,0.006-0.353,0.006-0.632,0.019l-0.036-0.036c0.012-0.394,0.024-0.829,0.024-1.73c0-0.319,0-0.645-0.006-0.964
			c0-1.136-0.019-1.449-0.062-2.013l0.036-0.043c0.28-0.05,0.341-0.062,0.65-0.123l0.042,0.037
			c-0.018,0.632-0.029,0.926-0.029,1.718v1.27c0.347-0.423,0.698-0.84,1.021-1.287l0.055-0.037c0.183-0.007,0.341-0.007,0.668-0.019
			l0.019,0.056c-0.535,0.607-0.614,0.705-1.07,1.239c0.572,0.828,0.718,1.037,1.308,1.847L70.51,42.438"/>
		<path clip-path="url(#SVGID_2_)" fill="#8D959B" d="M73.445,41.696c-0.031,0.245-0.038,0.307-0.049,0.545l-0.037,0.043
			c-0.104,0.056-0.432,0.234-0.972,0.234c-0.997,0-1.623-0.577-1.623-1.645c0-1.142,0.681-1.7,1.477-1.7
			c0.479,0,0.814,0.203,0.996,0.424c0.346,0.416,0.335,1.025,0.329,1.295l-0.043,0.036c-0.948-0.006-1.112-0.006-2.108,0
			c0.006,0.215,0.024,0.516,0.23,0.768c0.249,0.3,0.596,0.332,0.783,0.332c0.177,0,0.359-0.032,0.529-0.093
			c0.226-0.093,0.359-0.203,0.438-0.271L73.445,41.696 M72.88,40.094c-0.122-0.337-0.39-0.479-0.663-0.479
			c-0.34,0-0.741,0.233-0.802,0.848c0.735,0.006,0.966,0,1.525-0.007C72.934,40.371,72.928,40.235,72.88,40.094z"/>
		<path clip-path="url(#SVGID_2_)" fill="#8D959B" d="M76.744,42.444c-0.348,0-0.354,0-0.669,0.019l-0.037-0.043
			c0.019-0.596,0.025-1.196,0.025-1.792c0-1.374-0.025-1.859-0.062-2.473l0.036-0.044h0.152c0.109,0,0.407-0.006,0.614-0.006
			l0.369-0.005c0.335,0,0.657,0,0.955,0.104c0.468,0.159,0.767,0.497,0.767,1.087c0,0.49-0.262,0.987-1.04,1.202
			c0.104,0.142,0.577,0.841,0.687,1c0.188,0.271,0.273,0.394,0.649,0.896l-0.023,0.061c-0.122,0-0.25,0-0.371,0.007
			c-0.127,0.006-0.255,0.012-0.383,0.024l-0.042-0.031c-0.024-0.043-0.049-0.085-0.073-0.129c-0.176-0.312-0.383-0.607-0.577-0.908
			c-0.364-0.558-0.4-0.619-0.548-0.816c-0.188,0.007-0.224,0.014-0.437,0.007c0,0.338,0.007,1.283,0.042,1.798L76.744,42.444
			 M77.983,39.861c0.152-0.129,0.23-0.319,0.23-0.516c0-0.129-0.03-0.282-0.115-0.423c-0.194-0.302-0.522-0.319-0.979-0.319
			c-0.079,0-0.188,0-0.396,0.005c-0.006,0.713-0.006,0.811,0,1.492C77.187,40.106,77.691,40.119,77.983,39.861z"/>
		<path clip-path="url(#SVGID_2_)" fill="#8D959B" d="M82.182,41.696c-0.03,0.245-0.036,0.307-0.049,0.545l-0.036,0.043
			c-0.104,0.056-0.432,0.234-0.973,0.234c-0.996,0-1.622-0.577-1.622-1.645c0-1.142,0.681-1.7,1.477-1.7
			c0.479,0,0.814,0.203,0.996,0.424c0.347,0.416,0.335,1.025,0.328,1.295l-0.042,0.036c-0.948-0.006-1.112-0.006-2.108,0
			c0.006,0.215,0.024,0.516,0.231,0.768c0.248,0.3,0.595,0.332,0.783,0.332c0.176,0,0.358-0.032,0.529-0.093
			c0.224-0.093,0.357-0.203,0.437-0.271L82.182,41.696 M81.616,40.094c-0.121-0.337-0.389-0.479-0.662-0.479
			c-0.341,0-0.741,0.233-0.802,0.848c0.735,0.006,0.966,0,1.524-0.007C81.671,40.371,81.665,40.235,81.616,40.094z"/>
		<path clip-path="url(#SVGID_2_)" fill="#8D959B" d="M84.235,40.578c0.243,0.08,0.796,0.271,0.796,0.921
			c0,0.245-0.091,0.522-0.34,0.725c-0.322,0.276-0.754,0.295-0.973,0.295c-0.328,0-0.602-0.062-0.832-0.153
			c-0.03-0.013-0.061-0.025-0.091-0.038l-0.031-0.054c0.024-0.24,0.024-0.271,0.036-0.517l0.062-0.019
			c0.109,0.086,0.376,0.295,0.845,0.295c0.48,0,0.656-0.27,0.656-0.461c0-0.281-0.262-0.373-0.632-0.496l-0.194-0.068
			c-0.25-0.079-0.796-0.257-0.796-0.889s0.546-0.945,1.227-0.945c0.449,0,0.766,0.129,0.875,0.172l0.03,0.043
			c-0.024,0.227-0.03,0.252-0.049,0.484l-0.054,0.025c-0.152-0.099-0.389-0.246-0.784-0.246c-0.085,0-0.171,0.007-0.262,0.03
			c-0.183,0.05-0.334,0.179-0.334,0.369c0,0.263,0.249,0.344,0.626,0.46L84.235,40.578"/>
		<path clip-path="url(#SVGID_2_)" fill="#8D959B" d="M88.13,41.696c-0.03,0.245-0.037,0.307-0.049,0.545l-0.037,0.043
			c-0.102,0.056-0.43,0.234-0.972,0.234c-0.995,0-1.622-0.577-1.622-1.645c0-1.142,0.681-1.7,1.477-1.7
			c0.48,0,0.814,0.203,0.996,0.424c0.347,0.416,0.335,1.025,0.328,1.295l-0.042,0.036c-0.947-0.006-1.112-0.006-2.108,0
			c0.006,0.215,0.024,0.516,0.23,0.768c0.25,0.3,0.596,0.332,0.785,0.332c0.176,0,0.357-0.032,0.527-0.093
			c0.226-0.093,0.359-0.203,0.438-0.271L88.13,41.696 M87.565,40.094c-0.122-0.337-0.389-0.479-0.662-0.479
			c-0.341,0-0.742,0.233-0.803,0.848c0.735,0.006,0.966,0,1.525-0.007C87.619,40.371,87.614,40.235,87.565,40.094z"/>
		<path clip-path="url(#SVGID_2_)" fill="#8D959B" d="M91.223,41.181c0,0.761,0.006,0.828,0.037,1.227l-0.031,0.031
			c-0.285,0.006-0.334,0.012-0.613,0.024l-0.024-0.036l0.006-0.222c-0.115,0.092-0.389,0.313-0.851,0.313
			c-0.607,0-1.032-0.418-1.032-1.025c0-0.822,0.68-1.087,1.773-1.215l0.104-0.013c0-0.165,0-0.282-0.055-0.38
			c-0.061-0.11-0.201-0.227-0.505-0.227c-0.394,0-0.668,0.122-0.923,0.232l-0.049-0.03c0.013-0.282,0.013-0.319,0.018-0.449
			l0.037-0.035c0.34-0.123,0.692-0.203,1.051-0.203c0.45,0,0.888,0.153,1.015,0.632c0.043,0.173,0.043,0.509,0.043,0.768V41.181
			 M90.542,40.732c-0.614,0.092-1.185,0.178-1.185,0.725c0,0.03,0,0.558,0.576,0.558c0.378,0,0.597-0.208,0.663-0.271v-1.023
			L90.542,40.732z"/>
		<path clip-path="url(#SVGID_2_)" fill="#8D959B" d="M93.483,39.892c-0.061-0.024-0.14-0.055-0.243-0.055
			c-0.116,0-0.201,0.043-0.256,0.079c-0.249,0.178-0.249,0.448-0.249,1.087c0,0.693,0.019,1.055,0.043,1.398l-0.03,0.043
			c-0.286,0-0.354,0.006-0.645,0.019l-0.031-0.036c0.007-0.467,0.013-0.89,0.013-1.461c0-0.982-0.018-1.233-0.055-1.589l0.037-0.044
			c0.23-0.042,0.377-0.073,0.632-0.122l0.036,0.036l-0.03,0.521c0.073-0.196,0.225-0.589,0.741-0.589
			c0.079,0,0.122,0.007,0.171,0.019l0.023,0.037c-0.062,0.294-0.072,0.355-0.115,0.626L93.483,39.892"/>
		<path clip-path="url(#SVGID_2_)" fill="#8D959B" d="M96.375,41.714c-0.024,0.265-0.03,0.295-0.049,0.547l-0.042,0.043
			c-0.177,0.086-0.413,0.209-0.839,0.209c-0.918,0-1.513-0.67-1.513-1.627c0-0.976,0.584-1.712,1.524-1.712
			c0.396,0,0.675,0.129,0.833,0.196l0.024,0.042c-0.024,0.222-0.03,0.302-0.042,0.486l-0.049,0.023
			c-0.201-0.146-0.433-0.239-0.675-0.239c-0.504,0-0.948,0.393-0.948,1.179c0,0.835,0.468,1.135,0.942,1.135
			c0.413,0,0.668-0.215,0.783-0.306L96.375,41.714"/>
		<path clip-path="url(#SVGID_2_)" fill="#8D959B" d="M99.564,42.438c-0.291,0.006-0.328,0.006-0.606,0.024l-0.044-0.043
			l0.007-0.202c0.006-0.319,0.006-0.646,0.006-0.964l-0.006-0.657c0-0.141,0-0.282-0.03-0.417c-0.066-0.281-0.237-0.466-0.547-0.466
			c-0.347,0-0.614,0.196-0.814,0.344c-0.006,1.068,0.006,1.626,0.043,2.344l-0.031,0.037c-0.279,0.006-0.352,0.006-0.649,0.024
			l-0.03-0.043c0.012-0.437,0.03-0.988,0.03-2.167c0-0.515-0.006-1.03-0.013-1.546c-0.012-0.54-0.03-0.717-0.049-0.994l0.031-0.036
			c0.291-0.05,0.389-0.068,0.662-0.129l0.036,0.043c-0.036,0.655-0.036,1.318-0.036,1.981c0.194-0.129,0.578-0.381,1.088-0.381
			c0.14,0,0.279,0.02,0.407,0.074c0.273,0.111,0.438,0.332,0.498,0.583c0.03,0.123,0.03,0.196,0.042,0.607v0.718l0.006,0.288
			c0.013,0.517,0.013,0.602,0.038,0.939L99.564,42.438"/>
		<path clip-path="url(#SVGID_2_)" fill="#8D959B" d="M17.162,47.624c0,0.761,0.007,0.828,0.037,1.228l-0.03,0.031
			c-0.286,0.005-0.335,0.012-0.614,0.023l-0.023-0.036l0.006-0.222c-0.116,0.094-0.39,0.313-0.851,0.313
			c-0.608,0-1.033-0.417-1.033-1.024c0-0.822,0.681-1.086,1.774-1.216l0.104-0.013c0-0.165,0-0.281-0.055-0.379
			c-0.061-0.111-0.201-0.228-0.505-0.228c-0.395,0-0.668,0.122-0.924,0.233l-0.049-0.031c0.013-0.282,0.013-0.319,0.019-0.447
			l0.037-0.037c0.34-0.123,0.692-0.202,1.051-0.202c0.449,0,0.887,0.152,1.015,0.632c0.042,0.172,0.042,0.509,0.042,0.767V47.624
			 M16.482,47.177c-0.614,0.092-1.185,0.178-1.185,0.724c0,0.03,0,0.559,0.577,0.559c0.376,0,0.595-0.209,0.662-0.27v-1.025
			L16.482,47.177z"/>
		<path clip-path="url(#SVGID_2_)" fill="#8D959B" d="M20.699,48.883c-0.292,0.005-0.328,0.005-0.607,0.023l-0.043-0.043
			c0-0.066,0.006-0.135,0.006-0.202c0.006-0.301,0.006-0.601,0.006-0.902c0-0.944-0.006-1.006-0.036-1.135
			c-0.115-0.466-0.462-0.466-0.547-0.466c-0.364,0-0.645,0.214-0.809,0.344c-0.006,1.067,0.007,1.625,0.049,2.344l-0.036,0.037
			c-0.298,0.005-0.347,0.005-0.639,0.023l-0.03-0.043c0.007-0.344,0.02-0.674,0.02-1.129c0-0.981-0.043-1.503-0.073-1.914
			l0.035-0.043c0.305-0.056,0.359-0.067,0.645-0.123l0.043,0.043l-0.006,0.319c0.157-0.11,0.535-0.381,1.069-0.381
			c0.151,0,0.34,0.025,0.505,0.116c0.157,0.093,0.284,0.233,0.351,0.399c0.08,0.185,0.086,0.368,0.092,0.749v0.718
			c0.019,0.718,0.025,0.994,0.043,1.228L20.699,48.883"/>
		<path clip-path="url(#SVGID_2_)" fill="#8D959B" d="M23.585,44.12c0.311-0.056,0.371-0.067,0.645-0.129l0.042,0.037
			c-0.042,0.853-0.049,2.375-0.049,2.988c0,0.951,0.024,1.405,0.049,1.829l-0.03,0.042c-0.267,0-0.34,0.007-0.62,0.019l-0.042-0.036
			l0.012-0.227c-0.146,0.109-0.395,0.306-0.839,0.306c-0.808,0-1.366-0.644-1.366-1.577c0-0.668,0.279-1.092,0.534-1.319
			c0.443-0.404,1.021-0.423,1.337-0.423c0.128,0,0.188,0,0.353,0.012c0.006-0.761-0.024-1.128-0.055-1.485L23.585,44.12
			 M23.591,46.139c-0.104-0.006-0.177-0.018-0.304-0.018c-0.188,0-0.59,0.012-0.881,0.288c-0.134,0.128-0.353,0.417-0.353,0.963
			c0,0.351,0.097,0.603,0.225,0.755c0.109,0.129,0.31,0.276,0.626,0.276c0.371,0,0.597-0.196,0.681-0.27
			C23.597,47.329,23.597,47.146,23.591,46.139z"/>
		<path clip-path="url(#SVGID_2_)" fill="#8D959B" d="M27.631,44.58c-0.017,0.411-0.03,0.896-0.03,1.952
			c0,1.178,0.014,1.682,0.049,2.313l-0.035,0.042c-0.268,0.007-0.354,0.007-0.676,0.019l-0.036-0.043
			c0.013-0.373,0.024-0.699,0.024-1.491c0-0.926,0-1.846-0.042-2.767l0.03-0.05c0.267,0,0.364,0,0.674-0.018L27.631,44.58"/>
		<path clip-path="url(#SVGID_2_)" fill="#8D959B" d="M31.204,48.883c-0.291,0.005-0.328,0.005-0.607,0.023l-0.043-0.043
			c0-0.066,0.006-0.135,0.006-0.202c0.006-0.301,0.006-0.601,0.006-0.902c0-0.944-0.006-1.006-0.035-1.135
			c-0.116-0.466-0.462-0.466-0.548-0.466c-0.363,0-0.644,0.214-0.808,0.344c-0.006,1.067,0.006,1.625,0.049,2.344l-0.037,0.037
			c-0.297,0.005-0.346,0.005-0.638,0.023l-0.029-0.043c0.005-0.344,0.018-0.674,0.018-1.129c0-0.981-0.043-1.503-0.073-1.914
			l0.036-0.043c0.304-0.056,0.359-0.067,0.645-0.123l0.042,0.043l-0.006,0.319c0.158-0.11,0.535-0.381,1.069-0.381
			c0.152,0,0.341,0.025,0.504,0.116c0.159,0.093,0.286,0.233,0.354,0.399c0.079,0.185,0.084,0.368,0.091,0.749v0.718
			c0.018,0.718,0.023,0.994,0.043,1.228L31.204,48.883"/>
		<path clip-path="url(#SVGID_2_)" fill="#8D959B" d="M32.777,48.888c-0.279,0-0.334,0-0.656,0.019l-0.029-0.043
			c0.029-0.644,0.029-1.307,0.029-1.957c0-0.324,0-0.436-0.006-0.705c-0.151,0.005-0.304,0.005-0.425,0.005l-0.036-0.035
			c0.012-0.172,0.018-0.234,0.023-0.443l0.037-0.036c0.183,0.006,0.304,0.012,0.389,0.012l-0.006-0.405c0-0.307,0-0.38,0.018-0.49
			c0.141-0.712,0.894-0.712,1.063-0.712c0.092,0,0.152,0.007,0.23,0.013l0.03,0.043c-0.023,0.171-0.03,0.251-0.041,0.441
			l-0.043,0.03c-0.056-0.012-0.098-0.024-0.164-0.024c-0.128,0-0.268,0.024-0.365,0.185c-0.097,0.153-0.097,0.325-0.091,0.736v0.184
			c0.012,0,0.541-0.012,0.602-0.012l0.03,0.036c-0.012,0.197-0.019,0.246-0.024,0.437l-0.036,0.037
			c-0.262-0.007-0.316-0.007-0.56-0.007c0,0.815,0.007,1.638,0.049,2.454c0,0.062,0.007,0.129,0.013,0.197L32.777,48.888"/>
		<path clip-path="url(#SVGID_2_)" fill="#8D959B" d="M36.624,47.84c-0.067,0.3-0.195,0.539-0.395,0.742
			c-0.268,0.27-0.626,0.374-1.052,0.374c-0.547,0-0.894-0.209-1.088-0.411c-0.413-0.424-0.419-1.049-0.419-1.253
			c0-0.232,0.012-0.834,0.419-1.245c0.171-0.178,0.522-0.429,1.131-0.429c0.412,0,0.82,0.134,1.087,0.441
			c0.28,0.324,0.358,0.755,0.371,1.185C36.679,47.452,36.666,47.655,36.624,47.84 M35.84,46.434c-0.115-0.189-0.31-0.35-0.65-0.35
			c-0.115,0-0.456,0.012-0.667,0.356c-0.165,0.251-0.183,0.606-0.183,0.865c0,0.245,0.005,0.865,0.486,1.11
			c0.108,0.056,0.235,0.079,0.357,0.079c0.226,0,0.517-0.073,0.693-0.411c0.139-0.275,0.146-0.687,0.139-0.815
			C36.016,47.115,35.992,46.704,35.84,46.434z"/>
		<path clip-path="url(#SVGID_2_)" fill="#8D959B" d="M38.787,46.336c-0.061-0.024-0.14-0.056-0.243-0.056
			c-0.115,0-0.2,0.043-0.255,0.08c-0.25,0.177-0.25,0.447-0.25,1.086c0,0.693,0.019,1.056,0.044,1.399l-0.032,0.042
			c-0.285,0-0.352,0.007-0.644,0.019l-0.029-0.036c0.006-0.467,0.012-0.89,0.012-1.461c0-0.981-0.019-1.233-0.055-1.589l0.036-0.043
			c0.23-0.043,0.377-0.074,0.632-0.123l0.036,0.037l-0.029,0.521c0.073-0.196,0.225-0.59,0.74-0.59c0.079,0,0.123,0.007,0.171,0.019
			l0.024,0.038c-0.062,0.294-0.072,0.354-0.116,0.625L38.787,46.336"/>
		<path clip-path="url(#SVGID_2_)" fill="#8D959B" d="M39.389,45.777c0.31-0.05,0.474-0.086,0.65-0.123l0.036,0.043l-0.019,0.313
			c0.213-0.153,0.554-0.393,1.027-0.393c0.522,0,0.698,0.301,0.784,0.441c0.146-0.11,0.595-0.441,1.166-0.441
			c0.225,0,0.479,0.073,0.65,0.244c0.285,0.276,0.291,0.51,0.291,1.038v0.521c0,0.7,0.007,0.872,0.037,1.425l-0.037,0.042
			c-0.291,0-0.34,0.007-0.619,0.019L43.32,48.87c0.012-0.51,0.018-1.067,0.018-1.564c0-0.388,0-0.522-0.03-0.663
			c-0.055-0.265-0.194-0.479-0.534-0.479c-0.153,0-0.443,0.042-0.777,0.312c0.018,0.129,0.023,0.57,0.023,0.749v0.351
			c0,0.624,0.006,0.84,0.036,1.27l-0.03,0.042c-0.316,0-0.352,0.007-0.638,0.019l-0.037-0.036c0.024-0.553,0.031-1.259,0.031-1.645
			c0-0.308,0-0.46-0.043-0.626c-0.049-0.196-0.151-0.441-0.51-0.441c-0.219,0-0.48,0.086-0.767,0.312v1.049
			c0,0.681,0.019,0.982,0.043,1.326l-0.036,0.042c-0.316,0-0.34,0-0.632,0.019L39.4,48.87c0.012-0.246,0.024-0.596,0.024-1.228
			c0-1.153-0.03-1.54-0.066-1.822L39.389,45.777"/>
		<path clip-path="url(#SVGID_2_)" fill="#8D959B" d="M47.159,47.624c0,0.761,0.007,0.828,0.037,1.228l-0.03,0.031
			c-0.285,0.005-0.334,0.012-0.613,0.023l-0.025-0.036l0.007-0.222c-0.115,0.094-0.389,0.313-0.851,0.313
			c-0.608,0-1.033-0.417-1.033-1.024c0-0.822,0.68-1.086,1.774-1.216l0.103-0.013c0-0.165,0-0.281-0.054-0.379
			c-0.061-0.111-0.201-0.228-0.505-0.228c-0.396,0-0.668,0.122-0.924,0.233l-0.049-0.031c0.013-0.282,0.013-0.319,0.019-0.447
			l0.037-0.037c0.34-0.123,0.692-0.202,1.051-0.202c0.45,0,0.887,0.152,1.015,0.632c0.042,0.172,0.042,0.509,0.042,0.767V47.624
			 M46.479,47.177c-0.615,0.092-1.186,0.178-1.186,0.724c0,0.03,0,0.559,0.577,0.559c0.378,0,0.596-0.209,0.663-0.27v-1.025
			L46.479,47.177z"/>
		<path clip-path="url(#SVGID_2_)" fill="#8D959B" d="M49.396,48.403c-0.019,0.202-0.019,0.245-0.023,0.424l-0.03,0.036
			c-0.129,0.031-0.231,0.056-0.456,0.056c-0.146,0-0.529,0-0.717-0.319c-0.109-0.178-0.109-0.325-0.109-1.049l0.012-1.35
			c-0.213,0-0.219,0.005-0.438,0.012l-0.024-0.037c0.013-0.196,0.013-0.245,0.013-0.441l0.036-0.037c0.133,0,0.212,0.006,0.413,0
			c-0.007-0.129-0.007-0.264-0.007-0.393c-0.005-0.116-0.012-0.233-0.018-0.35l0.03-0.043c0.273-0.067,0.34-0.086,0.619-0.172
			l0.043,0.03c-0.019,0.405-0.024,0.485-0.024,0.933c0.256-0.006,0.328-0.006,0.675-0.018l0.031,0.036
			c-0.013,0.159-0.019,0.228-0.019,0.437l-0.03,0.036c-0.305-0.006-0.341-0.012-0.662-0.012l-0.014,1.142
			c0.007,0.073,0.007,0.423,0.007,0.508c0,0.448,0.056,0.59,0.358,0.59c0.127,0,0.225-0.03,0.293-0.056L49.396,48.403"/>
		<path clip-path="url(#SVGID_2_)" fill="#8D959B" d="M50.574,48.883c-0.315,0.005-0.364,0.005-0.662,0.023l-0.031-0.043
			c0.019-0.325,0.037-0.607,0.037-1.287c0-1.173-0.019-1.394-0.061-1.756l0.03-0.043c0.262-0.043,0.353-0.056,0.656-0.123
			l0.061,0.037c-0.018,0.319-0.036,0.65-0.036,1.441c0,1.142,0.013,1.295,0.036,1.713L50.574,48.883 M50.581,44.802
			c-0.311,0.012-0.378,0.018-0.675,0.049l-0.036-0.037c0.006-0.08,0.006-0.166,0.006-0.246c0-0.11-0.006-0.207-0.013-0.331
			l0.043-0.035c0.315-0.025,0.37-0.032,0.675-0.062l0.036,0.037c-0.007,0.252-0.007,0.312,0,0.583L50.581,44.802z"/>
		<path clip-path="url(#SVGID_2_)" fill="#8D959B" d="M54.221,47.84c-0.067,0.3-0.194,0.539-0.396,0.742
			c-0.268,0.27-0.626,0.374-1.052,0.374c-0.547,0-0.892-0.209-1.087-0.411c-0.414-0.424-0.42-1.049-0.42-1.253
			c0-0.232,0.013-0.834,0.42-1.245c0.17-0.178,0.522-0.429,1.13-0.429c0.413,0,0.82,0.134,1.088,0.441
			c0.279,0.324,0.357,0.755,0.37,1.185C54.274,47.452,54.262,47.655,54.221,47.84 M53.437,46.434c-0.115-0.189-0.31-0.35-0.65-0.35
			c-0.115,0-0.455,0.012-0.668,0.356c-0.164,0.251-0.183,0.606-0.183,0.865c0,0.245,0.007,0.865,0.485,1.11
			c0.11,0.056,0.238,0.079,0.359,0.079c0.225,0,0.516-0.073,0.692-0.411c0.14-0.275,0.146-0.687,0.14-0.815
			C53.612,47.115,53.589,46.704,53.437,46.434z"/>
		<path clip-path="url(#SVGID_2_)" fill="#8D959B" d="M57.659,48.883c-0.292,0.005-0.328,0.005-0.607,0.023l-0.043-0.043
			c0-0.066,0.006-0.135,0.006-0.202c0.007-0.301,0.007-0.601,0.007-0.902c0-0.944-0.007-1.006-0.036-1.135
			c-0.116-0.466-0.462-0.466-0.547-0.466c-0.366,0-0.645,0.214-0.809,0.344c-0.007,1.067,0.006,1.625,0.049,2.344l-0.037,0.037
			c-0.298,0.005-0.347,0.005-0.638,0.023l-0.031-0.043c0.007-0.344,0.019-0.674,0.019-1.129c0-0.981-0.042-1.503-0.072-1.914
			l0.036-0.043c0.304-0.056,0.358-0.067,0.645-0.123l0.042,0.043l-0.006,0.319c0.158-0.11,0.535-0.381,1.069-0.381
			c0.152,0,0.341,0.025,0.505,0.116c0.157,0.093,0.285,0.233,0.352,0.399c0.079,0.185,0.085,0.368,0.092,0.749v0.718
			c0.019,0.718,0.023,0.994,0.042,1.228L57.659,48.883"/>
		<line clip-path="url(#SVGID_2_)" fill="#FFFFFF" x1="2.101" y1="54.408" x2="6.593" y2="54.408"/>
	</g>
</g>
</svg>
