<?xml version="1.0" encoding="utf-8"?>
<!-- Generator: Adobe Illustrator 19.2.1, SVG Export Plug-In . SVG Version: 6.00 Build 0)  -->
<svg version="1.1"
	 id="svg3123" xmlns:cc="http://creativecommons.org/ns#" xmlns:dc="http://purl.org/dc/elements/1.1/" xmlns:rdf="http://www.w3.org/1999/02/22-rdf-syntax-ns#" xmlns:svg="http://www.w3.org/2000/svg"
	 xmlns="http://www.w3.org/2000/svg" xmlns:xlink="http://www.w3.org/1999/xlink" x="0px" y="0px" viewBox="0 0 403.6 145.2"
	 style="enable-background:new 0 0 403.6 145.2;" xml:space="preserve">
<style type="text/css">
	.st0{display:none;}
	.st1{display:inline;}
	.st2{fill:#FFFFFF;fill-opacity:0;stroke:#FFFFFF;stroke-width:6;stroke-linejoin:round;}
	.st3{fill:none;stroke:#FFFFFF;stroke-width:3.5;stroke-linejoin:round;}
	.st4{fill:#FFFFFF;}
</style>
<g id="Layer_2" class="st0">
	<rect class="st1" width="403.6" height="145.2"/>
</g>
<g id="layer1" transform="matrix(0.27082114,0,0,0.27082114,-52.945746,-66.956337)">
	<path id="NV" class="st2" d="M528.2,280.7l2.1,399.7l-5.3,2.1l-3.4,8.1l-7.1,1.4l-6-7.4l-8.1,0.3l-2.9-2.9l-3.1,0.4l-7.4,6.5
		l2.9,20.5l2.2,17.5l3.8,26l-3.2,7.1l-7.9-1.8L218.6,484.9l1.6-214.6l308,2.4V280.7z"/>
</g>
<path id="path2985" class="st3" d="M7.2,61.7h32c3.4-43.2,7.1-61.2,11.7,0c3.8,38,7.5,60.8,11.9,0c1.1-16.8,7.7,1.8,26.6,0"/>
<g id="text3826">
	<path id="path2996" class="st4" d="M125.2,42.9h7V8.7h-7V32L111.7,8.7h-7.2v34.1h7V19.3L125.2,42.9"/>
	<path id="path2998" class="st4" d="M159.7,32.3c0-0.6,0-0.8,0-1.1c0-2.5-0.4-4.9-1-6.7c-1.7-4.6-5.8-7.4-10.9-7.4
		c-7.3,0-11.7,5.2-11.7,13.7c0,8.1,4.4,13.1,11.6,13.1c5.7,0,10.3-3.2,11.7-8.2H153c-0.8,2-2.6,3.2-5,3.2c-1.9,0-3.4-0.8-4.3-2.2
		c-0.6-0.9-0.8-2.1-0.9-4.4L159.7,32.3 M142.8,28c0.4-3.8,2.1-5.8,5-5.8c1.6,0,3.1,0.8,4.1,2.1c0.6,0.9,0.9,1.9,1,3.7L142.8,28"/>
	<path id="path3000" class="st4" d="M177.6,42.9l8.7-25.3h-6.9l-5.1,18.5l-5.5-18.5h-6.9l8.9,25.3H177.6"/>
	<path id="path3002" class="st4" d="M211.8,42.1c-1.2-1.1-1.5-1.8-1.5-3.1V25c0-5.2-3.5-7.8-10.4-7.8s-10.4,2.9-10.8,8.8h6.3
		c0.3-2.6,1.4-3.5,4.6-3.5c2.5,0,3.8,0.8,3.8,2.5c0,0.8-0.4,1.6-1.1,2c-0.9,0.5-0.9,0.5-4.1,1l-2.6,0.5c-5,0.8-7.4,3.4-7.4,8
		c0,2.2,0.6,3.9,1.8,5.2c1.5,1.5,3.7,2.4,5.9,2.4c2.8,0,5.4-1.2,7.7-3.6c0,1.3,0.1,1.8,0.7,2.5h7.1L211.8,42.1 M203.9,32.7
		c0,3.8-1.9,5.9-5.2,5.9c-2.2,0-3.6-1.2-3.6-3c0-2,1-2.9,3.7-3.5l2.2-0.4c1.7-0.3,2-0.4,2.8-0.8L203.9,32.7"/>
	<path id="path3004" class="st4" d="M232.3,42.9h6.6V8.7h-6.6v12.1c-1.6-2.5-3.8-3.7-7-3.7c-6,0-10.6,5.8-10.6,13.4
		c0,3.4,1,6.9,2.7,9.3c1.7,2.4,4.8,4,7.9,4c3.1,0,5.3-1.2,7-3.7V42.9 M226.8,22.7c3.3,0,5.5,3.2,5.5,8.1c0,4.6-2.2,7.8-5.5,7.8
		s-5.5-3.2-5.5-7.9C221.3,25.9,223.5,22.7,226.8,22.7"/>
	<path id="path3006" class="st4" d="M266.6,42.1c-1.2-1.1-1.5-1.8-1.5-3.1V25c0-5.2-3.5-7.8-10.4-7.8s-10.4,2.9-10.8,8.8h6.3
		c0.3-2.6,1.4-3.5,4.6-3.5c2.5,0,3.8,0.8,3.8,2.5c0,0.8-0.4,1.6-1.1,2c-0.9,0.5-0.9,0.5-4.1,1l-2.6,0.5c-5,0.8-7.4,3.4-7.4,8
		c0,2.2,0.6,3.9,1.8,5.2c1.5,1.5,3.7,2.4,5.9,2.4c2.8,0,5.4-1.2,7.7-3.6c0,1.3,0.1,1.8,0.7,2.5h7.1L266.6,42.1 M258.6,32.7
		c0,3.8-1.9,5.9-5.2,5.9c-2.2,0-3.6-1.2-3.6-3c0-2,1-2.9,3.7-3.5l2.2-0.4c1.7-0.3,2-0.4,2.8-0.8V32.7"/>
	<path id="path3008" class="st4" d="M129.7,61.7c0-3.1-0.7-5.2-2.4-7.1c-2.3-2.5-6.1-3.9-11-3.9c-8.2,0-12.9,3.8-12.9,10.5
		c0,5.3,2.7,7.9,9.6,9.2l4.8,0.9c4.7,0.9,6.4,2.2,6.4,5c0,2.9-2.6,4.6-6.9,4.6c-4.8,0-7.4-2-7.7-5.7h-6.8
		c0.4,7.3,5.4,11.3,14.1,11.3c8.8,0,14-4.1,14-11.1c0-5.4-2.7-8.2-9-9.4l-5.3-1c-5-1-6.5-2-6.5-4.4c0-2.6,2.3-4.2,5.9-4.2
		c4.4,0,6.9,1.9,7.2,5.3L129.7,61.7"/>
	<path id="path3010" class="st4" d="M157.1,74.8c0-0.6,0-0.8,0-1.1c0-2.5-0.4-4.9-1-6.7c-1.7-4.6-5.8-7.4-10.9-7.4
		c-7.3,0-11.7,5.2-11.7,13.7c0,8.1,4.4,13.1,11.6,13.1c5.7,0,10.3-3.2,11.7-8.2h-6.5c-0.8,2-2.6,3.2-5,3.2c-1.9,0-3.4-0.8-4.3-2.2
		c-0.6-0.9-0.8-2.1-0.9-4.4L157.1,74.8 M140.3,70.5c0.4-3.8,2.1-5.8,5-5.8c1.6,0,3.1,0.8,4.1,2.1c0.6,0.9,0.9,1.9,1,3.7L140.3,70.5"
		/>
	<path id="path3012" class="st4" d="M168.4,60.1h-6.6v25.3h6.6V60.1 M168.4,51.3h-6.6v5.9h6.6V51.3"/>
	<path id="path3014" class="st4" d="M195.3,68.3c-0.1-5.3-4.2-8.6-11-8.6c-6.4,0-10.4,3.2-10.4,8.4c0,1.7,0.5,3.1,1.4,4.1
		c0.9,0.9,1.7,1.3,4.1,2.1l7.8,2.4c1.6,0.5,2.2,1,2.2,2.1c0,1.5-1.8,2.5-4.9,2.5c-1.7,0-3-0.3-3.9-0.9c-0.7-0.5-1-1-1.3-2.4H173
		c0.2,5.5,4.3,8.4,11.9,8.4c3.5,0,6.2-0.7,8.1-2.2s3-3.8,3-6.3c0-3.3-1.6-5.4-5-6.4l-8.3-2.4c-1.8-0.6-2.3-0.9-2.3-2
		c0-1.4,1.5-2.3,3.8-2.3c3.1,0,4.7,1.1,4.7,3.4H195.3"/>
	<path id="path3016" class="st4" d="M200.5,60.1v25.3h6.6V70.2c0-3.1,1.7-5,4.5-5c2.2,0,3.6,1.3,3.6,3.3v16.9h6.6V70.2
		c0-3.1,1.7-5,4.5-5c2.2,0,3.6,1.3,3.6,3.3v16.9h6.6V67.5c0-4.9-3-7.8-8.1-7.8c-3.2,0-5.4,1.1-7.4,3.7c-1.2-2.4-3.7-3.7-6.9-3.7
		c-2.9,0-4.8,1-6.9,3.6v-3.1L200.5,60.1"/>
	<path id="path3018" class="st4" d="M253.5,59.7c-7.7,0-12.5,5.1-12.5,13.4c0,8.3,4.7,13.4,12.5,13.4c7.7,0,12.5-5.1,12.5-13.2
		C266,64.7,261.4,59.7,253.5,59.7 M253.5,65c3.6,0,5.9,3.2,5.9,8.2c0,4.7-2.4,8-5.9,8c-3.6,0-5.9-3.3-5.9-8.1S249.9,65,253.5,65"/>
	<path id="path3020" class="st4" d="M275.1,51.3h-3.9v34.1h3.9V51.3"/>
	<path id="path3022" class="st4" d="M291.2,60.2c-6.9,0-11.1,4.9-11.1,13.2s4.1,13.2,11.1,13.2c6.9,0,11.1-4.9,11.1-13
		C302.3,65,298.2,60.2,291.2,60.2 M291.2,63.8c4.4,0,7,3.6,7,9.7c0,5.8-2.7,9.4-7,9.4c-4.4,0-7-3.6-7-9.6
		C284.2,67.4,286.8,63.8,291.2,63.8"/>
	<path id="path3024" class="st4" d="M323.8,60.9v3.6c-2-2.9-4.4-4.3-7.5-4.3c-6.2,0-10.4,5.4-10.4,13.4c0,4,1.1,7.3,3.1,9.6
		c1.8,2.1,4.4,3.3,7,3.3c3.1,0,5.2-1.3,7.4-4.4v1.3c0,3.3-0.4,5.3-1.4,6.7c-1,1.5-3,2.3-5.4,2.3c-1.8,0-3.4-0.5-4.4-1.3
		c-0.9-0.7-1.3-1.4-1.5-2.8h-4c0.4,4.6,4,7.4,9.8,7.4c3.7,0,6.8-1.2,8.4-3.1c1.9-2.2,2.6-5.3,2.6-11.1V60.9L323.8,60.9 M316.7,63.8
		c4.2,0,6.7,3.6,6.7,9.7c0,5.9-2.5,9.4-6.7,9.4c-4.3,0-6.8-3.6-6.8-9.6C309.9,67.4,312.5,63.8,316.7,63.8"/>
	<path id="path3026" class="st4" d="M337.6,60.9h-3.9v24.5h3.9V60.9 M337.6,51.3h-3.9v4.9h3.9V51.3"/>
	<path id="path3028" class="st4" d="M363.1,69.1c-0.2-2.4-0.7-3.9-1.6-5.3c-1.7-2.3-4.6-3.7-8.1-3.7c-6.6,0-10.9,5.2-10.9,13.4
		c0,7.9,4.2,12.9,10.9,12.9c5.9,0,9.6-3.5,10-9.5h-3.9c-0.7,3.9-2.7,5.9-6,5.9c-4.3,0-6.9-3.5-6.9-9.3c0-6.1,2.5-9.8,6.8-9.8
		c3.3,0,5.3,1.9,5.8,5.3L363.1,69.1"/>
	<path id="path3030" class="st4" d="M389.5,83.1c-0.4,0.1-0.6,0.1-0.8,0.1c-1.4,0-2.1-0.7-2.1-1.9V66.9c0-4.4-3.2-6.7-9.2-6.7
		c-3.6,0-6.5,1-8.2,2.9c-1.1,1.3-1.6,2.7-1.7,5.1h3.9c0.3-3,2.1-4.4,5.8-4.4c3.5,0,5.5,1.3,5.5,3.7v1c0,1.6-1,2.3-4.1,2.7
		c-5.5,0.7-6.4,0.9-7.9,1.5c-2.9,1.2-4.3,3.4-4.3,6.6c0,4.4,3.1,7.3,8.1,7.3c3.1,0,5.6-1.1,8.3-3.6c0.3,2.5,1.5,3.6,4,3.6
		c0.8,0,1.4-0.1,2.7-0.4L389.5,83.1 M382.6,77.7c0,1.3-0.4,2.1-1.5,3.2c-1.6,1.5-3.5,2.2-5.8,2.2c-3,0-4.8-1.5-4.8-3.9
		c0-2.6,1.7-3.9,5.9-4.5c4.1-0.6,5-0.7,6.3-1.4L382.6,77.7"/>
	<path id="path3032" class="st4" d="M397.6,51.3h-3.9v34.1h3.9V51.3"/>
	<path id="path3034" class="st4" d="M112.1,93.8h-7v34.1h23.4v-5.9h-16.3L112.1,93.8"/>
	<path id="path3036" class="st4" d="M154.5,127.1c-1.2-1.1-1.5-1.8-1.5-3.1V110c0-5.2-3.5-7.8-10.4-7.8c-6.8,0-10.4,2.9-10.8,8.8
		h6.3c0.3-2.6,1.4-3.5,4.6-3.5c2.5,0,3.8,0.8,3.8,2.5c0,0.8-0.4,1.6-1.1,2c-0.9,0.5-0.9,0.5-4.1,1l-2.6,0.5c-5,0.8-7.4,3.4-7.4,8
		c0,2.2,0.6,3.9,1.8,5.2c1.5,1.5,3.7,2.4,5.9,2.4c2.8,0,5.4-1.2,7.7-3.6c0,1.3,0.1,1.8,0.7,2.5h7.1V127.1 M146.6,117.8
		c0,3.8-1.9,5.9-5.2,5.9c-2.2,0-3.6-1.2-3.6-3c0-2,1-2.9,3.7-3.5l2.2-0.4c1.7-0.3,2-0.4,2.8-0.8V117.8"/>
	<path id="path3038" class="st4" d="M158.8,93.8v34.1h6.6v-2.6c1.6,2.5,3.8,3.7,7,3.7c6,0,10.6-5.8,10.6-13.4c0-3.4-1-6.9-2.7-9.3
		c-1.7-2.5-4.8-4.1-7.9-4.1c-3.1,0-5.4,1.2-7,3.7V93.8L158.8,93.8 M170.9,107.7c3.2,0,5.5,3.3,5.5,8c0,4.6-2.3,7.9-5.5,7.9
		c-3.3,0-5.5-3.2-5.5-8C165.3,110.9,167.6,107.7,170.9,107.7"/>
	<path id="path3040" class="st4" d="M197.4,102.7c-6.9,0-11.1,4.9-11.1,13.2s4.1,13.2,11.1,13.2c6.9,0,11.1-4.9,11.1-13
		C208.5,107.5,204.5,102.7,197.4,102.7 M197.4,106.3c4.4,0,7,3.6,7,9.7c0,5.8-2.7,9.4-7,9.4c-4.4,0-7-3.6-7-9.6
		C190.4,109.9,193.1,106.3,197.4,106.3"/>
	<path id="path3042" class="st4" d="M214,103.4v24.5h3.9v-12.7c0-3.5,0.9-5.8,2.8-7.2c1.2-0.9,2.4-1.2,5.1-1.2v-4
		c-0.7-0.1-1-0.1-1.5-0.1c-2.5,0-4.4,1.5-6.7,5.2v-4.4L214,103.4"/>
	<path id="path3044" class="st4" d="M251.4,125.6c-0.4,0.1-0.6,0.1-0.8,0.1c-1.4,0-2.1-0.7-2.1-1.9v-14.4c0-4.4-3.2-6.7-9.2-6.7
		c-3.6,0-6.5,1-8.2,2.9c-1.1,1.3-1.6,2.7-1.7,5.1h3.9c0.3-3,2.1-4.4,5.8-4.4c3.5,0,5.5,1.3,5.5,3.7v1c0,1.6-1,2.3-4.1,2.7
		c-5.5,0.7-6.4,0.9-7.9,1.5c-2.9,1.2-4.3,3.4-4.3,6.6c0,4.4,3.1,7.3,8.1,7.3c3.1,0,5.6-1.1,8.3-3.6c0.3,2.5,1.5,3.6,4,3.6
		c0.8,0,1.4-0.1,2.7-0.4L251.4,125.6 M244.6,120.2c0,1.3-0.4,2.1-1.5,3.2c-1.6,1.5-3.5,2.2-5.8,2.2c-3,0-4.8-1.5-4.8-3.9
		c0-2.6,1.7-3.9,5.9-4.5c4.1-0.6,5-0.7,6.3-1.4L244.6,120.2"/>
	<path id="path3046" class="st4" d="M264.3,103.4h-4v-6.7h-3.9v6.7h-3.3v3.2h3.3v18.5c0,2.5,1.7,3.9,4.7,3.9c0.9,0,1.9-0.1,3.2-0.3
		v-3.3c-0.5,0.1-1.1,0.2-1.9,0.2c-1.7,0-2.2-0.5-2.2-2.2v-16.8h4L264.3,103.4"/>
	<path id="path3048" class="st4" d="M278.2,102.7c-6.9,0-11.1,4.9-11.1,13.2s4.1,13.2,11.1,13.2c6.9,0,11.1-4.9,11.1-13
		C289.3,107.5,285.2,102.7,278.2,102.7 M278.2,106.3c4.4,0,7,3.6,7,9.7c0,5.8-2.7,9.4-7,9.4c-4.4,0-7-3.6-7-9.6
		C271.2,109.9,273.9,106.3,278.2,106.3"/>
	<path id="path3050" class="st4" d="M294.7,103.4v24.5h3.9v-12.7c0-3.5,0.9-5.8,2.8-7.2c1.2-0.9,2.4-1.2,5.1-1.2v-4
		c-0.7-0.1-1-0.1-1.5-0.1c-2.5,0-4.4,1.5-6.7,5.2v-4.4L294.7,103.4"/>
	<path id="path3052" class="st4" d="M325.3,103.4l-6.8,19.1l-6.3-19.1h-4.2l8.3,24.6l-1.5,3.9c-0.6,1.7-1.5,2.4-3.1,2.4
		c-0.6,0-1.2-0.1-2.1-0.3v3.5c0.8,0.4,1.6,0.6,2.6,0.6c1.3,0,2.6-0.4,3.7-1.2c1.2-0.9,1.9-1.9,2.7-3.9l10.9-29.7L325.3,103.4"/>
</g>
</svg>
