<?xml version="1.0" encoding="utf-8"?>
<!-- Generator: Adobe Illustrator 19.0.0, SVG Export Plug-In . SVG Version: 6.00 Build 0)  -->
<svg version="1.1" id="Layer_1" xmlns="http://www.w3.org/2000/svg" xmlns:xlink="http://www.w3.org/1999/xlink" x="0px" y="0px"
	 viewBox="0 0 300 100" style="enable-background:new 0 0 300 100;" xml:space="preserve">
<style type="text/css">
	.st0{clip-path:url(#XMLID_71_);fill:url(#XMLID_72_);}
	.st1{opacity:0.41;}
	.st2{clip-path:url(#XMLID_73_);fill:#C57624;}
	.st3{fill:#C57624;}
	.st4{fill:none;stroke:#C57624;stroke-width:1.7264;stroke-linejoin:round;}
</style>
<g id="XMLID_3_">
	<defs>
		<rect id="XMLID_4_" x="21.8" y="78.1" width="229.3" height="2.6"/>
	</defs>
	<clipPath id="XMLID_71_">
		<use xlink:href="#XMLID_4_"  style="overflow:visible;"/>
	</clipPath>
	
		<linearGradient id="XMLID_72_" gradientUnits="userSpaceOnUse" x1="-3.6018" y1="151.4181" x2="-1.8754" y2="151.4181" gradientTransform="matrix(-132.5954 0 0 132.5954 -229.7244 -19997.9023)">
		<stop  offset="0" style="stop-color:#FFFFFF"/>
		<stop  offset="1" style="stop-color:#C57624"/>
	</linearGradient>
	<rect id="XMLID_69_" x="21.8" y="78.1" class="st0" width="229.3" height="2.6"/>
</g>
<g id="XMLID_5_" class="st1">
	<g id="XMLID_6_">
		<defs>
			<rect id="XMLID_8_" x="221.3" y="23.1" width="61.9" height="58"/>
		</defs>
		<clipPath id="XMLID_73_">
			<use xlink:href="#XMLID_8_"  style="overflow:visible;"/>
		</clipPath>
		<path id="XMLID_7_" class="st2" d="M274,62.5l-0.3,0.3l-0.1,0c0,0-0.2,0.2-0.3,0.3c-0.1,0.1-0.8,0.6-0.9,0.7
			c-0.1,0.1,0-0.1-0.1-0.1c-0.1,0-0.2,0.1-0.3,0.1c-0.1,0,0-0.1-0.2,0c-0.2,0.1-0.6,0.3-0.6,0.3l-0.1,0.1l0,0.2c0,0-0.1,0.2-0.1,0.1
			c0-0.1,0-0.2,0-0.2l-0.2,0l-0.4,0.2c0,0-0.3,0.2-0.4,0.2c-0.1,0,0-0.1,0-0.1s0.2,0,0.2-0.1c0,0,0-0.1,0-0.1s-0.1,0.1-0.2,0
			c-0.1,0,0-0.1,0.1-0.2c0.1-0.1,0.1-0.2,0-0.3c0-0.1,0.1-0.2,0.1-0.2s-0.1,0.1-0.1,0.2c0,0.1-0.1,0.1-0.1,0.1s-0.1,0-0.1,0.1
			c-0.1,0,0,0-0.1,0c-0.1,0.1,0,0.1-0.1,0.1c-0.1,0-0.3,0.3-0.4,0.3c0,0-0.1,0.1-0.1,0.1s-0.1,0.1-0.2,0.1c-0.1,0,0.1-0.1,0.1-0.1
			s0.1-0.1,0-0.2c0-0.1-0.1,0-0.1,0l-0.1,0.1c0,0-0.1-0.1-0.1-0.1c0-0.1-0.2,0-0.2-0.1c-0.1,0,0-0.1,0-0.1l0.1-0.2
			c0,0-0.1,0-0.2-0.1c-0.1-0.1-0.1,0-0.3,0c-0.2,0-0.1,0.1-0.1,0.1l0.1,0.2l0.1,0.3l0.1,0.1l0.2,0l0.3,0.2l0.3,0.2l0.2,0.2l-0.3,0.2
			c0,0-0.5,0.3-0.5,0.3c0,0-0.1,0.2-0.1,0.2l-0.2-0.1l-0.1-0.1l-0.1-0.3l-0.1,0c0,0,0-0.1,0-0.2c0,0-0.1-0.1-0.2-0.1
			c0,0,0,0,0.1,0.1c0,0.1,0.1,0.2,0,0.2c-0.1,0-0.1,0-0.3-0.1c-0.1,0-0.1,0,0,0.1c0,0.1,0.1,0.1,0.2,0.1c0.1,0,0.1,0.1,0.1,0.2
			c0,0.1,0,0.2,0,0.3c0.1,0.1,0,0.2-0.1,0.2c-0.1,0.1-0.1,0.1-0.1,0.1l-0.2,0.2c0,0-0.1,0.1-0.2,0.2c-0.1,0-0.1,0-0.1,0
			s0-0.1,0.1-0.2c0-0.1,0-0.1,0-0.1c0-0.1,0-0.1,0.1-0.2c0-0.1,0-0.1-0.1,0c-0.1,0.1-0.1,0.1-0.1,0.1s0,0.1,0.1,0.2
			c0,0.1-0.1,0.1-0.1,0.3c0,0.1-0.1,0.1-0.1,0.1c0,0-0.1-0.1-0.1-0.2c0-0.1,0-0.2,0-0.2s-0.1,0.1-0.2,0.2c-0.1,0.1-0.2,0.1-0.2,0.1
			s-0.1,0-0.1,0c0-0.1,0-0.1-0.1-0.1c-0.1,0,0,0.1,0,0.1s0.1,0.1,0,0.1c-0.1,0-0.1,0.2-0.1,0.2l0,0.1c0,0,0.1,0,0.2,0
			c0,0,0.1,0.1,0.1,0.1c0,0.1,0,0.1,0,0.1l0.1-0.1l0.1-0.1l0.1-0.1c0,0,0.1-0.1,0.1-0.1c0-0.1,0.1,0,0.1,0s0,0.1,0,0.2
			c0.1,0.1,0,0.1-0.1,0.1c-0.1,0,0,0.1,0,0.1s-0.1,0.2-0.2,0.3c0,0.1-0.2,0.3-0.2,0.3s-0.2,0.3-0.2,0.3s0,0.1-0.1,0.1
			c-0.1,0-0.1,0-0.1,0s0,0-0.1-0.1c-0.1-0.1-0.1-0.1-0.3,0c-0.2,0-0.1,0-0.2,0.1c-0.1,0.1-0.1,0,0,0c0-0.1,0-0.1-0.1-0.1
			c-0.1,0-0.4,0.1-0.4,0.1s-0.1,0-0.2,0c-0.1-0.1,0,0,0,0.1c0,0,0.1,0.2,0.1,0.2s0.2,0,0.3,0c0.1,0,0.2,0.1,0.2,0.1s0,0.1,0,0.2
			c0,0.1,0.3,0.2,0.3,0.2s0,0.1,0,0.1c0,0.1,0,0,0.1-0.1c0.1-0.1,0.2,0.1,0.2,0.1c0,0-0.1,0.1-0.2,0.3c-0.1,0.1-0.1,0.4-0.2,0.5
			c-0.1,0.1-0.1,0.7-0.1,0.7l-0.2,0.5l-0.4,0.2c0,0-0.1,0,0-0.1c0.1-0.1,0.1-0.2,0.1-0.2l-0.1-0.4l-0.1,0c0,0,0.1,0.1,0.1,0.2
			c0,0.1-0.2,0.2-0.2,0.2l-0.2,0.1c0,0-0.1,0.1-0.2,0.1c-0.1-0.1-0.3-0.4-0.3-0.4l-0.2-0.1l0.1,0.2l0.2,0.3l0.1,0.1l0.2,0.1l0.3,0.1
			c0,0,0.3-0.1,0.4-0.1c0.1,0,0.2-0.1,0.2-0.1l0,0.2c0,0,0,0.1-0.1,0.3c-0.1,0.3-0.1,0.3-0.1,0.3c0,0,0,0.2,0,0.2s0,0.1,0,0.2
			c0,0.1-0.1,0.2-0.1,0.2l-0.2,0.1l0.1,0.4l0.2,0.1l0,0.2c0,0-0.1,0-0.2-0.1c-0.1-0.1-0.1,0-0.1,0c-0.1,0,0.1,0.3,0.2,0.3
			c0.1,0,0.2,0.3,0.2,0.3l0.2,0.8c0,0,0,0.1,0.1,0.3c0.1,0.2,0,0.1-0.1,0c-0.1-0.1,0,0-0.1,0.1c0,0.1,0,0.2,0,0.2l0.1,0.1
			c0,0,0,0.1-0.1,0.2c-0.1,0.1,0.1,0,0.1,0l0,0.1c0,0,0.1,0.2,0.2,0.2c0.1,0,0.1,0.1,0.1,0.1l0,0.3c0,0,0,0,0.1,0
			c0,0,0.1,0.1,0.1,0.1l0,0.1c0,0,0.2,0.4,0.2,0.5c0,0.1,0.4,0.2,0.4,0.2l0.1,0.2c0,0,0,0-0.2,0.2c-0.2,0.1,0.1,0.2,0.1,0.2
			s0.1-0.1,0.2-0.1c0.1,0,0.1-0.2,0.1-0.2s0,0,0.1,0.2c0,0.2-0.1,0.2-0.1,0.2s-0.3,0-0.4,0c-0.1,0-0.1,0-0.3,0.2
			c-0.2,0.1-0.1,0.3-0.1,0.4c0,0.1-0.3,0-0.4-0.1c-0.1-0.1-0.4-0.2-0.5-0.3c-0.2-0.1-0.2-0.2-0.3-0.3c-0.1-0.1-0.2-0.2-0.3-0.1
			c-0.1,0-0.5,0-0.7-0.1c-0.2-0.1-0.2,0-0.4,0c-0.3,0-0.5,0.2-0.6,0.2c-0.1,0,0-0.1-0.1-0.1c-0.1,0-0.6,0-0.6,0s-0.2-0.1-0.4-0.2
			c-0.2-0.1-0.1-0.1-0.1-0.2c0-0.1-0.2-0.1-0.3-0.1c-0.2-0.1-0.1-0.1-0.2-0.2c0-0.1-0.1,0-0.2,0c-0.1,0.1-0.1,0-0.3-0.1
			c-0.1-0.1-0.3-0.1-0.4-0.1c-0.1,0-0.2,0-0.2,0s-0.2-0.1-0.3-0.2c-0.2-0.1-0.2-0.1-0.3-0.2c-0.1-0.1-0.1-0.1-0.2-0.1
			c-0.1,0-0.2,0.1-0.3,0c-0.2,0-0.2,0-0.3-0.1c-0.1-0.1-0.2,0-0.5,0c-0.2,0-0.2-0.2-0.1-0.3c0-0.1,0-0.2-0.1-0.2
			c0-0.1-0.2-0.1-0.2-0.1c-0.1-0.1,0-0.2-0.1-0.2c0,0-0.1-0.2-0.1-0.3c0-0.1-0.1-0.4-0.2-0.5c-0.1-0.2-0.2-0.4-0.2-0.4
			s0-0.1-0.2-0.1c-0.1-0.1-0.1-0.1-0.1-0.3c0-0.2-0.2-0.1-0.2-0.1c-0.1-0.1-0.2-0.3-0.2-0.3s-0.1-0.3-0.2-0.3c0-0.1,0.1-0.3,0.1-0.4
			c0-0.1-0.1-0.4-0.1-0.5c0-0.1-0.1,0-0.3-0.1c-0.2-0.1,0-0.2-0.2-0.2c-0.1-0.1,0-0.1,0.1-0.2c0-0.1,0.1-0.2,0.1-0.4
			c0-0.2-0.1-0.4-0.1-0.6c0-0.1-0.1-0.2-0.2-0.4c-0.1-0.1-0.2-0.1-0.4-0.1c-0.1,0-0.4-0.2-0.4-0.2s-0.3-0.4-0.5-0.5
			c-0.1-0.1-0.2-0.2-0.3-0.2c0,0-0.1-0.2-0.1-0.3c0,0-0.1-0.3-0.2-0.4c-0.1-0.2-0.3-0.3-0.4-0.4c-0.1-0.2-0.2-0.2-0.3-0.4
			c-0.1-0.2-0.2-0.3-0.3-0.3c-0.1,0-0.4-0.3-0.5-0.4c-0.1-0.1-0.2-0.1-0.1-0.2c0-0.1,0-0.1-0.1-0.2c-0.1-0.1-0.1-0.3-0.1-0.5
			s-0.1-0.2,0-0.2c0,0-0.1-0.1-0.3-0.2c-0.2-0.1,0-0.1,0-0.2c0-0.1,0-0.1-0.1-0.2c-0.1-0.1-0.2-0.1-0.3-0.4
			c-0.1-0.2-0.4-0.8-0.5-0.9c-0.1-0.1-0.2-0.2-0.2-0.3c0,0-0.1-0.4-0.1-0.5c0-0.1,0-0.3-0.2-0.4c-0.1-0.1-0.3-0.3-0.3-0.4
			c0-0.1-0.4-0.3-0.4-0.3s-0.1-0.1-0.2-0.2c-0.1-0.1-0.2-0.1-0.4-0.2c-0.2-0.1-0.4-0.5-0.4-0.5l-0.2-0.1l-0.3-0.1
			c0,0-0.2-0.1-0.3-0.1c-0.1,0-0.1-0.1-0.1-0.1s0-0.2,0-0.4c0-0.2-0.1,0-0.1,0.1c-0.1,0.1-0.1,0-0.1,0s0-0.1,0-0.3
			c0-0.1,0-0.1-0.1-0.1c-0.1,0-0.1,0-0.2,0c-0.1-0.1-0.2-0.4-0.2-0.4l-0.2-0.1l-0.1-0.1c0,0-0.1,0-0.2,0.1c-0.1,0-0.1,0-0.1-0.1
			c0-0.1-0.1-0.1-0.1,0c-0.1,0,0,0.1-0.1,0.2c-0.1,0.1-0.4,0-0.5,0c-0.1,0-0.4-0.1-0.4-0.1s-0.1-0.1-0.2-0.1c-0.1,0-0.2,0-0.4,0
			c-0.2,0-0.7,0-0.7,0s-0.3,0-0.3-0.1c0,0-0.2-0.2-0.4-0.2c-0.1-0.1-0.3-0.1-0.4,0c-0.2,0.1-0.2,0.3-0.2,0.4
			c-0.1,0.1-0.1,0.1-0.1,0.1s-0.3,0-0.3,0c0,0-0.1,0-0.1,0c0,0,0,0.1-0.1,0.1s-0.1,0-0.2,0c-0.1,0-0.2,0.1-0.3,0.2
			c-0.1,0.1-0.2,0-0.2,0c0,0-0.2,0.4-0.4,0.8c-0.2,0.4-0.2,0.8-0.3,0.9c-0.1,0.2-0.2,0.3-0.3,0.5c-0.1,0.2,0,0.3,0,0.4
			c0,0-0.2,0.1-0.4,0.2c-0.1,0-0.3,0.4-0.5,0.7c-0.2,0.3-0.4,0.3-0.7,0.3c-0.3-0.1-0.7-0.3-0.9-0.4c-0.2-0.2-0.4-0.3-0.5-0.4
			c-0.2-0.1-0.4,0-0.4-0.1c-0.1,0-0.6-0.5-0.6-0.5s-0.5-0.1-0.8-0.2c-0.3-0.1-0.8-0.6-0.8-0.6l-0.3-0.4c0,0-0.6-0.2-0.6-0.3
			c-0.1-0.1-0.6-0.6-0.6-0.7c0-0.1-0.4-0.8-0.6-1c-0.1-0.1-0.1-0.4-0.1-0.4s-0.1-0.6,0-0.8c0.1-0.1,0-0.3-0.1-0.5
			c-0.1-0.2-0.3-0.5-0.4-0.6c-0.1-0.2-0.2-0.6-0.3-0.7c-0.1-0.2-0.1-0.4-0.2-0.5c-0.1-0.1-0.2-0.1-0.2-0.2c0-0.1-0.1-0.1-0.3-0.2
			c-0.2-0.1-1.1-0.6-1.3-0.8c-0.3-0.2-0.4-0.4-0.4-0.4s-0.5-0.5-0.5-0.6c-0.1-0.1-0.5-0.5-0.6-0.6c-0.1-0.1-0.4-0.4-0.4-0.4
			s-0.4-0.4-0.6-0.6c-0.2-0.2-0.4-0.3-0.6-0.4c-0.2-0.1-0.5-0.4-0.6-0.7c-0.1-0.3-0.3-0.5-0.5-0.8c-0.2-0.3-0.2-0.2-0.2-0.2
			c0,0-0.3,0-0.3,0s-0.1-0.1-0.2-0.2c-0.1-0.1-0.4-0.2-0.4-0.2s0-0.2,0-0.3c0-0.1,0.1-0.2,0-0.4c0-0.1,0.1-0.2,0.1-0.2l6.5,0.2l4,0
			l4.8,0.1l0.1-4.2l0.2-9.8l0-8.9l3.9,0l4.7,0l3.9-0.1l0.2,7.6l0.1,2.2c0,0,0.1,0,0.1,0c0,0,0.1-0.1,0.3,0c0.2,0.2,0.4,0.4,0.5,0.5
			c0.1,0.1,0.3,0.4,0.5,0.4s0.3,0,0.4-0.1c0-0.1,0-0.2,0.2-0.2s0.3,0.2,0.4,0.2c0.1,0,0.2,0.1,0.2,0c0.1-0.1,0.1-0.2,0.1-0.2
			c0-0.1,0-0.2,0.2,0c0.2,0.1,0.2,0.1,0.3,0.1c0,0,0.1,0.1,0.1,0.1c0.1,0.1,0.2,0.2,0.2,0.3c0,0.1,0,0.3,0,0.4
			c0.1,0.1,0.2,0.1,0.4,0.1s0.3,0,0.4,0c0.1,0,0.2,0,0.4,0.1c0.1,0.1,0.5,0.1,0.5,0.2c0.1,0,0.3,0,0.4,0c0.1,0,0.2-0.1,0.3-0.1
			c0.1,0,0.3,0.1,0.3,0.2c0,0.1,0.2,0.2,0.3,0.2c0.1,0.1,0.2,0.1,0.4-0.1c0.1-0.2,0.1-0.3,0.2-0.3c0.1,0,0.2,0,0.2,0.1
			c0.1,0.1,0.2,0,0.3,0c0.1,0,0.1,0,0.2,0c0.1,0,0.1-0.1,0.2-0.1c0.1,0,0.1,0.1,0.1,0.2c0,0.1,0,0.3,0,0.4c0,0.1,0.1,0.2,0.3,0.2
			c0.1,0,0.2-0.1,0.3-0.1c0.1,0,0.1,0,0.1,0.2c0,0.1-0.1,0.2-0.1,0.3c0,0,0,0.1,0.1,0.2c0.1,0,0.2,0.1,0.2,0.1c0.1,0,0.1,0,0.2,0
			c0.1,0,0.4-0.4,0.4-0.4c0.1-0.1,0.2-0.3,0.3-0.2c0.2,0,0.2,0.1,0.3,0.2c0.1,0.1,0,0.2,0.1,0.2c0.1,0,0.1,0,0.1-0.1
			c0.1,0,0.1-0.1,0.2,0c0.1,0,0.1,0,0.2,0.2c0,0.1,0.1,0.3,0.2,0.3c0.1,0,0.2-0.1,0.3-0.2c0.1-0.1,0.2-0.2,0.2-0.1
			c0.1,0.1,0.1,0.1,0.1,0c0-0.1,0-0.1,0.1-0.1c0.1,0,0.2,0,0.2,0.1c0,0.1-0.1,0.2-0.1,0.2c0,0,0,0.2,0,0.2c0,0.1,0.2,0.3,0.3,0.3
			c0.1,0,0.2-0.1,0.2-0.2c0-0.1-0.1-0.2,0-0.2c0.1,0,0-0.1,0.1-0.1c0.1,0,0.1-0.1,0-0.1c-0.1,0-0.2-0.1-0.1-0.1c0.1,0,0.1,0.1,0.2,0
			c0.1,0,0.2-0.1,0.2-0.2c0-0.1,0-0.3,0-0.3s0,0,0.1,0c0.1,0,0.1-0.1,0.2-0.1c0.1,0,0.1,0.1,0.1,0.2c0,0.1,0,0.2,0.1,0.3
			c0,0.1,0,0.1,0.2,0.1c0.1,0,0.1-0.1,0.2,0c0,0,0.2,0.1,0.3,0.2c0.1,0,0.2-0.1,0.2-0.2s0-0.2,0-0.2c0.1,0,0.1,0,0.2,0
			c0.1,0,0.1,0,0.1,0c0,0,0.1,0,0,0.1c-0.1,0.1-0.1,0.1,0,0.2c0.1,0.1,0.2,0.1,0.3,0.1c0.1,0,0.1,0,0.2,0.1c0,0.1,0,0.1,0.1,0.1
			c0.1,0,0.1,0,0.2-0.1c0.1,0,0.1-0.1,0.2,0c0.1,0.1,0.2,0.2,0.2,0.2c0,0.1,0.2,0.2,0.2,0.1c0.1-0.1,0.1-0.2,0.1-0.2
			c0-0.1,0-0.1,0.1-0.1s0.3,0.1,0.3,0s0.1-0.2,0.1-0.2c0,0,0-0.1,0-0.1c0,0-0.1,0-0.1,0c0.1-0.1,0.1-0.1,0.2-0.1c0.1,0,0.1,0,0.1,0
			c0,0,0.1-0.1,0.2,0c0,0,0.1,0,0.1,0c0,0,0.1,0,0.1,0c0,0,0,0,0-0.1c0,0,0-0.1,0.1,0c0,0,0.1,0,0.1,0c0,0,0-0.1,0-0.1
			c0,0,0.1-0.1,0.1,0c0.1,0.1,0.2,0.1,0.2,0.1c0.1,0,0.1,0.1,0.2,0.1c0,0,0.1-0.1,0.1-0.1c0,0,0.1,0,0.2,0c0,0,0-0.1,0-0.1
			c0,0,0-0.1,0-0.1c0.1,0,0.2,0,0.2,0c0,0,0,0,0.1,0c0.1,0,0.1,0,0.2-0.1c0.1,0,0.1-0.1,0.1-0.1c0,0,0,0,0.1,0c0,0,0,0,0.1,0
			c0.1,0,0.1,0,0.1,0.1c0,0.1,0,0.1,0.1,0.1c0.1,0,0,0,0.1,0.1c0,0,0.1,0,0.1,0c0.1,0,0.1,0,0.1,0c0,0,0,0,0.1,0c0.1,0,0.4,0,0.4,0
			c0,0,0.1,0,0.1-0.1c0,0-0.1-0.1,0-0.1c0.1,0,0.1,0,0.1,0c0.1,0,0.1,0,0.1,0c0,0,0-0.1,0-0.1c0,0,0.1,0,0.1,0c0,0,0.1,0,0.1,0
			c0,0,0-0.1,0-0.1c0,0,0-0.1,0-0.1c0,0,0-0.1,0-0.1s0,0,0.1,0c0.1,0,0.2,0,0.2,0.1c0.1,0,0.1,0,0.1,0.1c0,0.1,0,0.1,0.1,0.1
			c0,0,0.1-0.1,0.1,0c0,0,0,0.1,0,0.1s0,0,0,0c0-0.1,0-0.1,0.1,0c0,0.1,0.1,0.1,0.1,0.1c0,0,0,0.1,0.1,0.1c0.1,0,0.1,0,0.2,0
			c0.1,0,0.1,0,0.1,0.1c0,0,0,0.1,0.1,0.1c0,0,0.1,0,0.1,0c0,0,0.1,0,0,0c0,0,0,0.1,0,0.1c0.1,0,0.1,0,0.1,0.1c0,0,0.1,0.1,0.1,0.1
			c0.1,0,0.2,0,0.2,0s0.1-0.1,0.1-0.1c0,0,0,0,0,0c0,0,0,0.1,0.1,0c0.1,0,0.1,0,0.1,0c0,0-0.1,0.1,0,0.1c0.1,0,0,0,0.1,0
			c0,0,0,0,0.1,0.1c0.1,0,0.2,0,0.2,0s0.1-0.1,0.1,0c0,0.1,0.1,0.1,0,0.1c0,0-0.1,0.1,0,0c0.1,0,0.1-0.1,0.1-0.1c0,0,0.1,0,0.1,0
			c0,0,0,0,0.1,0c0.1,0,0.1,0,0.1,0c0,0,0,0,0.1,0.1c0,0,0.1,0,0,0.1c0,0-0.1,0-0.1,0s0,0,0,0c0.1,0,0.1-0.1,0.1,0c0,0,0,0,0,0.1
			c0,0,0,0,0.1,0c0,0,0.1,0,0.1,0c0.1,0,0.2,0,0.2,0c0,0,0,0,0,0.1c0,0,0,0,0.1,0.1c0,0,0.1,0,0.1,0.1c0,0,0,0.1,0,0.1
			c0.1,0,0,0,0.1,0c0,0,0.1-0.1,0.1,0c0,0,0,0.1,0,0.1c0,0-0.1,0,0,0c0,0,0,0.1,0.1,0c0,0,0.1-0.1,0.1-0.1c0,0,0.1,0,0.1,0
			c0,0,0,0,0.1,0c0,0,0-0.1,0-0.1c0,0,0.1,0,0.1,0c0,0.1,0,0.1,0,0.1c0,0,0.1-0.1,0.1-0.1c0,0,0-0.1,0.1,0c0,0,0,0,0,0.1
			c0,0-0.1,0.1,0,0.1c0,0,0.1,0,0.1,0c0,0,0,0,0-0.1c0,0,0-0.1,0.1-0.1c0.1,0,0.2,0,0.1,0c0,0-0.1,0.1,0,0.1c0.1,0,0.1,0,0.1,0
			c0,0,0.1,0,0.1,0s0,0,0.1,0s0.1-0.1,0.2,0c0,0.1,0,0.1,0.1,0.1c0,0,0,0.1,0,0.1l0.1,1.2l0.1,1.4l0.1,0.7l0.1,1l0.1,1.3l0.1,0
			l0,0.4l0.1,0.8l0.1,0.8l0.1,0c0,0,0,0.1,0,0.1c0,0,0.1,0.1,0.1,0.2c0.1,0.1,0.1,0.1,0.1,0.1c0,0,0,0,0.1,0c0.1,0,0.1,0,0.1,0.1
			c0,0,0.1,0,0.1,0.1c0,0.1,0.1,0.2,0.1,0.2c0,0,0,0.1,0.1,0.2c0,0,0.1,0,0.1,0.1c0,0,0,0.1,0,0.1c0,0,0,0.1,0,0.1
			c0,0,0.1,0.1,0.1,0.1c0,0,0,0.1,0,0.1c0,0,0.1,0,0.1,0c0,0,0,0.1-0.1,0.2c0,0.1,0,0.1,0,0.1c0,0,0,0.1,0,0.1s-0.1,0.1,0,0.2
			c0.1,0.1,0.2,0.2,0.2,0.2c0,0,0,0.1,0.1,0.1c0.1,0,0.1,0,0.1,0c0,0,0,0,0.1,0c0,0,0.1,0,0.1,0c0,0.1-0.1,0.1-0.1,0.1
			c0,0-0.1,0-0.1,0.1c0,0.1,0.1,0.1,0.1,0.1c0.1,0,0,0,0.1,0c0,0.1,0.1,0.1,0.1,0.1s0,0,0,0.1c0,0.1,0.1,0.1,0.1,0.1
			s0.1,0.1,0.1,0.1c0,0,0.1,0,0.1,0s0,0.1-0.1,0.2c0,0.1-0.1,0.1,0,0.2c0.1,0,0.1,0.1,0.2,0.1c0,0,0.1,0,0.1,0c0,0,0,0.1,0,0.1
			s0,0,0,0.1c0,0,0.1,0,0.1,0.1c0,0,0,0.1,0,0.2c0,0,0.1,0.1,0.1,0.1c0,0,0.1,0,0.1-0.1c0,0,0.1-0.1,0.1,0c0,0.1,0,0.1,0,0.2
			c0,0.1,0,0.1,0,0.1c0,0-0.1,0-0.1,0.1c0,0.1,0,0.1,0.1,0.1c0.1,0,0.1,0.1,0.1,0.1c0,0.1,0,0,0.1,0.1c0,0,0,0,0,0.1
			c-0.1,0-0.1,0.1-0.1,0.1c0,0-0.1,0-0.1,0.1c0,0,0,0.1,0,0.1c0,0,0.1,0,0.1,0.1c0,0,0.1,0,0.1,0.1c0,0,0,0.1,0,0.1c0,0-0.1,0-0.1,0
			c0,0,0,0,0,0.1c0,0-0.1,0-0.1,0.1c0,0,0,0.1,0,0.1c0,0,0,0,0,0.1c0,0,0,0,0,0.1c0,0,0.1,0.1,0.1,0.1c0,0,0,0.1,0,0.1
			s-0.1,0-0.1,0.1c0,0,0,0,0,0.1c0,0,0,0,0,0.1c0,0-0.1,0-0.1,0.1c0,0,0,0.1,0,0.1c0,0,0,0,0,0.1c0,0,0,0.2,0,0.2s0,0,0,0.1
			c0,0-0.1,0.1-0.1,0.1c0,0,0,0,0,0.1c0,0,0,0.1,0,0.1c0,0-0.1,0-0.1,0c0,0,0,0.1,0,0.1c0,0,0.1,0.1,0,0.1s-0.1,0-0.1,0l-0.1,0
			c0,0,0,0,0,0c0,0,0,0.1,0,0.1c0,0-0.1,0,0,0.1c0,0,0.1,0,0.1,0c0,0,0,0.1,0,0.1s0,0,0,0c0,0,0,0.1,0,0.1s0,0,0,0c0,0,0,0,0,0
			s0,0,0,0c0,0,0,0.1,0,0.1c0,0,0,0,0,0c0,0,0,0.1,0,0.1c0,0-0.1,0-0.1,0s0,0.1-0.1,0.1c0,0,0,0,0,0.1s0,0.1,0,0.1c0,0,0,0.1,0,0.1
			s0,0,0,0s0,0.1,0,0.1c0,0,0.1,0,0.1,0.1c0,0,0.1,0.1,0.1,0.1s0,0,0.1,0c0,0,0.1,0,0.1,0c0,0,0,0.2,0,0.2s0,0,0,0c0,0,0,0,0,0
			c0,0,0-0.1,0,0c0,0.1,0,0.2,0,0.2s0,0,0,0.1c0,0,0,0.1,0,0.1c0,0,0,0.1,0,0.1c0,0,0.1,0,0,0c0,0,0,0,0,0c0,0,0.1,0,0,0.1
			c0,0.1-0.1,0.2-0.1,0.3c0,0,0,0.2-0.1,0.2c0,0.1-0.1,0.2-0.2,0.2c0,0-0.1,0-0.2,0c0,0,0,0-0.1,0c0,0-0.1-0.1-0.1,0c0,0,0,0,0,0.1
			c0,0,0,0,0,0c0,0,0,0.1-0.1,0.1c0,0.1-0.1,0.2-0.2,0.2c0,0-0.1,0.1-0.1,0.1c0,0-0.1,0.2-0.1,0.3c0,0.1,0.1,0.2,0.2,0.2
			c0.1,0,0.1,0,0.1,0.1c0,0,0,0,0.1,0.1c0,0,0.1,0.1,0.1,0.1l0.1,0.1c0,0,0.1,0.1,0,0.1c-0.1,0-0.1,0-0.1,0c0,0-0.1,0-0.1,0
			c0,0,0,0-0.1,0c-0.1,0-0.2,0-0.2,0c0,0-0.2,0-0.2,0s-0.2,0-0.3,0.1c-0.1,0-0.2,0.1-0.4,0.2c-0.1,0.1-0.6,0.3-0.6,0.3
			s-0.7,0.4-0.7,0.4c0,0-0.6,0.3-0.7,0.4c0,0-0.2,0.1-0.3,0.2c0,0.1-0.2,0.2-0.2,0.2c0,0-0.1,0.1-0.1,0c0,0-0.1-0.1,0-0.2
			c0.1-0.1,0.2-0.3,0.3-0.3c0.1-0.1,0.2-0.1,0.3-0.1c0.1,0,0.1-0.1,0.2-0.1c0-0.1,0.1-0.1,0.1-0.1c0.1,0,0.2,0,0.2,0
			c0.1,0,0.1,0,0.1-0.1c0,0,0.2-0.1,0.1-0.1c-0.1,0-0.1,0.1-0.2,0.1c-0.1,0-0.1,0-0.1-0.1c0,0-0.2-0.1-0.2,0c-0.1,0-0.5,0.2-0.5,0.2
			l-0.3,0.1c0,0-0.1,0-0.1-0.1c0,0-0.1,0,0,0c0.1,0,0.2-0.2,0.2-0.2s0.1-0.2,0.1-0.4c0-0.1,0-0.4,0-0.4s-0.1-0.2-0.1-0.2
			s-0.1,0-0.1,0c0,0,0-0.1,0-0.1c0,0-0.1-0.1-0.2,0c-0.1,0.1-0.3,0.2-0.3,0.3c0,0.1-0.1,0.2-0.1,0.2l-0.2,0.1l-0.1-0.1l-0.2-0.1
			l-0.2-0.1l-0.2-0.1l0,0.1l0.1,0.1l-0.1,0c0,0-0.1,0-0.1,0c0.1,0.1,0.1,0.1,0.1,0.1c0,0,0.1,0,0.1,0l0,0.1c0,0,0,0.1,0,0.2
			c0,0,0.1,0.2,0.1,0.2l-0.1,0.2c0,0-0.1,0.1,0.1,0.1c0.2,0.1,0.3,0.1,0.3,0.1s0.1,0,0.1,0c0,0-0.1,0.1-0.1,0.1c0,0-0.1,0-0.1,0
			c0,0,0,0,0.1,0.1c0,0,0,0.1,0,0.1c0,0-0.1,0.1,0,0.1c0.1,0,0.1,0,0.1-0.1c0,0,0-0.1,0,0c0,0,0,0.1,0.1,0.2c0,0,0.3,0.1,0.3,0.1
			l0,0l-0.3-0.1l0,0.1c0,0,0,0.3,0,0.3c0,0-0.1,0-0.1,0l-0.1,0l0,0.1c0,0-0.1,0.1-0.1,0.1c0,0-0.1,0-0.1,0s0.1,0.1,0.1,0.1
			c0,0-0.1,0.1-0.1,0.1l-0.1,0.2l-0.2,0.1c0,0-0.1,0.1-0.1,0.1c0,0,0,0-0.1-0.1c0,0-0.1-0.1-0.1-0.1l-0.2,0l-0.1,0c0,0-0.1,0,0,0.1
			c0.1,0,0.1,0,0.1,0c0,0,0.1,0,0.1,0s0,0,0,0.1c0,0.1,0,0.1,0,0.2c0,0,0,0.1,0,0.1c0,0,0.1,0,0.1,0.1c0,0,0.1,0.1,0.1,0.1
			c0,0-0.1,0-0.1,0c0,0,0-0.1,0-0.1l-0.1,0c0,0-0.1,0-0.1,0c0,0-0.1,0.1-0.1,0.1s0,0,0,0.1c0,0,0,0.1,0,0.1c0,0,0.1,0,0.1-0.1
			c0,0,0.1-0.1,0.1-0.1s0,0.1,0,0.1c0,0,0.1,0,0.1,0s-0.1,0-0.1,0.1c0,0-0.1,0.1-0.1,0.2c0,0,0,0,0,0.1c0,0,0,0.1,0,0.1
			C274.2,62.3,274,62.5,274,62.5"/>
	</g>
</g>
<path id="XMLID_9_" class="st3" d="M210.5,68.3c1.3-0.1,2.5-0.3,3.6-0.6l1.2-5.8h-0.9c-0.4,0.2-1,0.3-2,0.5
	c-0.9,0.2-1.7,0.3-2.2,0.3c-1.3,0-2.3-0.2-2.9-0.5c-0.6-0.3-1-0.8-1.2-1.3c-0.2-0.6-0.2-1.2-0.1-1.9c0.1-0.7,0.3-1.5,0.5-2.4l2-9.4
	h9.8l1.2-5.8h-9.8l1.6-7.6h-10.2l-1.6,7.6h-3.9l-1.2,5.8h3.9l-2.6,12.4c-0.7,3.1-0.2,5.4,1.4,6.8c1.6,1.4,4.5,2.1,8.6,2.1
	C207.7,68.5,209.2,68.4,210.5,68.3 M171.3,51.3c0.5-1.7,1.4-3,2.7-3.9c1.3-1,3-1.4,4.9-1.4c1.9,0,3.3,0.5,4,1.4c0.7,0.9,1,2.2,0.6,4
	H171.3z M180.9,68.4c1.2-0.1,2.4-0.3,3.5-0.6c1.2-0.2,2.2-0.5,3-0.7c0.7-0.2,1.5-0.5,2.4-0.7l1.5-6.8h-1.1c-0.5,0.3-1.1,0.6-1.9,0.9
	c-0.8,0.3-1.6,0.7-2.5,1c-1,0.3-2.1,0.6-3.3,0.8c-1.2,0.2-2.4,0.3-3.6,0.3c-1.4,0-2.6-0.1-3.7-0.3c-1.1-0.2-2.1-0.6-2.8-1.1
	c-0.8-0.5-1.4-1.1-1.7-2c-0.4-0.8-0.5-1.9-0.3-3.1h22.3l0.6-3c0.9-4.1,0.3-7.2-1.8-9.4c-2.1-2.2-5.6-3.3-10.6-3.3
	c-5.5,0-10,1.3-13.7,3.9c-3.6,2.6-5.9,6-6.8,10.4c-0.9,4.4,0,7.8,2.7,10.2c2.8,2.4,7.2,3.6,13.4,3.6
	C178.2,68.6,179.7,68.6,180.9,68.4 M162.9,32.8h-9.9l-4.3,20.1l-9.5-20.1h-13.3l-7.5,35.1h9.9l5.2-24.5l11.5,24.5h10.5L162.9,32.8z
	 M106.1,54.5l14.6-13.1H109l-7.7,7.5l-4.5-7.5H84.9l9,13.3L79,67.9h11.7l8-7.6l4.6,7.6h11.9L106.1,54.5z M60.2,51.3
	c0.5-1.7,1.4-3,2.7-3.9c1.3-1,3-1.4,4.9-1.4c1.9,0,3.3,0.5,4,1.4c0.7,0.9,1,2.2,0.6,4H60.2z M69.8,68.4c1.2-0.1,2.4-0.3,3.5-0.6
	c1.2-0.2,2.2-0.5,3-0.7c0.7-0.2,1.5-0.5,2.4-0.7l1.4-6.8h-1.1c-0.5,0.3-1.1,0.6-1.9,0.9c-0.8,0.3-1.6,0.7-2.5,1
	c-1,0.3-2.1,0.6-3.3,0.8c-1.2,0.2-2.4,0.3-3.6,0.3c-1.4,0-2.6-0.1-3.7-0.3c-1.1-0.2-2.1-0.6-2.8-1.1c-0.8-0.5-1.4-1.1-1.7-2
	c-0.4-0.8-0.5-1.9-0.3-3.1h22.3l0.6-3c0.9-4.1,0.3-7.2-1.8-9.4c-2.1-2.2-5.6-3.3-10.6-3.3c-5.5,0-10,1.3-13.7,3.9
	c-3.6,2.6-5.9,6-6.8,10.4c-0.9,4.4,0,7.8,2.7,10.2c2.8,2.4,7.2,3.6,13.4,3.6C67.1,68.6,68.6,68.6,69.8,68.4 M40.6,67.9l6-28.4h12.8
	l1.4-6.7H24.4L23,39.5h12.8l-6,28.4H40.6z"/>
<polyline id="XMLID_24_" class="st4" points="223.7,51.9 237.2,51.9 240.1,44.7 241.6,57.5 244,39.7 245.3,62.7 247.8,31 
	250.3,68.9 252.8,17.9 254,77 256.7,30.4 259,69.5 261.3,40.6 263.3,63.9 265.8,45.3 267.7,60.2 268.9,52.6 282.3,52.6 "/>
</svg>
