<?xml version="1.0" encoding="utf-8"?>
<!-- Generator: Adobe Illustrator 16.0.4, SVG Export Plug-In . SVG Version: 6.00 Build 0)  -->
<!DOCTYPE svg PUBLIC "-//W3C//DTD SVG 1.1//EN" "http://www.w3.org/Graphics/SVG/1.1/DTD/svg11.dtd">
<svg version="1.1" id="Layer_1" xmlns="http://www.w3.org/2000/svg" xmlns:xlink="http://www.w3.org/1999/xlink" x="0px" y="0px"
	 width="612px" height="169.2px" viewBox="-0.22 311.4 612 169.2" enable-background="new -0.22 311.4 612 169.2"
	 xml:space="preserve">
<g transform="matrix(0.997548,-5.96331e-19,-6.0053e-19,0.993007,-0.00010787,-0.105271)">
	<g id="Layer1">
		
			<rect x="-0.135" y="315.693" stroke="#000000" stroke-linecap="round" stroke-linejoin="round" stroke-miterlimit="1.4142" width="613.505" height="166.403"/>
	</g>
</g>
<g transform="matrix(0.317404,0,0,0.317404,2.80835,-98.692)">
	<g id="New_Logo">
		<g>
			<g id="Wave" transform="matrix(1,0,0,0.443422,-1.77636e-15,220.348)">
				<g transform="matrix(1,0,0,1,-13.4765,105.81)">
					<path fill="none" stroke="#EFEFEF" stroke-width="3" stroke-miterlimit="10" d="M231.666,2914.974l0.686,1.034l0.621,0.069
						l0.625,0.208l0.615-1.242l0.621-1.304l0.621,2.199l0.622,1.999l0.686-1.651l0.615-0.486l0.622,1.312l0.621-0.555l0.615-0.208
						l0.618,0.902l0.628-1.103l0.686-2.137l0.618,0.347l0.615,1.166l0.625,0.076l0.621-0.694l0.615-1.235l0.621-1.103l0.689-0.208
						l0.618,1.79l0.625,0.555l0.612-1.589l0.622-0.271l0.621,0.896l0.615,0.964l0.695,0.34l0.612,0.964l0.625-0.617l0.618-1.791
						l0.618,1.305l0.622,1.242l0.621-0.625l0.689-0.756l0.621-0.132l0.615,0.687l0.621,0.964l0.622,1.859l0.615-1.034l0.619-3.171
						l0.689,0.902l0.622,0.409l0.615-1.512l0.621,0.409l0.621-0.687l0.621-0.694l0.615,1.312l0.686,1.998l0.625,0.896l0.622-1.86
						l0.615,0.278l0.621,2.616l0.618-1.034l0.615-1.45l0.695-0.201l0.615-1.242l0.618,1.52l0.621,2.886l0.615,0.278l0.625-1.86
						l0.621-2.061l0.686-0.076l0.621-0.271l0.618,0.965l0.618,2.886l0.622-2.338l0.615-2.13l0.622,1.922l0.689,1.45l0.618-0.694
						l0.621-3.095l0.615,0.069l0.621,1.443l0.618,0.347l0.618,2.061l0.692-0.958l0.615-1.52l0.622,0.618l0.625,0.625l0.615,0.548
						l0.618-0.687l0.621-0.548l0.689-1.86l0.615-0.485l0.621,2.893l0.622-0.617l0.618-1.242l0.615,1.589l0.621,2.061l0.689,0.485
						l0.621-0.763l0.612,0.902l0.621-2.546l0.625-2.824l0.615,2.546l0.622,0.826l0.686-1.034l0.625-0.139l0.618,0.687"/>
				</g>
				<g transform="matrix(1,0,0,1,-13.4765,105.81)">
					<path fill="none" stroke="#EFEFEF" stroke-width="3" stroke-miterlimit="10" d="M294.665,2915.251l0.622,0.687l0.615-0.201
						l0.618-0.694l0.621,1.305l0.615-1.305l0.695-1.721l0.615,2.415l0.618,1.027l0.621-1.103l0.615-0.139l0.625,0.277l0.621-0.826
						l0.686-0.34l0.618,2.824l0.618,0.687l0.621-2.685l0.621,1.096l0.615,1.52l0.618-0.826l0.689,0.271l0.622-0.826l0.621-0.958
						l0.612,1.783l0.621,9.638l0.621,26.166l0.618,31.328l0.686-4.198l0.621-67.339l0.625-79.797l0.621-3.23l0.615,75.249
						l0.618,53.427l0.621-29.739l0.689-62.312l0.615-45.167l0.618-4.684l0.621,71.471l0.615,88.47l0.622,12.531l0.621-36.49
						l0.686-24.854l0.622,7.022l0.615,2.824l0.625-37.94l0.621-17.693l0.615,23.682l0.618,20.732l0.689,11.49l0.622-0.34
						l0.621,2.824l0.615,8.465l0.621-16.452l0.618-30.023l0.615-0.202l0.695,31.599l0.615,21.96l0.621-10.116l0.619-37.323
						l0.618-33.458l0.621-9.086l0.621,6.883l0.686,19.553l0.625,8.951l0.615,9.641l0.618,34.152l0.622,14.384l0.615-18.311
						l0.621-25.749l0.689-23.345l0.621,0.347l0.621,38.971l0.612,60.997l0.625,18.387l0.622-69.886l0.615-100.866l0.686-50.881
						l0.622,33.742l0.621,91.36l0.615,66.305l0.621-3.789l0.621-48.952l0.622-37.937l0.686,4.132l0.615,22.995l0.621,19.004
						l0.622-2.685l0.612-30.297l0.622-28.778l0.625-5.301l0.686,22.516l0.621,28.573l0.615-4.551l0.625-8.944l0.621,36.76
						l0.615,42.069l0.618-15.147l0.689-53.358l0.621-12.323l0.621,29.33l0.615,0.208l0.618-3.511"/>
				</g>
				<g transform="matrix(1,0,0,1,-13.4765,105.81)">
					<path fill="none" stroke="#EFEFEF" stroke-width="3" stroke-miterlimit="10" d="M357.59,2934.117l0.621-3.511l0.622,15.695
						l0.615-21.551l0.692-44.06l0.615-22.654l0.621,10.325l0.621,50.603l0.615,52.129l0.621,5.988l0.622-21.343l0.689-30.433
						l0.622-32.774l0.612-3.997l0.622-0.135l0.621-6.058l0.615,19.415l0.621,9.433l0.686-18.592l0.621-6.123l0.615,17.211
						l0.621,14.869l0.625-4.267l0.621-4.885l0.615,11.428l0.683,0.618l0.625-29.336l0.625-15.761l0.612,8.191l0.621-6.196
						l0.622,23.137l0.615,65.677l0.695,32.708l0.612-14.113l0.621-40.827l0.621-21.891l0.615,29.392l0.625,18.588l0.618-32.632
						l0.686-45.51l0.622-15.355l0.618,11.771l0.618,15.834l0.625,13.297l0.615-3.58l0.618-16.257l0.689-2.338l0.621,12.878
						l0.622,10.81l0.615-8.614l0.621-7.636l0.621,10.193l0.615-1.242l0.692-8.333l0.615-13.634l0.621-13.01l0.625,34.977
						l0.615,50.534l0.621-1.235l0.618-49.715l0.689-37.177l0.615,29.607l0.621,51.637l0.618-5.44l0.621-49.368l0.615-18.866
						l0.622,27.956l0.689,15.494l0.622-13.85l0.615-7.087l0.621-7.64l0.625-6.886l0.612,19.209l0.621,16.254l0.686-13.086
						l0.625-8.812l0.621,10.054l0.615-4.271l0.621-15.008l0.618,2.685l0.615,7.709l0.695-1.721l0.615-1.374l0.621,1.096l0.619,7.851
						l0.615,26.991l0.625,26.235l0.621-24.792l0.686-49.982l0.621,0.479l0.618,23.824l0.618,4.753l0.622,13.142l0.615,40.688
						l0.621,18.387l0.689-54.662l0.621-50.603l0.618,12.802l0.615,18.658l0.621-9.291l0.622-10.467l0.615,20.792"/>
				</g>
				<g transform="matrix(1,0,0,1,-13.4765,105.81)">
					<path fill="none" stroke="#EFEFEF" stroke-width="3" stroke-miterlimit="10" d="M420.524,2897.35l0.618,20.795l0.683,30.842
						l0.621-8.333l0.628-27.678l0.618-11.702l0.615-7.365l0.621,8.056l0.622,23.064l0.686,9.707l0.615,1.242l0.622-9.915
						l0.621-22.651l0.615-31.123l0.618-26.783l0.625,27.404l0.686,50.051l0.621-6.813l0.615-39.106l0.625-13.218l0.621,32.563
						l0.615,50.124l0.621,17.416l0.686-12.184l0.621-15.633l0.621-3.92l0.615,14.39l0.622,9.222l0.621-15.827l0.615-17.562
						l0.692,1.86l0.615-7.924l0.621-15.827l0.621,14.183l0.618,12.184l0.618-10.949l0.622-9.707l0.686-9.846l0.625-10.325
						l0.615,6.953l0.621,36.691l0.621,14.946l0.612-39.175l0.625-27.4h0.686l0.621,1.721l0.622,6.605l0.615,0.555l0.621,4.198
						l0.625,18.113l0.615,23.817l0.686,23.272l0.618-13.294l0.625-50.114l0.615-29.059l0.622,29.059l0.621,62.791l0.618,18.45
						l0.689-39.175l0.615-31.876l0.621-3.167l0.621,4.684l0.612,2.203l0.621,3.646l0.625-1.169l0.686,5.377l0.621,12.323
						l0.615-16.392l0.625-22.235l0.622,4.472l0.615,29.194l0.619,39.314l0.689-1.172l0.622-24.229l0.621,2.886l0.615-1.582
						l0.618-17.485l0.621-0.555l0.615,10.741l0.695,2.415l0.615-3.997l0.618-19.275l0.622-29.128l0.618-9.499l0.621,22.099
						l0.621,60.525l0.686,41.444l0.621-12.531l0.615,6.813l0.621,35.873l0.619,65.688l0.615,95.697l0.622,33.735l0.689-62.926
						l0.618-140.798l0.615-164.281l0.621-109.4l0.628-57.215l0.618-42.825l0.615-83.585l0.686-135.909l0.625-95.77"/>
				</g>
				<g transform="matrix(1,0,0,1,-13.4765,105.81)">
					<path fill="none" stroke="#EFEFEF" stroke-width="3" stroke-miterlimit="10" d="M483.517,2422.904l0.625-95.77l0.622,9.364
						l0.615,102.448L486,2606.321l0.618,210.749l0.615,255.229l0.695,265.692l0.615,158.29l0.621-11.636l0.618-119.808l0.615-162.55
						l0.625-177.627l0.621-172.132l0.686-152.638l0.621-89.365l0.615,34.29l0.625,153.322l0.619,162.28l0.615,38.419l0.622-50.673
						l0.689-23.272l0.621,15.702l0.621,62.648l0.615,124.485l0.618,87.711l0.621-79.315l0.619-191.609l0.692-132.329l0.615-18.176
						l0.619,41.86l0.628,20.653l0.612-23.681l0.621-8.403l0.622,28.299l0.689,21l0.615,6.678l0.618,29.95l0.622,46.339l0.621,6.127
						l0.615-48.265l0.621-31.054l0.689,20.378l0.621,15.289l0.615,3.643l0.622,33.118l0.621,40.348l0.615-12.115l0.621-90.611
						l0.686-107.197l0.625-32.223l0.621,45.101l0.615,71.325l0.622,60.518l0.618,48.057l0.615,50.471l0.695,37.725l0.615,18.249
						l0.621,12.461l0.618-18.935l0.615-80.071l0.625-97.355l0.625-41.444l0.683,24.785l0.622,33.395l0.618-13.152l0.621-70.916
						l0.618-76.012l0.615-12.462l0.621,30.294l0.689,28.986l0.622,37.937l0.621,46.471l0.615,41.864l0.621,30.842l0.621,14.12
						l0.618,7.021l0.686-9.506l0.621-45.232l0.622-52.875l0.621-23.615l0.615,10.671l0.621,37.593l0.621,62.648l0.689,74.631
						l0.615,37.94l0.621-17.214l0.622-35.248l0.612-55.425l0.622-98.868l0.625-86.063l0.686,0.895l0.621,58.663l0.612,38.002
						l0.628,17.006l0.618,36.768l0.615,37.177l0.621-14.8l0.689-57.354l0.621-31.605l0.621,16.181l0.612,34.083"/>
				</g>
				<g transform="matrix(1,0,0,1,-13.4765,105.81)">
					<path fill="none" stroke="#EFEFEF" stroke-width="3" stroke-miterlimit="10" d="M546.451,2883.785l0.615,34.083l0.622,24.028
						l0.621-5.502l0.615-24.445l0.692-25.614l0.615-26.783l0.621-20.656l0.621,6.543l0.618,49.087l0.622,62.447l0.621,23.48
						l0.686-15.702l0.621-4.059l0.615,18.45l0.621,2.137l0.621-6.266l0.615,10.741l0.618,12.524l0.689,6.751l0.622-1.582
						l0.621-23.063l0.615-50.326l0.621-65.757l0.625-49.777l0.615-16.181l0.686,5.78l0.621,19.556l0.625,37.173l0.615,37.593
						l0.621,5.717l0.618-23.615l0.621-19.074l0.689,2.686l0.615,24.448l0.618,38.829l0.625,20.039l0.612-20.108l0.622-33.808
						l0.625-16.586l0.686,3.92l0.621,12.257l0.615-2.134l0.621-15.147l0.622,18.38l0.615,45.725l0.621,7.362l0.689-36.351
						l0.621-35.598l0.621-7.088l0.615,5.506l0.618-10.811l0.622-9.638l0.615,17.489l0.695,30.984l0.615,21.27l0.618,21.003
						l0.621,33.666l0.618,25.819l0.621-1.443l0.622-13.225l0.689,14.113l0.622,41.035l0.612,10.332l0.622-42.617l0.621-55.703
						l0.615-46.405l0.621-38.138l0.686-21.69l0.621-1.377l0.615,18.176l0.621,23.338l0.625,15.841l0.621,12.732l0.615,4.684
						l0.686-7.639l0.625-13.294l0.618-13.905l0.615-8.257l0.625,6.196l0.621,11.012l0.615,6.89l0.692,13.01l0.615,11.566
						l0.621-4.336l0.621-13.634l0.615-8.056l0.625-4.198l0.621-2.616l0.686,13.697l0.621,22.655l0.618,11.844l0.618,4.885
						l0.625,13.426l0.612,12.33l0.622-7.161l0.689-19.56l0.622-19.144l0.621-9.36l0.612,0.139l0.625-3.927l0.622-18.172"/>
				</g>
				<g transform="matrix(1,0,0,1,-13.4765,105.81)">
					<path fill="none" stroke="#EFEFEF" stroke-width="3" stroke-miterlimit="10" d="M609.376,2915.799l0.625-18.172l0.615-18.727
						l0.692-0.482l0.615,13.905l0.621,23.137l0.625,27.47l0.615,13.357l0.622-14.183l0.621-20.177l0.689-13.558l0.612-17.35
						l0.622,1.447l0.621,30.772l0.621,23.404l0.615-7.702l0.622-16.528l0.689-6.952l0.622-8.191l0.615-14.596l0.618-13.978
						l0.625-5.575l0.615-0.964l0.621,5.023l0.686,9.433l0.625,2.064l0.622-3.993l0.615-10.116l0.621-8.056l0.618,5.506l0.689,18.793
						l0.625,23.615l0.612,6.883l0.621-23.542l0.622-32.632l0.615,3.095l0.625,39.657l0.621,34.287l0.686,12.462l0.618,3.303
						l0.618,8.201l0.621,15.834l0.622,22.855l0.615,19.623l0.621,1.582l0.689-20.788l0.621-34.422l0.621-31.466l0.615-28.441
						l0.622-21.687l0.621-9.776l0.615-8.052l0.686-0.968l0.622,5.509l0.625,1.1l0.621-1.651l0.615-4.68l0.622-5.575l0.618-2.754
						l0.689,13.835l0.615,36.087l0.622,32.972l0.621,19.144l0.615,1.651l0.621-20.587l0.625-20.032l0.683-1.728l0.625,15.633
						l0.612,17.214l0.628,2.269l0.618-6.196l0.615-15.147l0.621-28.781l0.689-19.07l0.621,7.435l0.622,15.632l0.615,2.061
						l0.621-7.365l0.621-4.958l0.615-8.333l0.692-7.848l0.615,4.753l0.621,7.986l0.622,9.499l0.618,13.842l0.621,0.479l0.618-10.394
						l0.686-1.79l0.625,2.207l0.615,3.233l0.621,4.475l0.622-0.479l0.615-0.694l0.621-1.374l0.689,1.721l0.621,6.335l0.621-3.789
						l0.612-9.221l0.625-13.36l0.625-21.898l0.615-5.78l0.683,9.433"/>
				</g>
				<g transform="matrix(0.753398,0,0,1,41.4723,105.81)">
					<path fill="none" stroke="#EFEFEF" stroke-width="3" stroke-miterlimit="10" d="M819.428,2872.013l0.686,9.433l0.621-2.893
						l0.625-6.401l0.617,11.705l0.625,24.511l0.621,19.831l0.621,10.394l0.686,9.089l0.617,6.675l0.621-4.267l0.621-11.289
						l0.617-14.529l0.621-21.892l0.625-18.457l0.686,1.169l0.621,16.871l0.616,21.343l0.625,11.428l0.621-5.71l0.613-10.741
						l0.621-8.333l0.69-4.34l0.621-1.235l0.621-2.689l0.617-7.16l0.625-5.093l0.621,9.367l0.613,4.954l0.694-16.455l0.617-12.396
						l0.621,11.983l0.621,29.33l0.621,24.229l0.621,2.893l0.621-8.326l0.69-4.684l0.621,4.267l0.617,6.751l0.621-5.856l0.621-17.485
						l0.613-11.844l0.621-2.477l0.69-3.58l0.625-2.412l0.613,1.999l0.621-0.413l0.625,4.544l0.621,15.695l0.617,11.774l0.686-1.374
						l0.625,0.062l0.621,8.881l0.617,10.193l0.621,8.333l0.621-0.625l0.616-9.499l0.694-6.883l0.613-5.509l0.625-7.091l0.621-0.687
						l0.613,8.951l0.629,3.712l0.621-14.044l0.686-19.345l0.621-7.92l0.617-5.436l0.621-7.574l0.621,3.306l0.617,8.396l0.621,6.682
						l0.69,6.953l0.621,1.1l0.621-6.266l0.617-7.021l0.621,3.375l0.621,18.109l0.617,17.208l0.694,2.276l0.613-10.609l0.625-20.514
						l0.621-22.034l0.616-5.575l0.625,10.328l0.682,11.771l0.625,8.951l0.617,5.305l0.621,2.199l0.621,1.034l0.621-1.582
						l0.617,1.582l0.621,7.708l0.69,1.381l0.621-1.582l0.616,12.323l0.621,18.519l0.625,3.441l0.613-14.252l0.621-19.553
						l0.686-19.411l0.625-19.487l0.621-9.502"/>
				</g>
				<g transform="matrix(1,0,0,1,-13.4765,105.81)">
					<path fill="none" stroke="#EFEFEF" stroke-width="3" stroke-miterlimit="10" d="M1490.662,2927.366l0.621-3.303l0.612-0.964
						l0.689,3.164l0.622-1.305l0.621-6.952l0.615-5.71l0.622-0.972l0.621,1.582l0.618,4.066l0.686,4.336l0.615-1.651l0.622-5.093
						l0.628-3.029l0.615-1.308l0.618,2.54l0.622,5.995l0.689,4.544l0.621,3.171l0.612,3.303l0.625-1.45l0.618-7.57l0.615-6.543
						l0.621,1.443l0.689,4.614l0.622,0.555l0.622-1.79l0.612-2.546l0.625,1.582l0.621,8.673l0.615,5.093l0.692-3.372l0.618-4.267
						l0.622-0.139l0.622-0.826l0.615-4.614l0.615-2.547l0.621,0.07l0.689-1.582l0.622-1.86l0.615,1.096l0.622,1.589l0.622,1.721
						l0.618,4.954l0.618,4.336l0.686,1.173l0.622,0.555l0.618,0.763l0.618,2.123l0.621,1.388l0.622-4.552l0.615-9.367l0.686-8.396
						l0.621-2.269l0.622,3.508l0.615,5.166l0.621,5.023l0.622-0.479l0.618-3.997l0.692,0.139l0.612,2.276l0.618,0.958l0.628-1.173
						l0.612,0.625l0.622,3.851l0.621,1.734l0.689,0.611l0.622-2.276l0.615-7.362l0.622-3.171l0.618,1.381l0.615,0.756l0.622-1.173
						l0.689,0.277l0.622,3.581h0.618l0.615-1.173l0.625,0.687l0.618-0.479l0.615-0.278l0.692-0.687l0.618-1.305l0.622-2.963
						l0.622-2.269l0.615,0.205l0.622-0.961l0.618,1.1l0.686,4.472l0.615,3.789l0.621,2.546l0.622,3.372l0.622,2.068l0.618-2.137
						l0.621-3.99l0.686-3.435l0.621-1.998l0.612-0.076l0.622,1.658l0.621,0.826l0.615,0.964l0.621,4.809l0.689,4.614"/>
				</g>
				<g transform="matrix(1,0,0,1,-13.4765,105.81)">
					<path fill="none" stroke="#EFEFEF" stroke-width="3" stroke-miterlimit="10" d="M1553.587,2922.821l0.689,4.614l0.621-0.139
						l0.618-4.128l0.615-4.128l0.621-2.207l0.625,1.651l0.615,5.232l0.692,0.555l0.615-3.102l0.625-0.895l0.622,2.685l0.612,3.58
						l0.618,0.417l0.621,0.201l0.689-0.132l0.622-0.548l0.615,0.818l0.622-0.895l0.622-3.095l0.615-3.788l0.618-4.614l0.689-2.89
						l0.618,1.239l0.622,3.441l0.618-0.271l0.622-3.858l0.621,1.929l0.615,6.953l0.686,4.406l0.622,2.269l0.618,0.278l0.621-1.922
						l0.615-1.242l0.621-1.104l0.622-3.649l0.689-4.267l0.612-0.555l0.621,2.415l0.622,0.208l0.618,0.618l0.622,1.443l0.621-3.164
						l0.686-3.032l0.625,1.589l0.615,0.687l0.619-3.719l0.621,0.548l0.612,8.125l0.622,4.684l0.689,0.618l0.621-0.34l0.622-3.58
						l0.615-3.24l0.622-0.417l0.622,0.486l0.615-1.86l0.689-2.269l0.615,1.304l0.628,0.486l0.618,0.687l0.615,2.137l0.621-2.692
						l0.618-3.712l0.689,1.721l0.622,5.093l0.615,2.963l0.622,2.061h0.622l0.615-8.188l0.625-5.717l0.683,2.685l0.618,0.618
						l0.622-3.233l0.618-1.1l0.622,1.238l0.621,0.41l0.615,1.582l0.689,4.136l0.618,0.826l0.621-1.79l0.615,2.484l0.618,2.54
						l0.621-2.338l0.622-3.997l0.689-2.686l0.615-1.578h0.622l0.622,3.237l0.615,2.13l0.622-0.34l0.622,2.13l0.689,2.137h0.622
						l0.615,4.198l0.621,5.579l0.622-1.651l0.612-4.198l0.618,1.305l0.689,3.102l0.621-1.659l0.622-2.408"/>
				</g>
				<g transform="matrix(1,0,0,1,-13.4765,105.81)">
					<path fill="none" stroke="#EFEFEF" stroke-width="3" stroke-miterlimit="10" d="M1616.586,2927.366l0.622-2.408l0.615-0.277
						l0.625-1.513l0.622,0.278l0.615,1.374l0.689-3.032l0.618-4.676l0.622-1.034l0.622,2.887l0.615,2.207l0.618,0.555l0.622,0.818
						l0.686-1.443l0.622-1.513l0.615,0.617l0.622-1.582l0.622-2.748l0.618,1.645l0.621,3.379l0.686-2.346l0.618-3.92l0.615-1.582
						l0.622-2.276l0.621,0.895l0.622,6.266l0.615,7.021l0.689,2.616l0.622-0.548l0.622,0.826l0.615-1.45l0.618-1.582l0.622-1.242
						l0.618-7.292l0.689-5.093l0.615,0.826l0.622,1.235l0.628-0.819l0.615-0.69l0.618,2.411l0.618-0.139l0.689,0.625l0.622,4.815
						l0.615,0.617l0.622-1.853l0.622-0.763l0.615-0.819l0.622,0.888l0.683,2.338l0.622,1.381l0.622-1.929l0.615-3.095l0.625,1.096
						l0.622,0.694l0.615-2.623l0.692,0.139l0.615,0.069l0.622-1.721l0.622,1.235l0.615,1.651l0.622-2.886l0.622-3.854l0.686,2.744
						l0.615,3.581l0.622-1.027l0.618,1.103l0.622,2.894l0.618,1.166l0.621,1.103l0.686,2.686l0.625-0.139l0.615-7.16l0.622-3.858
						l0.618,3.31l0.615,1.235l0.619-1.235l0.689,0.069l0.622-0.486l0.622-1.721l0.615-0.409l0.622-0.347l0.625-2.685l0.612-0.548
						l0.692,3.095l0.615,1.173l0.625-0.555l0.622,1.103l0.615-0.964l0.618-0.687l0.622,4.885l0.686,4.274h0.622l0.615,0.687
						l0.622,2.616l0.622-0.826l0.615-2.477l0.625,1.859l0.686-0.277l0.621-4.823l0.618-2.824l0.615,0.277l0.625,0.826"/>
				</g>
				<g transform="matrix(1,0,0,1,-13.4765,105.81)">
					<path fill="none" stroke="#EFEFEF" stroke-width="3" stroke-miterlimit="10" d="M1679.514,2916.833l0.621,0.826l0.622-0.201
						l0.615,1.166l0.689,1.103l0.622-1.305l0.622,1.714l0.621,1.173l0.612-3.65h0.622l0.621,3.997l0.686,0.965l0.615-2.547
						l0.622-2.275l0.621-0.07l0.618,1.312l0.618,2.061l0.622-0.687l0.686-4.892l0.625-2.679l0.615,2.061l0.622,1.443l0.621,0.625
						l0.615,1.859l0.615,0.069l0.689-1.721l0.622,2.824l0.622,5.641l0.615,0.618l0.622-2.886l0.625-1.992l0.615-1.651l0.689,0.479
						l0.615,3.372l0.625-0.271l0.622-7.438l0.615-3.372l0.622,4.684l0.621,2.2l0.689,0.277l0.622,1.513l0.609-0.826l0.622-1.381
						l0.621,1.999l0.615,2.415l0.625-2.824l0.686-3.095l0.622,2.408l0.622,1.721l0.618-0.07l0.618-0.277l0.622-2.477l0.615-0.756
						l0.689,1.374l0.622,1.721l0.621-0.895l0.615-2.686l0.618,1.86l0.618,0.625l0.621-1.929l0.689,1.79l0.615,0.34l0.621-3.65
						l0.628-1.79l0.612,1.866l0.622,0.34l0.621-2.207l0.686,0.895l0.621,1.034l0.615-0.548l0.621,1.998l0.622,0.548l0.615-2.817
						l0.621-1.589l0.689,1.791l0.618-1.312l0.622-5.023l0.615,1.308l0.625,1.856l0.622-1.097l0.615,2.616l0.689,2.956l0.619,0.417
						l0.621-1.104l0.618,0.417l0.615,1.312h0.621l0.622,1.922l0.689-1.381l0.622-5.71l0.615,1.45l0.622,5.023l0.615-1.172
						l0.622-3.164l0.621-0.486l0.683,1.034l0.625,0.896l0.618,4.205l0.618,3.303l0.622-5.717l0.622-4.059l0.612,5.572"/>
				</g>
				<g transform="matrix(1,0,0,1,-13.4765,105.81)">
					<path fill="none" stroke="#EFEFEF" stroke-width="3" stroke-miterlimit="10" d="M1742.448,2914.564l0.612,5.571l0.689,4.753
						l0.622-1.512l0.621-3.373l0.615-1.929l0.621,2.2l0.619,5.579l0.618,4.066l0.689-2.686l0.615-6.196l0.622-0.555l0.625,1.859
						l0.615-0.416l0.622,0.756l0.622-0.202l0.686-0.485l0.618,1.311l0.615-0.271l0.622-2.692l0.622-4.337l0.615-0.409l0.622,2.338
						l0.689,0.895l0.621,3.233l0.622,0.694l0.612-3.303l0.625-0.417l0.622,2.269l0.615,1.651l0.692-1.305l0.615-1.582h0.622
						l0.621-0.485l0.612,0.347l0.625-0.479l0.618-1.658l0.689-0.417l0.615,1.242l0.622,1.172l0.621-0.833l0.622,0.902l0.618-0.277
						l0.618-4.337l0.686-1.998l0.625-0.687l0.615-0.208l0.618,1.52l0.622,1.235l0.615,0.763l0.622,1.027l0.686,3.719l0.622,2.616
						l0.621-2.546l0.615-1.651l0.621,1.305l0.625,1.859l0.615,0.34l0.692,0.972l0.612,2.685l0.625-1.859l0.621-3.24l0.615-1.721
						l0.622-2.748l0.618,0.479l0.689,2.546l0.622,1.513l0.615-0.208l0.618-2.616l0.621-2.886l0.615-1.173l0.625,1.929l0.686,1.859
						l0.622-1.651h0.622l0.618,2.13h0.621l0.618-1.512l0.615-0.826l0.686-1.651l0.622-1.381l0.621,3.858l0.622,6.126l0.615,0.618
						l0.622-3.782l0.622-2.276l0.686,0.486l0.615,0.479l0.621-0.347l0.622-0.34l0.618-0.826l0.618-0.278l0.625,2.415l0.683,1.721
						l0.625,0.617l0.612,1.242l0.622-0.971l0.621-0.888l0.615,0.548l0.621-1.721l0.689-3.927l0.622-1.998"/>
				</g>
				<g transform="matrix(1,0,0,1,-13.4765,105.81)">
					<path fill="none" stroke="#EFEFEF" stroke-width="3" stroke-miterlimit="10" d="M1805.441,2915.938l0.621-1.998l0.618,2.484
						l0.615,1.304l0.621-0.069l0.625,0.486l0.615-0.964l0.692,2.137l0.615,4.336l0.625,1.651l0.618-2.963l0.615-4.753l0.621-0.132
						l0.622,0.756l0.689,0.271l0.618,2.276l0.615,0.548l0.622-2.13l0.622,0.895l0.615,4.469l0.622,0.277l0.686-2.616l0.622-0.479
						l0.621-0.625l0.615-0.479l0.622-0.208l0.621-3.99l0.615-5.579l0.686,0.479l0.622,5.169l0.621,3.303l0.615,0.756l0.621-0.208
						l0.622-1.381l0.622-0.958l0.689,0.277l0.612-1.311l0.622-3.095l0.625-2.137l0.615,1.443l0.621,1.929l0.622,0.41l0.689,0.076
						l0.622-2.831l0.615-2.272l0.618,2.62l0.622,3.233l0.615,1.311l0.618,1.104l0.689,1.79l0.622,0.756l0.621-0.548l0.615,1.513
						l0.622,1.104l0.621-2.547l0.615-1.589l0.692,0.077l0.618-2.824l0.622-4.826l0.621-1.995l0.615,3.303l0.618,4.274l0.618,1.443
						l0.689-0.548l0.622-1.929l0.615,0.416l0.622,1.513l0.621-2.075l0.618,0.347l0.622,4.343l0.683,0.479l0.621-3.164l0.618-0.964
						l0.618,1.172l0.622-0.485l0.622-0.548l0.615,5.231l0.689,5.024l0.618-0.41l0.622-0.895l0.615-2.894l0.622-3.032l0.622,1.45
						l0.618,3.025l0.692,0.826l0.612-2.061l0.625-2.477l0.618-5.163l0.615-5.238l0.621,3.441l0.622,5.301l0.689-0.139l0.622,0.347
						l0.615,2.199l0.622,0.756l0.621-1.166l0.615-2.338l0.618-2.207l0.689-1.318l0.618,1.596l0.621,1.374l0.615-2.061"/>
				</g>
				<g transform="matrix(1,0,0,1,-13.4765,105.81)">
					<path fill="none" stroke="#EFEFEF" stroke-width="3" stroke-miterlimit="10" d="M1868.372,2918.484l0.615-2.061l0.625-0.763
						l0.622,0.971l0.615-0.139l0.689-0.486l0.615,2.477l0.621,2.616l0.622-1.783l0.615,0.818l0.625,3.241l0.618-0.833l0.686-2.54
						l0.615-1.721l0.621-0.902l0.622-2.887l0.622-0.964l0.618,1.791l0.621-1.652l0.686-0.208l0.625,3.032l0.612,2.546l0.621,2.338
						l0.618,1.242l0.615-0.965l0.621-2.553l0.689,1.52l0.622,4.128l0.622-2.408l0.615-3.164l0.618,0.34l0.625-2.137l0.615-2.2
						l0.692,0.826l0.615,1.173l0.625,0.618l0.622,4.198l0.615,3.997l0.618-4.267l0.618-5.377l0.689-0.132l0.622-0.278l0.615-1.034
						l0.622,1.998l0.622,1.173l0.615-4.274l0.625-0.34l0.683,5.163l0.622-1.166l0.618-2.824l0.618,1.922l0.625,1.242l0.618-0.756
						l0.615-0.41l0.689-0.139l0.618-3.032l0.622-2.061l0.622,2.269l0.615,0.208l0.622-0.902l0.621,2.346l0.689,1.374l0.612-1.172
						l0.622,1.658l0.618,4.746l0.618,0.555l0.622-3.857l0.621-1.513l0.686-0.347l0.625-1.513l0.615,1.929l0.622,0.687l0.622-3.858
						l0.612,0.555l0.618,6.057l0.689,2.137l0.622-3.719l0.622-1.45l0.615-0.756l0.622-2.893l0.625,1.242l0.612,2.546l0.692-2.824
						l0.615-2.546l0.625,2.893l0.622,2.686l0.615,0.277l0.622,1.651l0.621,2.755l0.686,0.201l0.621,0.347l0.612,2.2l0.622-1.853
						l0.622-3.789l0.615-0.625l0.625-2.13l0.686-2.824l0.621,2.137l0.618,4.059l0.618-0.548l0.622-2.338l0.622,1.645"/>
				</g>
				<g transform="matrix(1,0,0,1,-13.4765,105.81)">
					<path fill="none" stroke="#EFEFEF" stroke-width="3" stroke-linecap="round" stroke-linejoin="round" d="M4.355,2917.333
						c0.569,0-0.532-4.711,0-4.711c1.812,0,1.221,3.851,4.003,3.851c1.314,0-0.363-2.026,0-2.026c0.018,0,0.874,2.886,2.935,2.886
						c1.437,0-0.668-4.711,0-4.711c0,0,1.403,4.274,3.243,4.274c0.234,0-1.412-1.172,0-1.172c1.809,0,3.243,1.609,3.243,1.609
						c1.437,0-0.455-4.711,0-4.711c0,0-0.034,4.711,2.677,4.711c1.437,0-1.437-4.711,0-4.711c1.877,0-1.458,4.711,0.942,4.711
						c1.44,0-0.926-4.711,0-4.711c0,0,2.661,4.711,2.766,4.711c1.108,0-1.071-4.711,0-4.711c0.631,0,0.108,4.711,0.335,4.711
						c0.849,0,0-4.711,0-4.711c1.634,0,0.852,2.359,2.615,2.359c1.44,0-1.092-0.777,0-0.777c1.929,0,1.615,3.129,2.255,3.129
						c1.44,0-1.437-4.711,0-4.711c0,0,1.135,4.711,3.698,4.711c1.388,0-1.04-4.711,0-4.711c1.234,0,2.784,2.65,3.48,2.65
						c0.72,0-1.437-1.908,0-1.908c1.302,0,1.695,1.318,2.243,1.318c1.354,0-0.618-1.596,0-1.596c2.185,0-1.157,4.246,1.025,4.246
						c0.255,0,0-4.711,0-4.711c2.289,0,1.148,4.711,1.148,4.711c1.191,0-0.228-4.711,0-4.711c1.221,0,4.292,4.711,4.292,4.711
						c0.849,0-0.249-4.711,0-4.711c1.846,0,0.2,4.711,2.988,4.711c0.154,0-1.44-4.711,0-4.711c2.101,0-1.972,4.711,0.24,4.711
						c1.286,0-1.434-4.711,0-4.711c2.495,0-0.855,4.711,1.637,4.711v-4.711c2.892,0,2.806,4.711,3.36,4.711
						c1.283,0-0.646-4.711,0-4.711c1.2,0,1.249,4.711,4.514,4.711c1.018,0-0.948-4.711,0-4.711c2.369,0-0.588,4.711,0.431,4.711
						c1.105,0-1.44-4.711,0-4.711c0.969,0-1.415,4.711,0.991,4.711c1.44,0-1.437-4.711,0-4.711c0,0,4.23,2.387,4.452,2.387
						c0,0-1.437-2.311,0-2.311c0,0,0.837,4.635,2.52,4.635c0.271,0-1.437-4.711,0-4.711c2.831,0,3.138,4.711,3.138,4.711
						c0.892,0-0.766-4.711,0-4.711c2.031,0,0.434,4.711,2.477,4.711c0.406,0-0.215-4.711,0-4.711c2.631,0-0.277,4.711,2.36,4.711
						c0,0-0.877-4.711,0-4.711c2.609,0,1.434,4.711,2.249,4.711c0.883,0-1.437-4.711,0-4.711c1.215,0,3.157,4.711,4.464,4.711
						c0.569,0-1.44-4.711,0-4.711c0.803,0-1.834,4.711,0.535,4.711c1.44,0-0.769-4.711,0-4.711c2.015,0,0.526,4.711,2.018,4.711
						c0,0-0.542-4.711,0-4.711c0,0,1.763,3.164,4.095,3.164c0.151,0-0.458-2.977,0-2.977c0.942,0,1.062,1.277,1.388,1.277
						c1.44,0-1.437-1.381,0-1.381c2.123,0,2.781,4.628,4.003,4.628c0.911,0-1.434-4.711,0-4.711c0.775,0,1.148,4.711,4.15,4.711
						c1.437,0-1.132-4.711,0-4.711c0,0,1.24,4.711,1.769,4.711c0,0-0.754-4.711,0-4.711c0.305,0,2.446,1.207,4.357,1.207
						c0.572,0,0-0.673,0-0.673c1.628,0-0.339,4.177,1.249,4.177c0.154,0-0.963-4.711,0-4.711c0.206,0,4.117,4.711,4.304,4.711
						c0,0-0.523-4.711,0-4.711c3.052,0,4.175,4.711,4.175,4.711c0.031,0,0-4.711,0-4.711c2.464,0,1.166,4.711,1.428,4.711
						c0.597,0-0.188-4.711,0-4.711c0,0-1.077,4.711,0.326,4.711c0.166,0-1.437-4.711,0-4.711c0,0,1.114,4.711,4.307,4.711
						c0.843,0-1.443-4.711,0-4.711c1.566,0,1.781,4.711,2.831,4.711c1.437,0-1.437-4.711,0-4.711c0.868,0,1.477,3.428,4.181,3.428
						c0,0-1.437-1.659,0-1.659c1.145,0,1.129,2.942,1.231,2.942v-4.711c1.523,0,0.348,3.046,0.812,3.046c0,0-0.117-1.658,0-1.658
						c0.126,0-0.815,3.323,0.908,3.323c0,0-0.711-4.711,0-4.711c0,0,0.015,4.711,2.175,4.711c1.271,0-1.437-4.711,0-4.711
						c1.068,0,0.415,4.656,1.163,4.656c1.437,0-0.406-4.406,0-4.406c0.357,0-1.354,4.24,0.338,4.24c0.975,0-1.437-3.511,0-3.511
						c2.388,0,0.582,3.733,2.963,3.733c0.871,0-0.883-4.711,0-4.711c0.468,0,1.683,4.711,1.683,4.711c1.44,0-1.418-4.711,0-4.711
						c2.563,0,4.009,3.206,4.009,3.206c1.437,0-0.812-0.715,0-0.715c1.498,0,1.901,1.589,2.551,1.589c1.003,0,0-3.102,0-3.102
						c0.757,0,3.852,3.733,3.852,3.733s-0.938-4.711,0-4.711c2.775,0,0.877,4.711,2.926,4.711v-4.711c0,0,1.794,2.269,2.745,2.269
						c0.981,0-0.348-0.146,0-0.146c1.409,0-0.295,2.588,1.114,2.588c0.434,0-1.437-4.711,0-4.711c0,0,2.068,4.711,3.575,4.711
						v-4.711c2.363,0-1.434,4.711,0.354,4.711c1.437,0-1.437-4.711,0-4.711c0.261,0-0.846,4.711,1.649,4.711
						c0.944,0-0.815-4.711,0-4.711c0,0,0.591,4.44,3.329,4.44c1.437,0-1.44-3.865,0-3.865c1.268,0,2.544,4.135,4.486,4.135
						c1.437,0,0-4.711,0-4.711c1.48,0,0.972,3.053,1.464,3.053c1.44,0-0.062-1.853,0-1.853c1.2,0,0.652,3.511,1.455,3.511
						c1.437,0-1.083-4.711,0-4.711c3.012,0,1.397,4.711,3.754,4.711c1.323,0,0-4.711,0-4.711c2.569,0,0.926,4.711,4.024,4.711
						c1.437,0,0-4.711,0-4.711c2.043,0,2.612,4.711,2.806,4.711c0.72,0-1.437-4.711,0-4.711c0.12,0,0.661,0.52,0.661,0.52
						c0.234,0-1.44-0.271,0-0.271c0,0,1.661,2.963,4.249,2.963c1.44,0-0.391-1.63,0-1.63c1.535,0,1.514-0.375,3.046-0.375
						c1.437,0-1.44-0.18,0-0.18c0.489,0-0.702,2.935,0.822,2.935c1.009,0-1.437-1.651,0-1.651c0,0,3.301,2.4,4.569,2.4
						c0,0-1.209-4.711,0-4.711c2.434,0-0.471,4.455,1.963,4.455c1.058,0,0-2.803,0-2.803s1.258-1.173,2.024-1.173
						c0,0-1.437-0.243,0-0.243c0.702,0,2.021,4.198,3.477,4.198c1.44,0-1.437-0.243,0-0.243c0.901,0,2.157,0.52,3.96,0.52
						c0,0-1.437-4.711,0-4.711c0.154,0-1.015,4.323,1.234,4.323c1.437,0,0-2.824,0-2.824c0.009,0-1,3.212,0.634,3.212
						c1.44,0,0-4.711,0-4.711c2.218,0,1.652,4.087,1.732,4.087c0,0-1.268-1.61,0-1.61c0.169,0,1.544,2.234,1.729,2.234
						c0.637,0-1.308-4.711,0-4.711c2.606,0,2.286,4.385,2.824,4.385c1.44,0-1.434-2.068,0-2.068c0.585,0-0.468,1.811,0.268,1.811
						c1.437,0-0.222-3.4,0-3.4c2.701,0,0.948,3.982,3.652,3.982c0.551,0-0.28-4.711,0-4.711c2.141,0,1.615,4.711,3.714,4.711
						c1.437,0-1.437-4.711,0-4.711c1.911,0,3.778,1.637,3.778,1.637c1.043,0-0.071-0.187,0-0.187c0.846,0,0.677,2.109,2.197,2.109
						c1.224,0-1.437-0.208,0-0.208c1.492,0,1.461-0.416,2.954-0.416c0.778,0-0.741-2.713,0-2.713"/>
				</g>
			</g>
			<g transform="matrix(7.71923,0,0,7.71923,-2806.35,-947.433)">
				<g id="Logo">
					
						<text id="PNSN" transform="matrix(0.4081 0 0 0.4081 449.1391 339.0358)" fill="#EBEBEB" font-family="'ArialMT'" font-size="97.2451">PNSN</text>
				</g>
			</g>
			<g id="Subtitle" transform="matrix(1.85262,0,0,1.81114,-687.432,-231.603)">
				<text transform="matrix(1.7395 0 0 1.7395 654.2041 1092.7678)" fill="#EFEFEF" font-family="'ArialMT'" font-size="23.6174">paciﬁc northwest seismic network</text>
			</g>
		</g>
	</g>
</g>
</svg>
